<svg xmlns="http://www.w3.org/2000/svg">
<defs>
<font id="BYekan+-Bold" horiz-adv-x="1" >
  <font-face 
    font-family="B Yekan+"
    font-weight="700"
    font-stretch="normal"
    units-per-em="2048"
    panose-1="2 0 8 3 3 0 0 2 0 4"
    ascent="1638"
    descent="-410"
    x-height="1091"
    cap-height="1468"
    bbox="-371 -1480 2847 2247"
    underline-thickness="60"
    underline-position="-540"
    unicode-range="U+000D-U+FEFC"
  />
<missing-glyph horiz-adv-x="1122" 
d="M633 305c0 -22.667 -8.16602 -42.333 -24.499 -59s-36.5 -25 -60.5 -25c-10.667 0 -21 2.33301 -31 7s-18.833 10.834 -26.5 18.501s-13.667 16.5 -18 26.5s-6.5 20.667 -6.5 32c0 23.333 8 43.166 24 59.499s36.333 24.5 61 24.5c11.333 0 22 -2.16699 32 -6.5
s18.667 -10.333 26 -18s13.166 -16.5 17.499 -26.5s6.5 -21 6.5 -33zM740.001 779.001c0 -31.333 -8.66895 -56.6699 -26.002 -76.0029s-39.666 -29 -66.999 -29c-24 0 -43.167 7 -57.5 21s-21.5 32 -21.5 54c0 19.333 5.5 35.333 16.5 48s21.5 22.667 31.5 30
c3.33301 3.33301 6.83301 6.33301 10.5 9s5.5 4.33398 5.5 5.00098c0 10 -5.5 18.167 -16.5 24.5s-24.833 9.5 -41.5 9.5c-22.667 0 -40.834 -6.16699 -54.501 -18.5s-20.5 -27.166 -20.5 -44.499c0 -8 1.83301 -17.333 5.5 -28s8.16699 -22 13.5 -34s11 -23.833 17 -35.5
s11.667 -22.167 17 -31.5l3 -6v1c1.33301 -2.66699 2.5 -5.16699 3.5 -7.5s2.16699 -4.5 3.5 -6.5v1c1.33301 -2.66699 2.33301 -4.5 3 -5.5s1.33398 -2.16699 2.00098 -3.5c7.33301 -21.333 13.5 -44.166 18.5 -68.499s7.5 -48.166 7.5 -71.499c0 -25.333 -2 -58 -6 -98
h-58v29l4 29v-1c0 20 -13.667 41.333 -41 64l-56 52c-14 12.667 -22.667 20.667 -26 24c-14.667 17.333 -26 36.666 -34 57.999s-12 43.666 -12 66.999c0 28 5.16699 54 15.5 78s24.333 44.833 42 62.5s38.5 31.334 62.5 41.001s49.333 14.5 76 14.5
c24.667 0 47.834 -3.66699 69.501 -11s40.667 -17.833 57 -31.5s29.333 -30.167 39 -49.5s14.5 -41 14.5 -65zM147.999 49.9971h828v1057h-828v-1057zM95.999 -0.00292969v1158h930v-1158h-930z" />
    <glyph glyph-name="uni06BE" unicode="&#xfbac;&#x200d;" horiz-adv-x="1747" 
d="M1333 371c0 39.333 -44.332 108.998 -132.999 208.998c0.666992 -7.33301 1.16699 -14.666 1.5 -21.999s0.5 -14.666 0.5 -21.999c0 -46.667 -4.66699 -87.167 -14 -121.5s-24 -62.833 -44 -85.5c18 -7.33301 35.167 -12.833 51.5 -16.5s32.166 -5.5 47.499 -5.5
c60 0 90 21.333 90 64zM1001 545.998c0 24 -11.667 45.666 -35 64.999c-20 18 -49.333 27 -88 27c-26 0 -44.667 -7.33301 -56 -22v2c-14.667 -18.667 -22 -38.667 -22 -60c0 -49.333 37.667 -90 113 -122c27.333 15.333 48.833 32.333 64.5 51s23.5 38.334 23.5 59.001z
M1552 382.997c0 -42.667 -7.83008 -83.332 -23.4971 -121.999s-37.834 -74 -66.501 -106c-32 -34 -65.5 -59.667 -100.5 -77s-70.833 -26 -107.5 -26c-90.667 0 -206.667 42.333 -348 127c-74.667 -36.667 -155.334 -55.334 -242.001 -56.001
c-14.667 0 -29 -0.166992 -43 -0.5s-28.667 -0.833008 -44 -1.5h-5c-7.33301 0 -15 -0.166992 -23 -0.5s-15.667 -0.5 -23 -0.5h-22.5c-7.66699 0 -15.167 -0.333008 -22.5 -1l-450 1l-2 73l631 160c-19.333 32.667 -34 66.5 -44 101.5s-15 69.5 -15 103.5
c0 94 27.333 168.667 82 224c59.333 60 129.666 90 210.999 90c20 0 39 -2.33301 57 -7l161 148c293.333 -279.333 440 -489.333 440 -630z" />
    <glyph glyph-name="uni06C0" unicode="&#x647;&#x654;" horiz-adv-x="853" 
d="M461 456c0 17.333 -6.66406 33.668 -19.9971 49.001l-51.5 53.5l-49.5 52.5v1c-5.33301 5.33301 -9 9.16602 -11 11.499l-10 11.5c-88 -86 -132 -147.667 -132 -185c0 -12.667 3.66699 -25.667 11 -39s17.666 -26.333 30.999 -39c27.333 -22 62.333 -33 105 -33
c19.333 0 36.666 2.66699 51.999 8s27.666 13 36.999 23c25.333 27.333 38 56 38 86zM668.003 444.002c0 -49.333 -9.50098 -94.835 -28.501 -136.502s-44.5 -77.5 -76.5 -107.5c-36 -32.667 -74.333 -57.5 -115 -74.5s-83.667 -25.5 -129 -25.5
c-94.667 0 -174.667 35.333 -240 106c-62 70 -93 156.667 -93 260c0 50.667 14.667 104.667 44 162s71 115.333 125 174l-11 12.5c-3.33301 3.66699 -6.66602 6.83398 -9.99902 9.50098c-2 2 -4.5 4.66699 -7.5 8s-6 6.5 -9 9.5s-5.66699 5.83301 -8 8.5
s-3.83301 4.33398 -4.5 5.00098l156 157l325 -333c54.667 -58.667 82 -137 82 -235zM363.002 1243l-325.003 -166l-38 86l83 46c-21.333 17.333 -38.166 36.5 -50.499 57.5s-18.5 43.833 -18.5 68.5c0 22.667 3.83301 43.834 11.5 63.501s18.5 37.167 32.5 52.5
c16 17.333 33.333 29.833 52 37.5s39.334 11.5 62.001 11.5c10 0 24.333 -2.83301 43 -8.5s41.334 -13.5 68.001 -23.5l-45 -85c-13.333 11.333 -24.333 19.166 -33 23.499s-15.667 6.5 -21 6.5c-51.333 0 -77 -26 -77 -78c0 -39.333 19.333 -59 58 -59
c31.333 0 82.333 19.667 153 59z" />
    <glyph glyph-name="uni06C2" unicode="&#x6c1;&#x654;" horiz-adv-x="853" 
d="M447 1266c0 -22.667 -3.16992 -44.334 -9.50293 -65.001s-16.166 -38.667 -29.499 -54s-30 -27.5 -50 -36.5s-44 -13.5 -72 -13.5h-87c-50.667 0 -87.834 5.16699 -111.501 15.5s-35.5 21.833 -35.5 34.5s13.333 24.667 40 36s66 17 118 17h73
c5.33301 0 11.5 1.16699 18.5 3.5s13.833 5.83301 20.5 10.5s12.334 10.334 17.001 17.001s7 14 7 22c0 3.33301 -7.33301 8.33301 -22 15l2 -1c-3.33301 0.666992 -6 1 -8 1h-102v113c0 16 3.66699 31.5 11 46.5s16.833 28.333 28.5 40s24.834 21 39.501 28
s29.334 10.5 44.001 10.5h93v-101h-91c-14 0 -22 -14.333 -24 -43c50 -0.666992 84.167 -8.5 102.5 -23.5s27.5 -39.167 27.5 -72.5zM460.997 456c0 17.333 -6.66406 33.668 -19.9971 49.001l-51.5 53.5l-49.5 52.5v1c-5.33301 5.33301 -9 9.16602 -11 11.499l-10 11.5
c-88 -86 -132 -147.667 -132 -185c0 -12.667 3.66699 -25.667 11 -39s17.666 -26.333 30.999 -39c27.333 -22 62.333 -33 105 -33c19.333 0 36.666 2.66699 51.999 8s27.666 13 36.999 23c25.333 27.333 38 56 38 86zM668 444.002
c0 -49.333 -9.50098 -94.835 -28.501 -136.502s-44.5 -77.5 -76.5 -107.5c-36 -32.667 -74.333 -57.5 -115 -74.5s-83.667 -25.5 -129 -25.5c-94.667 0 -174.667 35.333 -240 106c-62 70 -93 156.667 -93 260c0 50.667 14.667 104.667 44 162s71 115.333 125 174l-11 12.5
c-3.33301 3.66699 -6.66602 6.83398 -9.99902 9.50098c-2 2 -4.5 4.66699 -7.5 8s-6 6.5 -9 9.5s-5.66699 5.83301 -8 8.5s-3.83301 4.33398 -4.5 5.00098l156 157l325 -333c54.667 -58.667 82 -137 82 -235z" />
    <glyph glyph-name="uni06C2.fin" unicode="&#xfba7;&#x654;" horiz-adv-x="810" 
d="M503 1029c0 -22.667 -3.16797 -44.332 -9.50098 -64.999s-16.166 -38.667 -29.499 -54s-30.166 -27.5 -50.499 -36.5s-44.5 -13.5 -72.5 -13.5h-86c-50.667 0 -87.834 5.16699 -111.501 15.5s-35.5 21.5 -35.5 33.5c0 13.333 13.167 25.666 39.5 36.999s65.5 17 117.5 17
h73c5.33301 0 11.5 1.16699 18.5 3.5s14 5.83301 21 10.5s12.833 10.167 17.5 16.5s7 13.833 7 22.5c0 3.33301 -7.33301 8.33301 -22 15l2 -1c-3.33301 0.666992 -6 1 -8 1h-103v113c0 16 3.66699 31.333 11 46s16.833 27.834 28.5 39.501s25 21 40 28
s29.833 10.5 44.5 10.5h92v-100h-90c-14 0 -22 -14.667 -24 -44c50 -0.666992 84.167 -8.33398 102.5 -23.001s27.5 -38.667 27.5 -72zM836.999 119.002l-46.002 -0.00292969c-32 0 -63.167 4 -93.5 12s-57.5 19.333 -81.5 34c-12 7.33301 -29.667 22.333 -53 45
s-51.666 52.334 -84.999 89.001c-15.333 22 -31.333 38.5 -48 49.5s-33 16.5 -49 16.5c-26 0 -52.167 -17 -78.5 -51s-52.166 -86 -77.499 -156c-10.667 -20.667 -22.5 -41.167 -35.5 -61.5s-26.167 -38.666 -39.5 -54.999s-26.333 -29.666 -39 -39.999s-24 -15.5 -34 -15.5
c-3.33301 0 -8.83301 1.66699 -16.5 5s-15.334 8 -23.001 14s-14.5 13.5 -20.5 22.5s-9 19.167 -9 30.5c0 12.667 4.5 28.667 13.5 48s20.5 41.833 34.5 67.5l46 87c16.667 32.333 32.667 67.5 48 105.5c42 102.667 83.5 178.667 124.5 228s81.5 74 121.5 74
c34.667 0 72 -22.333 112 -67c46.667 -52 87.834 -95.833 123.501 -131.5s62.167 -61.167 79.5 -76.5l-2 2c8.66699 -5.33301 20 -10.833 34 -16.5s28.667 -10.167 44 -13.5l-3 1h53v-247z" />
    <glyph glyph-name="uni06CC_uni0659" unicode="&#x6cc;&#x659;" horiz-adv-x="1247" 
d="M221 882c-5.33301 -1.33301 -9.66895 -1.99902 -13.002 -1.99902c-9.33301 0 -18.5 1.83301 -27.5 5.5s-17.167 8.66699 -24.5 15s-13.333 13.333 -18 21s-7 15.5 -7 23.5c0 9.33301 2.5 17.5 7.5 24.5s13.833 13.167 26.5 18.5s29.834 9.33301 51.501 12
s49.167 4 82.5 4h137c17.333 0 37 -0.166992 59 -0.5s47 -0.5 75 -0.5c26.667 0 45.834 -5.66699 57.501 -17s17.5 -24 17.5 -38c0 -16.667 -7 -32.334 -21 -47.001s-32.667 -22 -56 -22zM1097 34.001c0 -183.333 -60.666 -315.667 -181.999 -397
c-38 -25.333 -77.667 -44.5 -119 -57.5s-85 -19.5 -131 -19.5h-259c-118 0 -218.333 47.333 -301 142c-78 90 -117 200.667 -117 332v388h198v-405c0 -28 7 -55.833 21 -83.5s32 -52.834 54 -75.501l-1 3c22 -17.333 48.833 -31.166 80.5 -41.499s64.5 -15.5 98.5 -15.5h218
c30.667 0 60.334 4.5 89.001 13.5s53.667 21.833 75 38.5l-1 -2c24.667 22 43.834 45.167 57.501 69.5s20.5 48.166 20.5 71.499c0 32 -32 55.333 -96 70l1 -1c-10.667 1.33301 -19.334 2.33301 -26.001 3s-11.667 1 -15 1h-255v330c0 101.333 30 182 90 242
c63.333 65.333 139 98 227 98h225l5 -238h-224c-52.667 0 -87.667 -19 -105 -57v2c-3.33301 -9.33301 -6.5 -25.5 -9.5 -48.5s-5.16699 -51.5 -6.5 -85.5c55.333 -1.33301 105.166 -4.66602 149.499 -9.99902s78.166 -12 101.499 -20c44 -17.333 77.833 -46.833 101.5 -88.5
s35.5 -94.5 35.5 -158.5z" />
    <glyph glyph-name="uni06CC_uni0659.fin" unicode="&#xfbfd;&#x659;" horiz-adv-x="1233" 
d="M224 882c-3.33301 -1.33301 -5.83496 -1.99902 -7.50195 -1.99902h-7.5c-9.33301 0 -18.5 1.83301 -27.5 5.5s-17.167 8.66699 -24.5 15s-13.333 13.333 -18 21s-7 15.5 -7 23.5c0 9.33301 2.5 17.5 7.5 24.5s13.833 13.167 26.5 18.5s29.834 9.33301 51.501 12
s49.167 4 82.5 4h137c17.333 0 37 -0.166992 59 -0.5s47 -0.5 75 -0.5c26.667 0 45.834 -5.66699 57.501 -17s17.5 -24 17.5 -38c0 -16.667 -7 -32.334 -21 -47.001s-32.667 -22 -56 -22zM1223 119.001h-154.001c1.33301 -7.33301 2.33301 -14.666 3 -21.999
s1.33398 -14 2.00098 -20c0 -116.667 -38.667 -210.667 -116 -282c-78 -67.333 -168.667 -101 -272 -101h-259c-136 0 -246 52.667 -330 158c-72 94 -108 216.333 -108 367v339h210v-405c0 -32 6.66699 -61.167 20 -87.5s32 -49.833 56 -70.5v1
c22 -17.333 49.167 -30.833 81.5 -40.5s67.5 -14.5 105.5 -14.5h219c57.333 0 101.333 13 132 39c17.333 15.333 30.833 31.666 40.5 48.999s14.5 36.333 14.5 57c0 12 -44.333 22.333 -133 31h1c-10.667 0.666992 -35 1.16699 -73 1.5s-85.333 0.5 -142 0.5l-18 247h720
v-247z" />
    <glyph glyph-name="uni06CC_uni0659.ini" unicode="&#xfbfe;&#x659;" horiz-adv-x="773" 
d="M544 -140c0 -71.333 -41.332 -106.999 -123.999 -106.999c-88.667 0 -133 35.667 -133 107c0 33.333 11.667 61.666 35 84.999c25.333 21.333 53.666 32 84.999 32c91.333 0 137 -39 137 -117zM208.001 -139.999c0 -71.333 -40.333 -106.998 -121 -106.998
c-91.333 0 -137 35.667 -137 107c0 17.333 3.16699 33.166 9.5 47.499s15 26.666 26 36.999s24 18.333 39 24s31.167 8.5 48.5 8.5c90 0 135 -39 135 -117zM77.001 978.003c-3.33301 -1.33301 -5.83301 -2.00195 -7.5 -2.00195h-7.5c-8.66699 0 -17.667 2 -27 6
s-17.666 9 -24.999 15s-13.333 12.833 -18 20.5s-7 15.5 -7 23.5c0 9.33301 2.5 17.5 7.5 24.5s13.833 13.167 26.5 18.5s30 9.33301 52 12s49.667 4 83 4h137c17.333 0 37 -0.166992 59 -0.5s47 -0.5 75 -0.5c26.667 0 45.834 -5.5 57.501 -16.5s17.5 -23.833 17.5 -38.5
c0 -8 -1.83301 -16.167 -5.5 -24.5s-8.83398 -15.666 -15.501 -21.999s-14.834 -11.666 -24.501 -15.999s-20.167 -6.5 -31.5 -6.5zM596.001 432.001c0 -42 -6.33301 -81.333 -19 -118s-29.667 -68 -51 -94c-25.333 -30 -54.5 -54.333 -87.5 -73s-66.5 -28 -100.5 -28h-381
v247h325c39.333 0 66.5 6.83301 81.5 20.5s22.5 37.167 22.5 70.5v271h210v-296z" />
    <glyph glyph-name="uni06CC_uni0659.med" unicode="&#xfbff;&#x659;" horiz-adv-x="746" 
d="M208 -140c0 -71.333 -40.333 -106.998 -121 -106.998c-90.667 0 -136 35.667 -136 107c0 17.333 3.16699 33.166 9.5 47.499s15 26.666 26 36.999s24 18.333 39 24s30.833 8.5 47.5 8.5c90 0 135 -39 135 -117zM544 -139.998c0 -71.333 -41.333 -106.999 -124 -106.999
c-88.667 0 -133 35.667 -133 107c0 33.333 12 61.666 36 84.999c24.667 21.333 52.667 32 84 32c91.333 0 137 -39 137 -117zM77 978.003c-3.33301 -1.33301 -5.83398 -2.00195 -7.50098 -2.00195h-7.5c-8.66699 0 -17.667 2 -27 6s-17.5 9 -24.5 15
s-12.833 12.833 -17.5 20.5s-7 15.5 -7 23.5c0 9.33301 2.5 17.5 7.5 24.5s13.833 13.167 26.5 18.5s29.834 9.33301 51.501 12s49.167 4 82.5 4h137c18 0 37.833 -0.166992 59.5 -0.5s46.5 -0.5 74.5 -0.5c26.667 0 45.834 -5.5 57.501 -16.5s17.5 -23.833 17.5 -38.5
c0 -8 -1.83301 -16.167 -5.5 -24.5s-8.83398 -15.666 -15.501 -21.999s-14.667 -11.666 -24 -15.999s-20 -6.5 -32 -6.5zM759.999 119.001h-37.0029c-31.333 0 -58.166 0.666992 -80.499 2s-41.166 3.66602 -56.499 6.99902c-14 6.66699 -28.167 14.334 -42.5 23.001
s-29.166 19.667 -44.499 33c-28 -22 -55.333 -38.333 -82 -49s-52 -16 -76 -16h-383v247h331c38.667 0 65.5 6.83301 80.5 20.5s22.5 37.167 22.5 70.5v271h210v-271c0 -39.333 6.33301 -62 19 -68c10 -8.66699 26.5 -14.667 49.5 -18s52.833 -5 89.5 -5v-247z" />
    <glyph glyph-name="afii57448_uni0659" unicode="&#x648;&#x659;" horiz-adv-x="875" 
d="M180 1063c-3.33301 -1.33301 -5.83398 -2.00098 -7.50098 -2.00098h-6.5c-9.33301 0 -18.5 2 -27.5 6s-17.167 9 -24.5 15s-13.333 12.833 -18 20.5s-7 15.5 -7 23.5c0 9.33301 2.5 17.666 7.5 24.999s13.833 13.5 26.5 18.5s29.834 8.83301 51.501 11.5s49.167 4 82.5 4
h137c18 0 38 -0.166992 60 -0.5s47 -0.5 75 -0.5c26.667 0 45.667 -5.5 57 -16.5s17 -23.833 17 -38.5c0 -8 -1.83301 -16.167 -5.5 -24.5s-8.83398 -15.666 -15.501 -21.999s-14.667 -11.666 -24 -15.999s-19.666 -6.5 -30.999 -6.5zM492.999 500.999
c0 83.333 -37 125.001 -111 125.001c-49.333 0 -80 -10.667 -92 -32v4c-4 -12.667 -7.5 -28.834 -10.5 -48.501s-4.5 -43.167 -4.5 -70.5c0 -48.667 23.333 -81.667 70 -99c11.333 -4.66699 30 -8 56 -10s56.667 -3.33301 92 -4v135zM701.999 135
c0 -64 -11.166 -122.001 -33.499 -174.001s-55.5 -98.333 -99.5 -139c-46 -40.667 -94.833 -72.167 -146.5 -94.5s-105.834 -33.5 -162.501 -33.5h-234l-31 247h238c77.333 0 138 20 182 60c17.333 15.333 32.333 33.5 45 54.5s22 42.167 28 63.5
c-61.333 1.33301 -117 7.33301 -167 18s-91 25 -123 43c-44 28 -77.667 67.333 -101 118s-35 112.667 -35 186c0 157.333 35.333 266.333 106 327c46.667 40.667 119 61 217 61c68.667 0 125.667 -15.667 171 -47s80.333 -77.333 105 -138
c13.333 -36 23.5 -82.167 30.5 -138.5s10.5 -122.166 10.5 -197.499v-216z" />
    <glyph glyph-name="afii57448_uni0659.fin" unicode="&#xfeee;&#x659;" horiz-adv-x="802" 
d="M180 1063c-3.33301 -1.33301 -5.83203 -2.00098 -7.49902 -2.00098h-7.5c-8.66699 0 -17.667 2 -27 6s-17.5 9 -24.5 15s-12.833 12.833 -17.5 20.5s-7 15.5 -7 23.5c0 9.33301 2.5 17.666 7.5 24.999s13.833 13.5 26.5 18.5s29.834 8.83301 51.501 11.5s49.167 4 82.5 4
h137c18 0 37.833 -0.166992 59.5 -0.5s46.5 -0.5 74.5 -0.5c27.333 0 46.666 -5.5 57.999 -16.5s17 -23.833 17 -38.5c0 -8 -1.83301 -16.167 -5.5 -24.5s-8.83398 -15.666 -15.501 -21.999s-14.667 -11.666 -24 -15.999s-20 -6.5 -32 -6.5zM504.001 489.999
c0 17.333 -2.33203 33.999 -6.99902 49.999s-12.334 31.667 -23.001 47v-2c-10 13.333 -22.333 23.5 -37 30.5s-32.667 10.5 -54 10.5c-46.667 0 -76 -10.667 -88 -32v3c-5.33301 -13.333 -9.5 -29.666 -12.5 -48.999s-4.5 -42.333 -4.5 -69c0 -48.667 25 -81.667 75 -99
c11.333 -4.66699 30.333 -8 57 -10s58 -3.33301 94 -4v124zM829.002 118.998l-115.999 0.00292969c-5.33301 -58.667 -18.833 -113.334 -40.5 -164.001s-50.167 -94 -85.5 -130c-44.667 -42 -94.334 -74.333 -149.001 -97s-113.334 -34 -176.001 -34h-230l-35 247h238
c78.667 0 140.334 20.333 185.001 61c18 16 33.333 34.333 46 55s22 41.334 28 62.001c-60.667 2 -116.667 8.16699 -168 18.5s-93 24.833 -125 43.5c-45.333 28 -79.666 67.167 -102.999 117.5s-35 112.166 -35 185.499c0 157.333 35.667 266.333 107 327
c23.333 19.333 52.666 34.166 87.999 44.499s77 15.5 125 15.5c69.333 0 128.5 -16.667 177.5 -50s86.167 -80 111.5 -140v-1c13.333 -31.333 23.5 -73.833 30.5 -127.5s11.5 -115.834 13.5 -186.501h113v-247z" />
    <glyph glyph-name="fi" unicode="fi" horiz-adv-x="1024" 
d="M675 1196v272h209v-272h-209zM675 1087h209v-1087h-209v1087zM459 1487c11.333 0 23.8301 -0.332031 37.4971 -0.999023s31.834 -2.33398 54.501 -5.00098v-233c-14.667 1.33301 -26.5 2.33301 -35.5 3s-16.167 1.16699 -21.5 1.5s-9.83301 0.5 -13.5 0.5h-10.5
c-21.333 0 -38.5 -1.5 -51.5 -4.5s-20.5 -7.16699 -22.5 -12.5c-3.33301 -9.33301 -6.16602 -27.5 -8.49902 -54.5s-4.16602 -58.5 -5.49902 -94.5h169v-214h-171v-873h-208v873h-140v214h140v119c2.66699 81.333 16 140 40 176l-2 -15z" />
    <glyph glyph-name="fl" unicode="fl" horiz-adv-x="1024" 
d="M880 0h-209v1468h209v-1468zM380 0l-208 -0.00195312v873h-140v214h140v140c0 44 6.5 82.333 19.5 115s31.333 59.667 55 81s52.5 37.333 86.5 48s72 16 114 16c18.667 0 35.667 -0.666992 51 -2s33 -3.66602 53 -6.99902v-230c-14.667 1.33301 -26.5 2.33301 -35.5 3
s-16.333 1.16699 -22 1.5s-10.167 0.5 -13.5 0.5h-10c-43.333 0 -69 -7.66699 -77 -23c-8.66699 -15.333 -13 -34.666 -13 -57.999v-85h171v-214h-171v-873z" />
    <glyph glyph-name="uniFBA5" unicode="&#xe898;&#x654;" horiz-adv-x="1080" arabic-form="final" 
d="M579 450c0 12 -2.33105 23.501 -6.99805 34.501s-10.667 20.5 -18 28.5l-61.5 61.5l-61.5 60.5c-3.33301 -2.66699 -5.83301 -5 -7.5 -7l-6.5 -8l-42 -41c-10.667 -10 -19.334 -18.667 -26.001 -26c-13.333 -18.667 -24.166 -37 -32.499 -55s-12.5 -34 -12.5 -48
c0 -26.667 13.333 -53.334 40 -80.001v1c21.333 -20 52.666 -30 93.999 -30c39.333 0 72.666 11 99.999 33c12.667 13.333 22.667 26.333 30 39s11 25 11 37zM1102 119.001c-86 0 -148.668 11.002 -188.001 33.002c-8 5.33301 -24.333 18.833 -49 40.5l-114 104.5
c-36 -69.333 -79.833 -119.5 -131.5 -150.5s-112.834 -46.5 -183.501 -46.5c-95.333 0 -176.666 34 -243.999 102c-64.667 64.667 -97 151.334 -97 260.001c0 25.333 4.16699 51.666 12.5 78.999s20.166 55.5 35.499 84.5s33.833 58.333 55.5 88s45.834 59.5 72.501 89.5
l-8.5 11c-3 4 -6.16699 7.66699 -9.5 11l-29 30l151 157l523 -550c18 -20.667 33.667 -37.334 47 -50.001s23.333 -21.334 30 -26.001l-1 2c20.667 -12 63.334 -20 128.001 -24v-245zM400.001 1243l-325.003 -166l-38 86l83 46c-21.333 17.333 -38.166 36.5 -50.499 57.5
s-18.5 43.833 -18.5 68.5c0 22.667 3.83301 43.834 11.5 63.501s18.5 37.167 32.5 52.5c16 17.333 33.333 29.833 52 37.5s39.334 11.5 62.001 11.5c10 0 24.333 -2.83301 43 -8.5s41.334 -13.5 68.001 -23.5l-45 -85c-13.333 11.333 -24.333 19.166 -33 23.499
s-15.667 6.5 -21 6.5c-51.333 0 -77 -26 -77 -78c0 -39.333 19.333 -59 58 -59c31.333 0 82.333 19.667 153 59z" />
    <glyph glyph-name="uniFBAB" unicode="&#xfbad;&#x200d;" horiz-adv-x="1571" arabic-form="final" 
d="M1255 371c0 20 -11 47.668 -33 83.001s-54.667 77.333 -98 126c0.666992 -6.66699 1.16699 -13.834 1.5 -21.501s0.5 -15.167 0.5 -22.5c0 -94 -19.667 -163 -59 -207c16.667 -6.66699 33.5 -12 50.5 -16s33.167 -6 48.5 -6c59.333 0 89 21.333 89 64zM923 546.001
c0 12 -3 23.5 -9 34.5s-14.5 20.833 -25.5 29.5s-23.833 15.5 -38.5 20.5s-31 7.5 -49 7.5c-22 0 -41 -7.66699 -57 -23s-24 -34.333 -24 -57c0 -23.333 10.167 -45.5 30.5 -66.5s48.5 -39.5 84.5 -55.5c58.667 31.333 88 68 88 110zM1473 383.001
c0 -5.33301 0.167969 -8 0.500977 -8s0.5 -0.666992 0.5 -2v-2c0 -1.33301 -0.333008 -3 -1 -5h104v-247h-226l6 7c-27.333 -22.667 -56.333 -40.667 -87 -54s-62 -20 -94 -20c-44 0 -95.167 10.667 -153.5 32s-122.833 53 -193.5 95c-37.333 -18 -76.333 -32 -117 -42
s-82.334 -16 -125.001 -18l-553 2l-11 72l561 160c-40.667 68.667 -61 137 -61 205c0 49.333 8.16699 93.5 24.5 132.5s38 72 65 99s58.167 47.5 93.5 61.5s72 21 110 21c7.33301 0 15.5 2.66699 24.5 8l30.5 18c11.333 6.66699 24.5 12.667 39.5 18s32.167 8 51.5 8
c22.667 0 48.667 -5.33301 78 -16s63 -30.667 101 -60c221.333 -167.333 332 -322.333 332 -465z" />
    <glyph glyph-name="uniFC5D" unicode="&#x649;&#x670;" horiz-adv-x="1247" arabic-form="isolated" 
d="M430 836h-106v407h106v-407zM1097 167c0 -91.333 -15.3311 -170.335 -45.998 -237.002s-76 -120 -136 -160c-37.333 -24.667 -77 -43.5 -119 -56.5s-85.667 -19.5 -131 -19.5h-259c-118.667 0 -219 47.667 -301 143c-78 88 -117 198 -117 330v387h198v-408
c0 -57.333 25.333 -107.333 76 -150c45.333 -39.333 104.333 -59 177 -59h218c32 0 61.667 4.66699 89 14s52.666 23.666 75.999 42.999c50.667 40.667 76 85.334 76 134.001c0 15.333 -8.33301 29 -25 41s-41 22.333 -73 31h1c-8 1.33301 -15.167 2.33301 -21.5 3
s-12.166 1 -17.499 1h-255v328c0 100 30 180.333 90 241c63.333 65.333 139 98 227 98h225l5 -236h-224c-53.333 0 -88.333 -19 -105 -57v1c-4 -10 -7.33301 -27 -10 -51s-4.66699 -53 -6 -87c55.333 -1.33301 105.166 -4.66602 149.499 -9.99902
s78.166 -11.666 101.499 -18.999c44 -18 77.833 -47.667 101.5 -89s35.5 -93.333 35.5 -156z" />
    <glyph glyph-name="uniFC90" unicode="&#xfbfd;&#x670;" horiz-adv-x="1233" arabic-form="final" 
d="M488 758h-106v407h106v-407zM1223 119h-154.001c1.33301 -7.33301 2.33301 -14.666 3 -21.999s1.33398 -14 2.00098 -20c0 -116.667 -38.667 -210.667 -116 -282c-78 -67.333 -168.667 -101 -272 -101h-259c-136 0 -246 52.667 -330 158c-72 94 -108 216.333 -108 367
v339h210v-405c0 -32 6.66699 -61.167 20 -87.5s32 -49.833 56 -70.5v1c22 -17.333 49.167 -30.833 81.5 -40.5s67.5 -14.5 105.5 -14.5h219c57.333 0 101.333 13 132 39c17.333 15.333 30.833 31.666 40.5 48.999s14.5 36.333 14.5 57c0 12 -44.333 22.333 -133 31h1
c-10.667 0.666992 -35 1.16699 -73 1.5s-85.333 0.5 -142 0.5l-18 247h720v-247z" />
    <glyph glyph-name="uniFEF5" unicode="&#xe80a;&#xe800;" horiz-adv-x="1186" arabic-form="isolated" 
d="M1010 415c0 -94.667 -25.666 -167 -76.999 -217c-56 -52.667 -125.667 -79 -209 -79h-155c-233.333 0 -350 98.667 -350 296v862h208v-787c0 -25.333 2.16699 -47.5 6.5 -66.5s10.166 -33.167 17.499 -42.5l-1 4c6 -6.66699 19.333 -11.5 40 -14.5s47 -4.5 79 -4.5h145
c46 0 75 11.333 87 34c2 2.66699 3.33301 11.667 4 27s1 36.333 1 63v787h204v-862zM629.001 1376l-449.999 0.000976562c-29.333 0 -51.5 -2.33301 -66.5 -7s-28.5 -11.667 -40.5 -21h1c-7.33301 -6.66699 -16.5 -18.5 -27.5 -35.5s-22.833 -38.833 -35.5 -65.5l-176 71
c24 50.667 45.667 91.667 65 123s37 53.666 53 66.999c20.667 15.333 43.667 28 69 38s64.666 17.333 117.999 22h490v-192z" />
    <glyph glyph-name="uniFEF6" unicode="&#xe80e;&#xe801;" horiz-adv-x="1180" arabic-form="final" 
d="M617 363c21.333 2 38.832 4.83105 52.499 8.49805s22.834 9.83398 27.501 18.501v-1c3.33301 6 5.83301 17.5 7.5 34.5s2.5 39.167 2.5 66.5v787h210v-804c0 -18 2 -33.667 6 -47s11.333 -24.5 22 -33.5s24.834 -15.667 42.501 -20s40.167 -6.5 67.5 -6.5h48v-247
c-106.667 10 -187.334 42 -242.001 96l-2 2l-1 2l-6 8c-30 -35.333 -64.167 -62.166 -102.5 -80.499s-79.833 -27.5 -124.5 -27.5h-152c-212 0 -327.667 81.333 -347 244h-1h492zM122.999 496.998v780h201v-780h-201zM528.999 1376l-449.999 0.000976562
c-29.333 0 -51.5 -2.33301 -66.5 -7s-28.5 -11.667 -40.5 -21h1c-7.33301 -6.66699 -16.5 -18.5 -27.5 -35.5s-22.833 -38.833 -35.5 -65.5l-176 71c24 50.667 45.667 91.667 65 123s37 53.666 53 66.999c20.667 15.333 43.667 28 69 38s64.666 17.333 117.999 22h490v-192z
" />
    <glyph glyph-name="uniFEF7" unicode="&#xe80a;&#xe802;" horiz-adv-x="1086" arabic-form="isolated" 
d="M367 1476l-265.999 -136.999l-39 77l65 37c-33.333 27.333 -50 62 -50 104c0 38.667 13 71 39 97c24 26 54.333 39 91 39c9.33301 0 21.666 -2.33301 36.999 -7s34 -11.334 56 -20.001l-35 -75c-22.667 16 -42 24 -58 24c-32 0 -48 -20.333 -48 -61
c0 -31.333 14.667 -47 44 -47c14.667 0 32.5 4.66699 53.5 14s45.167 22 72.5 38zM910.001 415.001c0 -94.667 -25.666 -167 -76.999 -217c-56 -52.667 -125.667 -79 -209 -79h-155c-233.333 0 -350 98.667 -350 296v862h208v-787c0 -25.333 2.16699 -47.5 6.5 -66.5
s10.166 -33.167 17.499 -42.5l-1 4c6 -6.66699 19.333 -11.5 40 -14.5s47 -4.5 79 -4.5h145c46 0 75 11.333 87 34c2 2.66699 3.33301 11.667 4 27s1 36.333 1 63v787h204v-862z" />
    <glyph glyph-name="uniFEF8" unicode="&#xe80e;&#xe803;" horiz-adv-x="1080" arabic-form="final" 
d="M353 1498l-265.002 -136.999l-41 77l66 36c-15.333 13.333 -27.666 29.166 -36.999 47.499s-14 37.5 -14 57.5c0 38.667 13.333 71 40 97c24.667 26 55.334 39 92.001 39c8.66699 0 20.667 -2.5 36 -7.5s33.666 -11.833 54.999 -20.5l-34 -75
c-11.333 8 -21.666 14.167 -30.999 18.5s-18.666 6.5 -27.999 6.5c-31.333 0 -47 -20.667 -47 -62c0 -30.667 14.333 -46 43 -46c29.333 0 71.666 16.667 126.999 50zM616.998 363.001c21.333 2 38.832 4.83105 52.499 8.49805s22.834 9.83398 27.501 18.501v-1
c3.33301 6 5.83301 17.5 7.5 34.5s2.5 39.167 2.5 66.5v787h210v-804c0 -18 2 -33.667 6 -47s11.333 -24.5 22 -33.5s24.834 -15.667 42.501 -20s40.167 -6.5 67.5 -6.5h48v-247c-106.667 10 -187.334 42 -242.001 96l-2 2l-1 2l-6 8
c-30 -35.333 -64.167 -62.166 -102.5 -80.499s-79.833 -27.5 -124.5 -27.5h-152c-212 0 -327.667 81.333 -347 244h-1h492zM122.997 496.999v780h201v-780h-201z" />
    <glyph glyph-name="uniFEF9" unicode="&#xe80a;&#xe804;" horiz-adv-x="1086" arabic-form="isolated" 
d="M447 -186l-266.998 -139.003l-37 76l63 38c-15.333 13.333 -27.5 29 -36.5 47s-13.5 37 -13.5 57c0 18.667 3.66699 36.334 11 53.001s16.666 31.334 27.999 44.001c12 12.667 26.167 22.667 42.5 30s33.166 11 50.499 11c9.33301 0 21.5 -2.66699 36.5 -8
s33.5 -12.666 55.5 -21.999l-34 -74c-11.333 8 -22 14.333 -32 19s-19 7 -27 7c-32 0 -48 -21 -48 -63c0 -31.333 14.667 -47 44 -47c14.667 0 32.5 4.5 53.5 13.5s45.5 21.833 73.5 38.5zM910.002 414.997c0 -94.667 -25.666 -167 -76.999 -217
c-56 -52.667 -125.667 -79 -209 -79h-155c-233.333 0 -350 98.667 -350 296v862h208v-787c0 -25.333 2.16699 -47.5 6.5 -66.5s10.166 -33.167 17.499 -42.5l-1 4c6 -6.66699 19.333 -11.5 40 -14.5s47 -4.5 79 -4.5h145c46 0 75 11.333 87 34
c2 2.66699 3.33301 11.667 4 27s1 36.333 1 63v787h204v-862z" />
    <glyph glyph-name="uniFEFA" unicode="&#xe80e;&#xe805;" horiz-adv-x="1080" arabic-form="final" 
d="M426 -193l-266.001 -138l-39 77l65 37c-16 13.333 -28.333 28.666 -37 45.999s-13 37 -13 59c0 38 13 70 39 96c12 12.667 25.833 22.5 41.5 29.5s32.5 10.5 50.5 10.5c8.66699 0 20.667 -2.66699 36 -8s34 -12.666 56 -21.999l-35 -74
c-11.333 8 -21.666 14.333 -30.999 19s-18.333 7 -27 7c-31.333 0 -47 -20.667 -47 -62c0 -31.333 14.333 -47 43 -47c15.333 0 33.5 4.5 54.5 13.5s45.167 21.167 72.5 36.5zM616.999 363c21.333 2 38.832 4.83105 52.499 8.49805s22.834 9.83398 27.501 18.501v-1
c3.33301 6 5.83301 17.5 7.5 34.5s2.5 39.167 2.5 66.5v787h210v-804c0 -18 2 -33.667 6 -47s11.333 -24.5 22 -33.5s24.834 -15.667 42.501 -20s40.167 -6.5 67.5 -6.5h48v-247c-106.667 10 -187.334 42 -242.001 96l-2 2l-1 2l-6 8
c-30 -35.333 -64.167 -62.166 -102.5 -80.499s-79.833 -27.5 -124.5 -27.5h-152c-212 0 -327.667 81.333 -347 244h-1h492zM122.998 496.998v780h201v-780h-201z" />
    <glyph glyph-name="uniFEFB" unicode="&#xe80a;&#xe806;" horiz-adv-x="1086" arabic-form="isolated" 
d="M910 415c0 -94.667 -25.666 -167 -76.999 -217c-56 -52.667 -125.667 -79 -209 -79h-155c-233.333 0 -350 98.667 -350 296v862h208v-787c0 -25.333 2.16699 -47.5 6.5 -66.5s10.166 -33.167 17.499 -42.5l-1 4c6 -6.66699 19.333 -11.5 40 -14.5s47 -4.5 79 -4.5h145
c46 0 75 11.333 87 34c2 2.66699 3.33301 11.667 4 27s1 36.333 1 63v787h204v-862z" />
    <glyph glyph-name="uniFEFC" unicode="&#xe80e;&#xe807;" horiz-adv-x="1080" arabic-form="final" 
d="M617 363c21.333 2 38.832 4.83105 52.499 8.49805s22.834 9.83398 27.501 18.501v-1c3.33301 6 5.83301 17.5 7.5 34.5s2.5 39.167 2.5 66.5v787h210v-804c0 -18 2 -33.667 6 -47s11.333 -24.5 22 -33.5s24.834 -15.667 42.501 -20s40.167 -6.5 67.5 -6.5h48v-247
c-106.667 10 -187.334 42 -242.001 96l-2 2l-1 2l-6 8c-30 -35.333 -64.167 -62.166 -102.5 -80.499s-79.833 -27.5 -124.5 -27.5h-152c-212 0 -327.667 81.333 -347 244h-1h492zM122.999 496.998v780h201v-780h-201z" />
    <glyph glyph-name="uniFDFA" unicode="&#xfdfa;" horiz-adv-x="2415" arabic-form="isolated" 
 />
    <glyph glyph-name="uniFDF7" unicode="&#xfdf7;" horiz-adv-x="2650" arabic-form="isolated" 
 />
    <glyph glyph-name="afii57409" unicode="&#x621;" horiz-adv-x="625" arabic-form="isolated" 
d="M471 323l-200.5 -104.499l-200.5 -104.5l-41 76l-40 77l87 46c-25.333 36 -38 79 -38 129c0 32 4.5 60.667 13.5 86s22.167 47.666 39.5 66.999c18.667 19.333 40 34.666 64 45.999s48.667 17 74 17c34.667 0 78.667 -11.667 132 -35l-17 -78l-17 -76
c-16 6.66699 -30.333 11.834 -43 15.501s-22.667 5.5 -30 5.5c-22.667 0 -40.167 -3.5 -52.5 -10.5s-18.5 -17.167 -18.5 -30.5c0 -10 5 -17.833 15 -23.5s24 -8.5 42 -8.5c39.333 0 91.333 15.333 156 46z" />
    <glyph glyph-name="afii57410" unicode="&#x622;" horiz-adv-x="561" arabic-form="isolated" 
d="M404 119h-204v1158h204v-1158zM629 1376l-449.999 0.000976562c-29.333 0 -51.5 -2.33301 -66.5 -7s-28.5 -11.667 -40.5 -21h1c-7.33301 -6.66699 -16.5 -18.5 -27.5 -35.5s-22.833 -38.833 -35.5 -65.5l-176 71c24 50.667 45.667 91.667 65 123s37 53.666 53 66.999
c20.667 15.333 43.667 28 69 38s64.666 17.333 117.999 22h490v-192z" />
    <glyph glyph-name="afii57411" unicode="&#x623;" horiz-adv-x="461" arabic-form="isolated" 
d="M355 1468l-271.001 -132.997l-36 71l65 36c-16 13.333 -28.5 28.833 -37.5 46.5s-13.5 37.5 -13.5 59.5c0 19.333 3.33301 37.166 10 53.499s15.834 30.5 27.501 42.5s25.667 21.5 42 28.5s33.833 10.5 52.5 10.5c9.33301 0 21.833 -2.33301 37.5 -7
s35.5 -11.334 59.5 -20.001l-39 -73c-11.333 9.33301 -21.833 15.666 -31.5 18.999s-19.167 5 -28.5 5c-32 0 -48 -21 -48 -63c0 -30.667 15 -46 45 -46c32.667 0 74.667 17.333 126 52zM303.999 119.003h-204v1158h204v-1158z" />
    <glyph glyph-name="afii57412" unicode="&#x624;" horiz-adv-x="880" arabic-form="isolated" 
d="M384 1037l-327.001 -166.001l-38 84l83 46c-19.333 17.333 -35.833 37 -49.5 59s-20.5 43.667 -20.5 65c0 22 4.16699 43.5 12.5 64.5s19.833 39.5 34.5 55.5c14 14.667 30.667 26.167 50 34.5s40.666 12.5 63.999 12.5c9.33301 0 22.833 -2.33301 40.5 -7
s41.167 -12.667 70.5 -24l-46 -84c-25.333 19.333 -43.666 29 -54.999 29c-25.333 0 -44.666 -6.66699 -57.999 -20s-20 -33.666 -20 -60.999c0 -36 19.667 -54 59 -54c15.333 0 35.833 4.5 61.5 13.5s56.5 22.833 92.5 41.5zM492.999 500.999
c0 83.333 -37 125.001 -111 125.001c-49.333 0 -80 -10.667 -92 -32v4c-4 -12.667 -7.5 -28.834 -10.5 -48.501s-4.5 -43.167 -4.5 -70.5c0 -48.667 23.333 -81.667 70 -99c11.333 -4.66699 30 -8 56 -10s56.667 -3.33301 92 -4v135zM701.999 135
c0 -64 -11.166 -122.001 -33.499 -174.001s-55.5 -98.333 -99.5 -139c-46 -40.667 -94.833 -72.167 -146.5 -94.5s-105.834 -33.5 -162.501 -33.5h-234l-31 247h238c77.333 0 138 20 182 60c17.333 15.333 32.333 33.5 45 54.5s22 42.167 28 63.5
c-61.333 1.33301 -117 7.33301 -167 18s-91 25 -123 43c-44 28 -77.667 67.333 -101 118s-35 112.667 -35 186c0 157.333 35.333 266.333 106 327c46.667 40.667 119 61 217 61c68.667 0 125.667 -15.667 171 -47s80.333 -77.333 105 -138
c13.333 -36 23.5 -82.167 30.5 -138.5s10.5 -122.166 10.5 -197.499v-216z" />
    <glyph glyph-name="afii57413" unicode="&#x625;" horiz-adv-x="461" arabic-form="isolated" 
d="M383 -198l-268.003 -134.001l-40 68l67 41c-18 13.333 -31 28.5 -39 45.5s-12 37.167 -12 60.5c0 36.667 12.333 68.334 37 95.001c26.667 27.333 59.334 41 98.001 41c18.667 0 48.334 -10.333 89.001 -31l-33 -69c-18.667 11.333 -38.667 17 -60 17
c-32 0 -48 -19 -48 -57c0 -32 14.667 -48 44 -48c16.667 0 35.334 3.83301 56.001 11.5s43.667 20.167 69 37.5zM303.997 118.999h-204v1158h204v-1158z" />
    <glyph glyph-name="afii57414" unicode="&#x626;" horiz-adv-x="1247" arabic-form="isolated" 
d="M427 900l-324 -165.997l-39 86l84 46c-46 36 -69 77.667 -69 125c0 23.333 3.83301 44.666 11.5 63.999s18.834 37.666 33.501 54.999c29.333 31.333 67.333 47 114 47c20 0 57 -10.333 111 -31l-44 -84c-13.333 9.33301 -24.833 16.5 -34.5 21.5s-17.167 7.5 -22.5 7.5
c-24.667 0 -43.667 -6.83301 -57 -20.5s-20 -33.5 -20 -59.5c0 -18.667 5.16699 -32.667 15.5 -42s25.166 -14 44.499 -14c14 0 34 4.66699 60 14s57 23.666 93 42.999zM1097 167.003c0 -91.333 -15.3311 -170.335 -45.998 -237.002s-76 -120 -136 -160
c-37.333 -24.667 -77 -43.5 -119 -56.5s-85.667 -19.5 -131 -19.5h-259c-118.667 0 -219 47.667 -301 143c-78 88 -117 198 -117 330v387h198v-408c0 -57.333 25.333 -107.333 76 -150c45.333 -39.333 104.333 -59 177 -59h218c32 0 61.667 4.66699 89 14
s52.666 23.666 75.999 42.999c50.667 40.667 76 85.334 76 134.001c0 15.333 -8.33301 29 -25 41s-41 22.333 -73 31h1c-8 1.33301 -15.167 2.33301 -21.5 3s-12.166 1 -17.499 1h-255v328c0 100 30 180.333 90 241c63.333 65.333 139 98 227 98h225l5 -236h-224
c-53.333 0 -88.333 -19 -105 -57v1c-4 -10 -7.33301 -27 -10 -51s-4.66699 -53 -6 -87c55.333 -1.33301 105.166 -4.66602 149.499 -9.99902s78.166 -11.666 101.499 -18.999c44 -18 77.833 -47.667 101.5 -89s35.5 -93.333 35.5 -156z" />
    <glyph glyph-name="afii57415" unicode="&#x627;" horiz-adv-x="461" arabic-form="isolated" 
d="M304 119h-204v1158h204v-1158z" />
    <glyph glyph-name="afii57416" unicode="&#x628;" horiz-adv-x="1622" arabic-form="isolated" 
d="M1401 432c0 -83.333 -23.001 -154 -69.001 -212c-27.333 -32.667 -57.166 -57.667 -89.499 -75s-66.5 -26 -102.5 -26h-888c-36 0 -70.333 8.5 -103 25.5s-63 41.833 -91 74.5c-45.333 55.333 -68 126.333 -68 213v296h208v-271c0 -32.667 7.66699 -56 23 -70
s43 -21 83 -21h782c40 0 68.167 7 84.5 21s24.5 37.333 24.5 70v271h206v-296zM902.999 -183c0 -18 -3.5 -35 -10.5 -51s-16.5 -30.333 -28.5 -43c-26 -26 -57 -39 -93 -39c-96 0 -144 44.333 -144 133c0 76.667 46.667 115 140 115c90.667 0 136 -38.333 136 -115z" />
    <glyph glyph-name="afii57417" unicode="&#x629;" horiz-adv-x="853" arabic-form="isolated" 
d="M271 1223c0 -16.667 -3.33203 -31.833 -9.99902 -45.5s-15.667 -25.5 -27 -35.5s-24.333 -17.667 -39 -23s-30.334 -8 -47.001 -8c-88 0 -132 37.333 -132 112c0 71.333 39.667 107 119 107c90.667 0 136 -35.667 136 -107zM609.001 1223
c0 -16.667 -3.33301 -31.833 -10 -45.5s-15.5 -25.5 -26.5 -35.5s-23.833 -17.667 -38.5 -23s-30 -8 -46 -8c-90.667 0 -136 37.333 -136 112c0 71.333 41.333 107 124 107c88.667 0 133 -35.667 133 -107zM461.001 456.002c0 17.333 -6.66406 33.668 -19.9971 49.001
l-51.5 53.5l-49.5 52.5v1c-5.33301 5.33301 -9 9.16602 -11 11.499l-10 11.5c-88 -86 -132 -147.667 -132 -185c0 -12.667 3.66699 -25.667 11 -39s17.666 -26.333 30.999 -39c27.333 -22 62.333 -33 105 -33c19.333 0 36.666 2.66699 51.999 8s27.666 13 36.999 23
c25.333 27.333 38 56 38 86zM668.004 444.004c0 -49.333 -9.50098 -94.835 -28.501 -136.502s-44.5 -77.5 -76.5 -107.5c-36 -32.667 -74.333 -57.5 -115 -74.5s-83.667 -25.5 -129 -25.5c-94.667 0 -174.667 35.333 -240 106c-62 70 -93 156.667 -93 260
c0 50.667 14.667 104.667 44 162s71 115.333 125 174l-11 12.5c-3.33301 3.66699 -6.66602 6.83398 -9.99902 9.50098c-2 2 -4.5 4.66699 -7.5 8s-6 6.5 -9 9.5s-5.66699 5.83301 -8 8.5s-3.83301 4.33398 -4.5 5.00098l156 157l325 -333c54.667 -58.667 82 -137 82 -235z
" />
    <glyph glyph-name="afii57418" unicode="&#x62a;" horiz-adv-x="1622" arabic-form="isolated" 
d="M649 977c0 -15.333 -3.16504 -30.001 -9.49805 -44.001s-14.833 -26.167 -25.5 -36.5s-23.334 -18.666 -38.001 -24.999s-30.334 -9.5 -47.001 -9.5c-88.667 0 -133 38.333 -133 115c0 70.667 40 106 120 106c88.667 0 133 -35.333 133 -106zM986.002 976.999
c0 -32 -12 -59 -36 -81c-12 -10.667 -25.167 -19 -39.5 -25s-29.833 -9 -46.5 -9c-88 0 -132 38.333 -132 115c0 70.667 40.333 106 121 106c88.667 0 133 -35.333 133 -106zM1401 431.999c0 -83.333 -23.001 -154 -69.001 -212
c-27.333 -32.667 -57.166 -57.667 -89.499 -75s-66.5 -26 -102.5 -26h-888c-36 0 -70.333 8.5 -103 25.5s-63 41.833 -91 74.5c-45.333 55.333 -68 126.333 -68 213v296h208v-271c0 -32.667 7.66699 -56 23 -70s43 -21 83 -21h782c40 0 68.167 7 84.5 21
s24.5 37.333 24.5 70v271h206v-296z" />
    <glyph glyph-name="afii57419" unicode="&#x62b;" horiz-adv-x="1622" arabic-form="isolated" 
d="M661 916c0 -34 -12 -62 -36 -84c-24 -22.667 -52.333 -34 -85 -34c-35.333 0 -66.333 9.66699 -93 29c-28.667 22 -43 51.667 -43 89c0 70.667 41.333 106 124 106c88.667 0 133 -35.333 133 -106zM830 1163c0 -17.333 -3.33203 -32.832 -9.99902 -46.499
s-16.334 -26.167 -29.001 -37.5c-12 -10 -25.333 -18 -40 -24s-30 -9 -46 -9c-17.333 0 -34 2.66699 -50 8s-30 12.666 -42 21.999c-27.333 21.333 -41 50.333 -41 87c0 71.333 40.333 107 121 107c91.333 0 137 -35.667 137 -107zM999.001 916.001
c0 -16 -3.16699 -31.333 -9.5 -46s-15.166 -27.667 -26.499 -39c-12 -10 -25.333 -18 -40 -24s-30.334 -9 -47.001 -9c-34 0 -64.333 9.66699 -91 29c-28.667 22 -43 51.667 -43 89c0 70.667 40.667 106 122 106c90 0 135 -35.333 135 -106zM1401 432.001
c0 -83.333 -23.001 -154 -69.001 -212c-27.333 -32.667 -57.166 -57.667 -89.499 -75s-66.5 -26 -102.5 -26h-888c-36 0 -70.333 8.5 -103 25.5s-63 41.833 -91 74.5c-45.333 55.333 -68 126.333 -68 213v296h208v-271c0 -32.667 7.66699 -56 23 -70s43 -21 83 -21h782
c40 0 68.167 7 84.5 21s24.5 37.333 24.5 70v271h206v-296z" />
    <glyph glyph-name="afii57420" unicode="&#x62c;" horiz-adv-x="1133" arabic-form="isolated" 
d="M775 -162c0 -37.333 -13.335 -69.333 -40.002 -96c-25.333 -26 -57.666 -39 -96.999 -39c-19.333 0 -36.833 3 -52.5 9s-30.5 14.667 -44.5 26c-13.333 11.333 -24.166 25.333 -32.499 42s-12.5 34.667 -12.5 54c0 80 45.333 120 136 120c95.333 0 143 -38.667 143 -116z
M1069 -690h-483.001c-76.667 0 -149.667 13.5 -219 40.5s-130.5 64.833 -183.5 113.5s-95.167 107 -126.5 175s-47 142.667 -47 224v47l2 10c0.666992 3.33301 1.16699 6.5 1.5 9.5s0.833008 6.16699 1.5 9.5v-9c0 0.666992 0.166992 1.16699 0.5 1.5s0.5 0.833008 0.5 1.5
v7c12.667 84 40.5 159 83.5 225s99.5 119 169.5 159l69.5 39l69.5 38v-1l87.5 47.5l82 44.5l81.5 44.5l86 47.5c-49.333 34 -140.666 51 -273.999 51h-53c-34 -2.66699 -66.333 -3.83398 -97 -3.50098s-59.667 -0.166992 -87 -1.5l-48 2c7.33301 15.333 12.5 30.5 15.5 45.5
s4.5 29.5 4.5 43.5c0 16 -1.16699 31.167 -3.5 45.5s-5 27.833 -8 40.5l-8.5 35c-2.66699 10.667 -4 20.334 -4 29.001h436c121.333 0 213 -34.333 275 -103s93.667 -172.667 95 -312l-563 -316c-67.333 -40 -119.833 -83.833 -157.5 -131.5s-56.5 -97.167 -56.5 -148.5
c0 -34.667 8.5 -70.167 25.5 -106.5s40.333 -69.5 70 -99.5s64.667 -54.667 105 -74s83.5 -29 129.5 -29h509z" />
    <glyph glyph-name="afii57421" unicode="&#x62d;" horiz-adv-x="1133" arabic-form="isolated" 
d="M1069 -690h-483.001c-76.667 0 -149.667 13.5 -219 40.5s-130.5 64.833 -183.5 113.5s-95.167 107 -126.5 175s-47 142.667 -47 224v47l2 10c0.666992 3.33301 1.16699 6.5 1.5 9.5s0.833008 6.16699 1.5 9.5v-9c0 0.666992 0.166992 1.16699 0.5 1.5
s0.5 0.833008 0.5 1.5v7c12.667 84 40.5 159 83.5 225s99.5 119 169.5 159l69.5 39l69.5 38v-1l87.5 47.5l82 44.5l81.5 44.5l86 47.5c-49.333 34 -140.666 51 -273.999 51h-53c-34 -2.66699 -66.333 -3.83398 -97 -3.50098s-59.667 -0.166992 -87 -1.5l-48 2
c7.33301 15.333 12.5 30.5 15.5 45.5s4.5 29.5 4.5 43.5c0 16 -1.16699 31.167 -3.5 45.5s-5 27.833 -8 40.5l-8.5 35c-2.66699 10.667 -4 20.334 -4 29.001h436c121.333 0 213 -34.333 275 -103s93.667 -172.667 95 -312l-563 -316
c-67.333 -40 -119.833 -83.833 -157.5 -131.5s-56.5 -97.167 -56.5 -148.5c0 -34.667 8.5 -70.167 25.5 -106.5s40.333 -69.5 70 -99.5s64.667 -54.667 105 -74s83.5 -29 129.5 -29h509z" />
    <glyph glyph-name="afii57422" unicode="&#x62e;" horiz-adv-x="1133" arabic-form="isolated" 
d="M719 1154c0 -38.667 -13.666 -70.667 -40.999 -96c-28.667 -26 -59.334 -39 -92.001 -39c-100 0 -150 45 -150 135c0 75.333 47.333 113 142 113c94 0 141 -37.667 141 -113zM1069 -690h-483.001c-76.667 0 -149.667 13.5 -219 40.5s-130.5 64.833 -183.5 113.5
s-95.167 107 -126.5 175s-47 142.667 -47 224v47l2 10c0.666992 3.33301 1.16699 6.5 1.5 9.5s0.833008 6.16699 1.5 9.5v-9c0 0.666992 0.166992 1.16699 0.5 1.5s0.5 0.833008 0.5 1.5v7c12.667 84 40.5 159 83.5 225s99.5 119 169.5 159l69.5 39l69.5 38v-1l87.5 47.5
l82 44.5l81.5 44.5l86 47.5c-49.333 34 -140.666 51 -273.999 51h-53c-34 -2.66699 -66.333 -3.83398 -97 -3.50098s-59.667 -0.166992 -87 -1.5l-48 2c7.33301 15.333 12.5 30.5 15.5 45.5s4.5 29.5 4.5 43.5c0 16 -1.16699 31.167 -3.5 45.5s-5 27.833 -8 40.5l-8.5 35
c-2.66699 10.667 -4 20.334 -4 29.001h436c121.333 0 213 -34.333 275 -103s93.667 -172.667 95 -312l-563 -316c-67.333 -40 -119.833 -83.833 -157.5 -131.5s-56.5 -97.167 -56.5 -148.5c0 -34.667 8.5 -70.167 25.5 -106.5s40.333 -69.5 70 -99.5s64.667 -54.667 105 -74
s83.5 -29 129.5 -29h509z" />
    <glyph glyph-name="afii57423" unicode="&#x62f;" horiz-adv-x="1014" arabic-form="isolated" 
d="M837 378c0 -85.333 -26.998 -149.667 -80.998 -193c-54.667 -44 -116.334 -66 -185.001 -66h-537l-37 247h560c48.667 0 73 9.33301 73 28c0 7.33301 -6.33301 18.333 -19 33v-1l-54.5 59l-55.5 59l-40 43l-40 42v-1l-52 55.5l-57 59.5l-57 59l-51 53l157 157l392 -414
c27.333 -29.333 48.166 -62.333 62.499 -99s21.5 -77 21.5 -121z" />
    <glyph glyph-name="afii57424" unicode="&#x630;" horiz-adv-x="1015" arabic-form="isolated" 
d="M505 1274c0 -39.333 -13.333 -71 -40 -95c-26.667 -25.333 -58 -38 -94 -38c-96 0 -144 44.333 -144 133c0 76.667 46 115 138 115c93.333 0 140 -38.333 140 -115zM837 378c0 -85.333 -26.998 -149.667 -80.998 -193c-54.667 -44 -116.334 -66 -185.001 -66h-537
l-37 247h560c48.667 0 73 9.33301 73 28c0 7.33301 -6.33301 18.333 -19 33v-1l-54.5 59l-55.5 59l-40 43l-40 42v-1l-52 55.5l-57 59.5l-57 59l-51 53l157 157l392 -414c27.333 -29.333 48.166 -62.333 62.499 -99s21.5 -77 21.5 -121z" />
    <glyph glyph-name="afii57425" unicode="&#x631;" horiz-adv-x="717" arabic-form="isolated" 
d="M542 187c0 -138.667 -40.668 -254 -122.001 -346c-88 -98 -195 -147 -321 -147h-240l-38 251h217c39.333 0 75.833 4.5 109.5 13.5s63.167 21.833 88.5 38.5c28.667 20.667 51.334 43.667 68.001 69s25 52 25 80v582h213v-541z" />
    <glyph glyph-name="afii57426" unicode="&#x632;" horiz-adv-x="717" arabic-form="isolated" 
d="M538 1163c0 -19.333 -3.33203 -37.166 -9.99902 -53.499s-15.834 -30.333 -27.501 -42s-25.5 -20.667 -41.5 -27s-33.333 -9.5 -52 -9.5c-49.333 0 -86 10.667 -110 32s-36 54.666 -36 99.999c0 76.667 46.333 115 139 115c92 0 138 -38.333 138 -115zM542.001 187
c0 -138.667 -40.668 -254 -122.001 -346c-88 -98 -195 -147 -321 -147h-240l-38 251h217c39.333 0 75.833 4.5 109.5 13.5s63.167 21.833 88.5 38.5c28.667 20.667 51.334 43.667 68.001 69s25 52 25 80v582h213v-541z" />
    <glyph glyph-name="afii57427" unicode="&#x633;" horiz-adv-x="2230" arabic-form="isolated" 
d="M2019 427c0 -44 -5.33203 -84.3311 -15.999 -120.998s-24.667 -68 -42 -94c-24.667 -35.333 -53.334 -62.5 -86.001 -81.5s-68.667 -28.5 -108 -28.5c-36 0 -73.667 9.66699 -113 29s-79 47 -119 83c-60.667 -74.667 -127 -112 -199 -112c-28 0 -55.833 4.33301 -83.5 13
s-57.5 22.667 -89.5 42c-5.33301 -60 -17 -116.333 -35 -169s-42 -98.334 -72 -137.001c-42 -50 -90.833 -88.667 -146.5 -116s-116.167 -41 -181.5 -41h-256c-122.667 0 -227.667 46.667 -315 140c-80.667 86.667 -121 199 -121 337v387h202v-396
c0 -63.333 24.667 -116.666 74 -159.999c42.667 -40.667 102.334 -61 179.001 -61h219c78 0 137 20.333 177 61c44 43.333 66 96.666 66 159.999v566h208v-289c0 -10.667 3.66699 -22 11 -34s16.666 -23.667 27.999 -35v1c23.333 -20 54 -30 92 -30c30 0 53 5.66699 69 17
s24 27.666 24 48.999v321h205v-287c0 -22.667 12 -46.667 36 -72v1c10.667 -10 23.667 -17.333 39 -22s32.333 -7 51 -7c65.333 0 98 22 98 66v321h205v-301z" />
    <glyph glyph-name="afii57428" unicode="&#x634;" horiz-adv-x="2230" arabic-form="isolated" 
d="M1790 916c0 -34.667 -11.499 -63 -34.499 -85s-52.167 -33 -87.5 -33c-34.667 0 -65.334 9.66699 -92.001 29c-25.333 22 -38 51.667 -38 89c0 70.667 39.333 106 118 106c89.333 0 134 -35.333 134 -106zM1454 916c0 -32 -12 -60 -36 -84
c-12.667 -10.667 -26 -19 -40 -25s-29.667 -9 -47 -9s-33.5 2.5 -48.5 7.5s-28.5 12.167 -40.5 21.5c-28.667 22 -43 51.667 -43 89c0 70.667 40.667 106 122 106c88.667 0 133 -35.333 133 -106zM1620 1163c0 -16.667 -3.33301 -32.167 -10 -46.5
s-15.5 -26.666 -26.5 -36.999s-24 -18.5 -39 -24.5s-30.833 -9 -47.5 -9c-18 0 -34.667 2.66699 -50 8s-29 12.666 -41 21.999c-27.333 21.333 -41 50.333 -41 87c0 71.333 41 107 123 107c88 0 132 -35.667 132 -107zM2019 427c0 -44 -5.33203 -84.3311 -15.999 -120.998
s-24.667 -68 -42 -94c-24.667 -35.333 -53.334 -62.5 -86.001 -81.5s-68.667 -28.5 -108 -28.5c-36 0 -73.667 9.66699 -113 29s-79 47 -119 83c-60.667 -74.667 -127 -112 -199 -112c-28 0 -55.833 4.33301 -83.5 13s-57.5 22.667 -89.5 42
c-5.33301 -60 -17 -116.333 -35 -169s-42 -98.334 -72 -137.001c-42 -50 -90.833 -88.667 -146.5 -116s-116.167 -41 -181.5 -41h-256c-122.667 0 -227.667 46.667 -315 140c-80.667 86.667 -121 199 -121 337v387h202v-396c0 -63.333 24.667 -116.666 74 -159.999
c42.667 -40.667 102.334 -61 179.001 -61h219c78 0 137 20.333 177 61c44 43.333 66 96.666 66 159.999v566h208v-289c0 -10.667 3.66699 -22 11 -34s16.666 -23.667 27.999 -35v1c23.333 -20 54 -30 92 -30c30 0 53 5.66699 69 17s24 27.666 24 48.999v321h205v-287
c0 -22.667 12 -46.667 36 -72v1c10.667 -10 23.667 -17.333 39 -22s32.333 -7 51 -7c65.333 0 98 22 98 66v321h205v-301z" />
    <glyph glyph-name="afii57429" unicode="&#x635;" horiz-adv-x="2312" arabic-form="isolated" 
d="M1901 482c0 24 -9.66797 56 -29.001 96c-15.333 32 -33.666 48 -54.999 48c-26 0 -54.167 -9.83301 -84.5 -29.5s-61.833 -48.5 -94.5 -86.5v1c-20 -24.667 -39 -49.5 -57 -74.5s-33.667 -48.5 -47 -70.5h275c61.333 0 92 38.667 92 116zM2102 457
c0 -107.333 -29.001 -189.671 -87.001 -247.004c-60.667 -60.667 -137.667 -91 -231 -91h-458c-36 0 -66.833 4.16699 -92.5 12.5s-47.167 22.166 -64.5 41.499c-5.33301 -59.333 -16.666 -113.5 -33.999 -162.5s-41.333 -94.833 -72 -137.5
c-88 -119.333 -198.667 -179 -332 -179h-257c-62.667 0 -119.834 12.333 -171.501 37s-99.5 61.667 -143.5 111c-80.667 96 -121 211 -121 345v371h208v-412c0 -46.667 26.667 -92.334 80 -137.001c23.333 -22 48.5 -38.167 75.5 -48.5s55.167 -15.5 84.5 -15.5h235
c30.667 0 60 5.16699 88 15.5s53 25.166 75 44.499c23.333 22 41.833 45.333 55.5 70s20.5 48.334 20.5 71.001v582h216v-289c0 -44.667 42.333 -69 127 -73c25.333 60.667 52.666 117.834 81.999 171.501s58 99.834 86 138.501c52 64.667 103.833 113.334 155.5 146.001
s104.167 49 157.5 49c95.333 0 173 -46 233 -138c0.666992 -1.33301 1.83398 -3.16602 3.50098 -5.49902s2.83398 -4.16602 3.50098 -5.49902l-1 3l15 -23.5c5.33301 -8.33301 10.666 -17.5 15.999 -27.5c2.66699 -11.333 6.83398 -26.666 12.5 -45.999
c5.66699 -19.333 11.834 -39 18.501 -59v1c6 -14 10.333 -30.5 13 -49.5s4 -40.167 4 -63.5z" />
    <glyph glyph-name="afii57430" unicode="&#x636;" horiz-adv-x="2312" arabic-form="isolated" 
d="M1799 1161c0 -18.667 -3.5 -36 -10.5 -52s-16.5 -29.667 -28.5 -41s-26.167 -20.333 -42.5 -27s-33.833 -10 -52.5 -10c-94.667 0 -142 43.333 -142 130c0 76.667 46.333 115 139 115c91.333 0 137 -38.333 137 -115zM1901 482c0 24 -9.66797 56 -29.001 96
c-15.333 32 -33.666 48 -54.999 48c-26 0 -54.167 -9.83301 -84.5 -29.5s-61.833 -48.5 -94.5 -86.5v1c-20 -24.667 -39 -49.5 -57 -74.5s-33.667 -48.5 -47 -70.5h275c61.333 0 92 38.667 92 116zM2102 457c0 -107.333 -29.001 -189.671 -87.001 -247.004
c-60.667 -60.667 -137.667 -91 -231 -91h-458c-36 0 -66.833 4.16699 -92.5 12.5s-47.167 22.166 -64.5 41.499c-5.33301 -59.333 -16.666 -113.5 -33.999 -162.5s-41.333 -94.833 -72 -137.5c-88 -119.333 -198.667 -179 -332 -179h-257
c-62.667 0 -119.834 12.333 -171.501 37s-99.5 61.667 -143.5 111c-80.667 96 -121 211 -121 345v371h208v-412c0 -46.667 26.667 -92.334 80 -137.001c23.333 -22 48.5 -38.167 75.5 -48.5s55.167 -15.5 84.5 -15.5h235c30.667 0 60 5.16699 88 15.5s53 25.166 75 44.499
c23.333 22 41.833 45.333 55.5 70s20.5 48.334 20.5 71.001v582h216v-289c0 -44.667 42.333 -69 127 -73c25.333 60.667 52.666 117.834 81.999 171.501s58 99.834 86 138.501c52 64.667 103.833 113.334 155.5 146.001s104.167 49 157.5 49c95.333 0 173 -46 233 -138
c0.666992 -1.33301 1.83398 -3.16602 3.50098 -5.49902s2.83398 -4.16602 3.50098 -5.49902l-1 3l15 -23.5c5.33301 -8.33301 10.666 -17.5 15.999 -27.5c2.66699 -11.333 6.83398 -26.666 12.5 -45.999c5.66699 -19.333 11.834 -39 18.501 -59v1
c6 -14 10.333 -30.5 13 -49.5s4 -40.167 4 -63.5z" />
    <glyph glyph-name="afii57431" unicode="&#x637;" horiz-adv-x="1112" arabic-form="isolated" 
d="M720 503c0 79.333 -26.667 119 -80 119c-26.667 0 -55 -10 -85 -30s-60.667 -48.333 -92 -85v1c-17.333 -21.333 -34.5 -44.5 -51.5 -69.5s-32.167 -49.167 -45.5 -72.5h277c22.667 0 42 12.333 58 37c7.33301 9.33301 12.333 22.5 15 39.5s4 37.167 4 60.5zM933 459
c0 -99.333 -25.667 -177.669 -77 -235.002v1c-28 -34.667 -60 -61 -96 -79s-75 -27 -117 -27h-596l-49 247h148v911h205v-574c24 24.667 48.167 47.334 72.5 68.001s48 38.334 71 53.001s45.167 26.167 66.5 34.5s41 12.5 59 12.5c43.333 0 85 -12.833 125 -38.5
s75.333 -59.5 106 -101.5c26 -38.667 46.167 -81.167 60.5 -127.5s21.5 -94.5 21.5 -144.5z" />
    <glyph glyph-name="afii57432" unicode="&#x638;" horiz-adv-x="1110" arabic-form="isolated" 
d="M794 1163c0 -19.333 -3.33398 -37.166 -10.001 -53.499s-16 -30.333 -28 -42s-26.167 -20.667 -42.5 -27s-34.166 -9.5 -53.499 -9.5c-48 0 -84 10.667 -108 32s-36 54.666 -36 99.999c0 76.667 46.333 115 139 115s139 -38.333 139 -115zM719.999 503
c0 79.333 -26.667 119 -80 119c-26.667 0 -55 -10 -85 -30s-60.667 -48.333 -92 -85v1c-17.333 -21.333 -34.5 -44.5 -51.5 -69.5s-32.167 -49.167 -45.5 -72.5h277c22.667 0 42 12.333 58 37c7.33301 9.33301 12.333 22.5 15 39.5s4 37.167 4 60.5zM932.999 459
c0 -99.333 -25.667 -177.669 -77 -235.002v1c-28 -34.667 -60 -61 -96 -79s-75 -27 -117 -27h-596l-49 247h148v911h205v-574c24 24.667 48.167 47.334 72.5 68.001s48 38.334 71 53.001s45.167 26.167 66.5 34.5s41 12.5 59 12.5c43.333 0 85 -12.833 125 -38.5
s75.333 -59.5 106 -101.5c26 -38.667 46.167 -81.167 60.5 -127.5s21.5 -94.5 21.5 -144.5z" />
    <glyph glyph-name="afii57433" unicode="&#x639;" horiz-adv-x="1162" arabic-form="isolated" 
d="M1045 -690l-465.002 -0.00195312c-78.667 0 -151.834 12.167 -219.501 36.5s-129.167 61.166 -184.5 110.499c-111.333 103.333 -167 238.666 -167 405.999c0 112 28.5 209.667 85.5 293s140.167 152 249.5 206c-11.333 28 -20.166 57.167 -26.499 87.5
s-9.5 60.833 -9.5 91.5c0 112 35.333 195.333 106 250v-1c33.333 28 70.333 48.5 111 61.5s85 19.5 133 19.5c86.667 0 192 -51 316 -153l-115 -186c-97.333 68.667 -175.333 103 -234 103c-25.333 0 -46.333 -6 -63 -18s-28 -28 -34 -48
c0 -3.33301 -0.5 -6.66602 -1.5 -9.99902s-2.16699 -5.66602 -3.5 -6.99902c-0.666992 0 -1 0.333008 -1 1s0.333008 1.66699 1 3v2c-2.66699 -7.33301 -5 -14.333 -7 -21v-22c0 -15.333 3 -31.666 9 -48.999s13.667 -34.666 23 -51.999v1c20 -32.667 48.333 -49 85 -49h350
l37 -247h-586c-36 0 -67.167 -6.5 -93.5 -19.5s-48.166 -31.833 -65.499 -56.5c-36.667 -54 -55 -115 -55 -183c0 -86 29 -160 87 -222c56.667 -58 134.334 -87 233.001 -87h476z" />
    <glyph glyph-name="afii57434" unicode="&#x63a;" horiz-adv-x="1161" arabic-form="isolated" 
d="M820 1159c0 -40 -13 -72 -39 -96c-25.333 -25.333 -57 -38 -95 -38c-94.667 0 -142 44.667 -142 134c0 76.667 46 115 138 115s138 -38.333 138 -115zM1045 -690l-465.002 -0.00195312c-78.667 0 -151.834 12.167 -219.501 36.5s-129.167 61.166 -184.5 110.499
c-111.333 103.333 -167 238.666 -167 405.999c0 112 28.5 209.667 85.5 293s140.167 152 249.5 206c-11.333 28 -20.166 57.167 -26.499 87.5s-9.5 60.833 -9.5 91.5c0 112 35.333 195.333 106 250v-1c33.333 28 70.333 48.5 111 61.5s85 19.5 133 19.5
c86.667 0 192 -51 316 -153l-115 -186c-97.333 68.667 -175.333 103 -234 103c-25.333 0 -46.333 -6 -63 -18s-28 -28 -34 -48c0 -3.33301 -0.5 -6.66602 -1.5 -9.99902s-2.16699 -5.66602 -3.5 -6.99902c-0.666992 0 -1 0.333008 -1 1s0.333008 1.66699 1 3v2
c-2.66699 -7.33301 -5 -14.333 -7 -21v-22c0 -15.333 3 -31.666 9 -48.999s13.667 -34.666 23 -51.999v1c20 -32.667 48.333 -49 85 -49h350l37 -247h-586c-36 0 -67.167 -6.5 -93.5 -19.5s-48.166 -31.833 -65.499 -56.5c-36.667 -54 -55 -115 -55 -183
c0 -86 29 -160 87 -222c56.667 -58 134.334 -87 233.001 -87h476z" />
    <glyph glyph-name="afii57441" unicode="&#x641;" horiz-adv-x="1627" arabic-form="isolated" 
d="M955 694c0 -15.333 9.16699 -26.332 27.5 -32.999s45.5 -10.334 81.5 -11.001h137c-6.66699 25.333 -18.667 49 -36 71c-22 30 -57.667 45 -107 45c-68.667 0 -103 -24 -103 -72zM1406 454.001c0 -46.667 -5.99902 -88.9971 -17.999 -126.997s-29.667 -71.667 -53 -101
c-56 -71.333 -125.333 -107 -208 -107h-876c-36.667 0 -71.5 8.66699 -104.5 26s-62.5 42 -88.5 74c-21.333 26 -38 57.167 -50 93.5s-18 76.166 -18 119.499v296h211v-271c0 -33.333 7.33301 -56.833 22 -70.5s41.667 -20.5 81 -20.5h803c48 0 74.667 3.33301 80 10l-1 -5
c1.33301 3.33301 3.16602 8.83301 5.49902 16.5s4.83301 16.834 7.5 27.501c-31.333 0.666992 -61.5 1.5 -90.5 2.5s-55.667 2.5 -80 4.5s-45.666 4.33301 -63.999 7s-32.5 5.66699 -42.5 9c-50 17.333 -87.167 48.666 -111.5 93.999s-36.5 104.333 -36.5 177
c0 49.333 7.16699 92.666 21.5 129.999s37.166 69.666 68.499 96.999c62 48.667 134.333 73 217 73c92.667 0 170.334 -35 233.001 -105c28 -30.667 49.5 -67.667 64.5 -111s23.167 -90 24.5 -140c1.33301 -40 2.16602 -78.333 2.49902 -115s0.5 -64.667 0.5 -84zM1232 1216
c0 -38 -13.999 -69.667 -41.999 -95c-26.667 -24.667 -58.334 -37 -95.001 -37c-93.333 0 -140 44 -140 132c0 76.667 45.333 115 136 115c94 0 141 -38.333 141 -115z" />
    <glyph glyph-name="afii57442" unicode="&#x642;" horiz-adv-x="1319" arabic-form="isolated" 
d="M801 348l60.002 -0.00195312c14.667 0 28.667 0.666992 42 2c-6 24.667 -17 49.334 -33 74.001v-2c-22.667 28 -58.334 42 -107.001 42c-66.667 0 -100 -18.667 -100 -56c0 -19.333 11.667 -34.166 35 -44.499s57.666 -15.5 102.999 -15.5zM1112 190.998
c0 -15.333 -0.831055 -34.667 -2.49805 -58s-4.5 -50 -8.5 -80c-3.33301 -24.667 -9.33301 -50.167 -18 -76.5s-19.167 -52 -31.5 -77s-26.333 -48.5 -42 -70.5s-32.5 -40.667 -50.5 -56c-41.333 -33.333 -86.333 -59 -135 -77s-99.334 -27 -152.001 -27h-254
c-128.667 0 -233.334 48.333 -314.001 145l1 -1c-78 86.667 -117 200 -117 340v377h200v-386c0 -61.333 22 -118 66 -170l-1 1c42 -46 100.333 -69 175 -69h235c78 0 137.333 25 178 75c33.333 40.667 55 86.334 65 137.001c-64.667 0.666992 -122 3.5 -172 8.5
s-86.667 11.167 -110 18.5c-46 18.667 -82.667 50.5 -110 95.5s-41 100.833 -41 167.5c0 48 8 91 24 129s38.333 70 67 96c30 25.333 63 44.666 99 57.999s75 20 117 20c46.667 0 90.5 -9.83301 131.5 -29.5s77.5 -46.5 109.5 -80.5c30 -32 52.667 -70.167 68 -114.5
s23 -93.5 23 -147.5v-148zM732.004 868.997c0 -18 -3.33203 -34.167 -9.99902 -48.5s-15.5 -26.5 -26.5 -36.5s-23.833 -17.667 -38.5 -23s-30.334 -8 -47.001 -8c-87.333 0 -131 38.667 -131 116c0 72.667 40.667 109 122 109c87.333 0 131 -36.333 131 -109zM1071 868.997
c0 -36 -11.5 -64.333 -34.5 -85s-51.833 -31 -86.5 -31c-90.667 0 -136 38.667 -136 116c0 72.667 42 109 126 109c87.333 0 131 -36.333 131 -109z" />
    <glyph glyph-name="afii57443" unicode="&#x643;" horiz-adv-x="1471" arabic-form="isolated" 
d="M1257 415c0 -46.667 -6.66504 -88.334 -19.998 -125.001s-32.5 -67.667 -57.5 -93s-55.167 -44.666 -90.5 -57.999s-75 -20 -119 -20h-719c-36 0 -69.833 7.83301 -101.5 23.5s-59.334 37.334 -83.001 65.001s-42.5 60.667 -56.5 99s-21 80.166 -21 125.499v296h208v-271
c0 -32.667 7.66699 -56 23 -70s42.666 -21 81.999 -21h654c25.333 2 45.333 4.83301 60 8.5s23.667 9.16699 27 16.5c6.66699 8.66699 10 41.667 10 99v787h204v-862zM575.002 668l73.5 8.99609c16.333 2 26.833 3.66699 31.5 5c-4.66699 -0.666992 -13.334 0 -26.001 2
c-1.33301 0 -4.66602 0.666992 -9.99902 2c-10.667 1.33301 -21.834 3 -33.501 5s-22.5 4.5 -32.5 7.5s-18.167 6.66699 -24.5 11s-9.5 9.83301 -9.5 16.5c0 20.667 5 39.834 15 57.501s23.667 34.167 41 49.5s37.833 29.5 61.5 42.5s49.167 24.833 76.5 35.5l20 -79
c-11.333 -4.66699 -20.333 -8 -27 -10s-13 -4 -19 -6c-3.33301 -1.33301 -6.66602 -2.16602 -9.99902 -2.49902s-6.66602 -1.16602 -9.99902 -2.49902h1c-1.33301 -0.666992 -2.83301 -1.33398 -4.5 -2.00098s-2.83398 -1.33398 -3.50098 -2.00098
c-8 -2.66699 -15 -4.66699 -21 -6s-9.33301 -0.666016 -10 2.00098c0.666992 -5.33301 7.16699 -9.83301 19.5 -13.5s28.5 -7.16699 48.5 -10.5c28 -3.33301 49.667 -9.66602 65 -18.999s23 -21.333 23 -36c0 -10.667 -5 -23 -15 -37s-23.5 -27.167 -40.5 -39.5
s-37 -22.666 -60 -30.999s-47.833 -12.5 -74.5 -12.5c-22 0 -45.333 2.83301 -70 8.5s-53.334 13.5 -86.001 23.5l2 19c8.66699 1.33301 17.834 2.33301 27.501 3s18.5 1.66699 26.5 3l15.5 2l14.5 2c4.66699 0.666992 9 1.16699 13 1.5s8 0.833008 12 1.5z" />
    <glyph glyph-name="afii57444" unicode="&#x644;" horiz-adv-x="1329" arabic-form="isolated" 
d="M1145 181c0 -142 -38.668 -257.665 -116.001 -346.998c-88 -93.333 -196 -140 -324 -140h-258c-112 0 -214.333 48.333 -307 145c-85.333 91.333 -128 200.666 -128 327.999v391h207v-412c0 -50 27.667 -97 83 -141c46.667 -40 104.334 -60 173.001 -60h220
c32 0 62 4.83301 90 14.5s53 24.5 75 44.5c51.333 45.333 77 92.666 77 141.999v1131h208v-1096z" />
    <glyph glyph-name="afii57445" unicode="&#x645;" horiz-adv-x="1172" arabic-form="isolated" 
d="M789 471c0 76.667 -6.66895 120.668 -20.002 132.001c-7.33301 6 -27.166 11.167 -59.499 15.5s-80.166 8.16602 -143.499 11.499v-198c0 -12.667 13.667 -29 41 -49c18.667 -14.667 43.667 -22 75 -22c71.333 0 107 36.667 107 110zM991.998 434.001
c0 -50 -7.66895 -94.168 -23.002 -132.501s-38 -71.5 -68 -99.5c-30.667 -28 -65.667 -49.833 -105 -65.5s-81 -23.5 -125 -23.5c-43.333 0 -83.5 8.83301 -120.5 26.5s-71.5 43.5 -103.5 77.5c-28 30 -49.5 65.667 -64.5 107s-22.5 87.333 -22.5 138v169
c-0.666992 0.666992 -1.66699 1 -3 1h-9c-20 0 -38.167 -3.5 -54.5 -10.5s-30.166 -16.833 -41.499 -29.5v1c-13.333 -16 -23.5 -32 -30.5 -48s-10.5 -30.667 -10.5 -44v-807h-203v785c0 62.667 7.33301 116.834 22 162.501s37 84.5 67 116.5h-1
c64.667 75.333 153 113 265 113h342c116.667 0 199 -48.333 247 -145c14.667 -30 25.334 -69.167 32.001 -117.5s10 -106.5 10 -174.5z" />
    <glyph glyph-name="afii57446" unicode="&#x646;" horiz-adv-x="1320" arabic-form="isolated" 
d="M656 728c0 -39.333 -13 -71 -39 -95c-26 -24.667 -57.333 -37 -94 -37c-94 0 -141 44 -141 132c0 75.333 45 113 135 113c92.667 0 139 -37.667 139 -113zM1113 187c0 -148.667 -37.999 -266 -113.999 -352c-84.667 -94 -193.667 -141 -327 -141h-260
c-58.667 0 -112.834 11.833 -162.501 35.5s-96.5 59.5 -140.5 107.5c-80.667 90 -121 200 -121 330v391h205v-412c0 -26 6.83301 -51.5 20.5 -76.5s33.167 -48.5 58.5 -70.5l-1 1c22.667 -19.333 49 -34 79 -44s62 -15 96 -15h216c34 0 65.333 5.33301 94 16
s54.667 25.667 78 45v-1c22 20.667 39.333 43.5 52 68.5s19 50.5 19 76.5v582h208v-541z" />
    <glyph glyph-name="afii57470" unicode="&#x647;" horiz-adv-x="853" arabic-form="isolated" 
d="M461 456c0 17.333 -6.66406 33.668 -19.9971 49.001l-51.5 53.5l-49.5 52.5v1c-5.33301 5.33301 -9 9.16602 -11 11.499l-10 11.5c-88 -86 -132 -147.667 -132 -185c0 -12.667 3.66699 -25.667 11 -39s17.666 -26.333 30.999 -39c27.333 -22 62.333 -33 105 -33
c19.333 0 36.666 2.66699 51.999 8s27.666 13 36.999 23c25.333 27.333 38 56 38 86zM668.003 444.002c0 -49.333 -9.50098 -94.835 -28.501 -136.502s-44.5 -77.5 -76.5 -107.5c-36 -32.667 -74.333 -57.5 -115 -74.5s-83.667 -25.5 -129 -25.5
c-94.667 0 -174.667 35.333 -240 106c-62 70 -93 156.667 -93 260c0 50.667 14.667 104.667 44 162s71 115.333 125 174l-11 12.5c-3.33301 3.66699 -6.66602 6.83398 -9.99902 9.50098c-2 2 -4.5 4.66699 -7.5 8s-6 6.5 -9 9.5s-5.66699 5.83301 -8 8.5
s-3.83301 4.33398 -4.5 5.00098l156 157l325 -333c54.667 -58.667 82 -137 82 -235z" />
    <glyph glyph-name="afii57448" unicode="&#x648;" horiz-adv-x="875" arabic-form="isolated" 
d="M493 501c0 83.333 -37 125.001 -111 125.001c-49.333 0 -80 -10.667 -92 -32v4c-4 -12.667 -7.5 -28.834 -10.5 -48.501s-4.5 -43.167 -4.5 -70.5c0 -48.667 23.333 -81.667 70 -99c11.333 -4.66699 30 -8 56 -10s56.667 -3.33301 92 -4v135zM702 135.001
c0 -64 -11.166 -122.001 -33.499 -174.001s-55.5 -98.333 -99.5 -139c-46 -40.667 -94.833 -72.167 -146.5 -94.5s-105.834 -33.5 -162.501 -33.5h-234l-31 247h238c77.333 0 138 20 182 60c17.333 15.333 32.333 33.5 45 54.5s22 42.167 28 63.5
c-61.333 1.33301 -117 7.33301 -167 18s-91 25 -123 43c-44 28 -77.667 67.333 -101 118s-35 112.667 -35 186c0 157.333 35.333 266.333 106 327c46.667 40.667 119 61 217 61c68.667 0 125.667 -15.667 171 -47s80.333 -77.333 105 -138
c13.333 -36 23.5 -82.167 30.5 -138.5s10.5 -122.166 10.5 -197.499v-216z" />
    <glyph glyph-name="afii57449" unicode="&#x649;" horiz-adv-x="1247" arabic-form="isolated" 
d="M1097 167c0 -91.333 -15.3311 -170.335 -45.998 -237.002s-76 -120 -136 -160c-37.333 -24.667 -77 -43.5 -119 -56.5s-85.667 -19.5 -131 -19.5h-259c-118.667 0 -219 47.667 -301 143c-78 88 -117 198 -117 330v387h198v-408c0 -57.333 25.333 -107.333 76 -150
c45.333 -39.333 104.333 -59 177 -59h218c32 0 61.667 4.66699 89 14s52.666 23.666 75.999 42.999c50.667 40.667 76 85.334 76 134.001c0 15.333 -8.33301 29 -25 41s-41 22.333 -73 31h1c-8 1.33301 -15.167 2.33301 -21.5 3s-12.166 1 -17.499 1h-255v328
c0 100 30 180.333 90 241c63.333 65.333 139 98 227 98h225l5 -236h-224c-53.333 0 -88.333 -19 -105 -57v1c-4 -10 -7.33301 -27 -10 -51s-4.66699 -53 -6 -87c55.333 -1.33301 105.166 -4.66602 149.499 -9.99902s78.166 -11.666 101.499 -18.999
c44 -18 77.833 -47.667 101.5 -89s35.5 -93.333 35.5 -156z" />
    <glyph glyph-name="afii57450" unicode="&#x64a;" horiz-adv-x="1247" arabic-form="isolated" 
d="M521 -503c0 -17.333 -3.33203 -33 -9.99902 -47s-15.667 -26 -27 -36s-24.333 -17.667 -39 -23s-30.334 -8 -47.001 -8c-88.667 0 -133 38 -133 114c0 72 41 108 123 108c88.667 0 133 -36 133 -108zM858.001 -503c0 -34.667 -11.167 -62.333 -33.5 -83
s-50.833 -31 -85.5 -31c-91.333 0 -137 38 -137 114c0 72 42 108 126 108c86.667 0 130 -36 130 -108zM1097 167.001c0 -91.333 -15.3311 -170.335 -45.998 -237.002s-76 -120 -136 -160c-37.333 -24.667 -77 -43.5 -119 -56.5s-85.667 -19.5 -131 -19.5h-259
c-118.667 0 -219 47.667 -301 143c-78 88 -117 198 -117 330v387h198v-408c0 -57.333 25.333 -107.333 76 -150c45.333 -39.333 104.333 -59 177 -59h218c32 0 61.667 4.66699 89 14s52.666 23.666 75.999 42.999c50.667 40.667 76 85.334 76 134.001
c0 15.333 -8.33301 29 -25 41s-41 22.333 -73 31h1c-8 1.33301 -15.167 2.33301 -21.5 3s-12.166 1 -17.499 1h-255v328c0 100 30 180.333 90 241c63.333 65.333 139 98 227 98h225l5 -236h-224c-53.333 0 -88.333 -19 -105 -57v1c-4 -10 -7.33301 -27 -10 -51
s-4.66699 -53 -6 -87c55.333 -1.33301 105.166 -4.66602 149.499 -9.99902s78.166 -11.666 101.499 -18.999c44 -18 77.833 -47.667 101.5 -89s35.5 -93.333 35.5 -156z" />
    <glyph glyph-name="afii57451" unicode="&#xfe70;" arabic-form="isolated" 
d="M386 1498l-338 -180l-45 81l341 186zM386 1679l-338 -186l-43 86l340 184z" />
    <glyph glyph-name="afii57452" unicode="&#xfe72;" horiz-adv-x="2" arabic-form="isolated" 
d="M317 1616c0 15.333 -6.66699 28.5 -20 39.5s-28 16.5 -44 16.5c-36 0 -54 -20.667 -54 -62c0 -39.333 20 -59 60 -59c11.333 0 23 8 35 24c15.333 17.333 23 31 23 41zM398 1616c0 -34 -4.67188 -61.668 -14.0049 -83.001s-22.666 -37.333 -39.999 -48l-291 -153l-49 80
c36.667 20.667 60.334 36.667 71.001 48c-2.66699 4.66699 -10.667 7 -24 7c-8 0 -15.667 -1 -23 -3s-16.666 -7.66699 -27.999 -17l-46 73c28 11.333 51.333 19 70 23s33.667 6 45 6c18.667 0 34.834 -5 48.501 -15s23.834 -26.333 30.501 -49
c0.666992 0.666992 1.16699 1 1.5 1s0.833008 0.333008 1.5 1c2.66699 1.33301 5 2.83301 7 4.5s4.33301 3.16699 7 4.5l6 3c-17.333 14.667 -31.166 31.334 -41.499 50.001s-15.5 38.667 -15.5 60c0 32 8.66699 59.5 26 82.5s41 41.167 71 54.5
c8.66699 4 17 7.16699 25 9.5s13.667 3.5 17 3.5c20 0 38.667 -3.83301 56 -11.5s32.666 -18.167 45.999 -31.5c12.667 -14 23 -29.333 31 -46s12 -34.667 12 -54z" />
    <glyph glyph-name="afii57453" unicode="&#xfe74;" arabic-form="isolated" 
d="M152 -942l-324 -176l-40 65l327 178zM152 -804l-325 -173l-41 62l329 181z" />
    <glyph glyph-name="afii57454" unicode="&#xfe76;" arabic-form="isolated" 
d="M387 1531l-340 -182l-46 80l341 187z" />
    <glyph glyph-name="afii57455" unicode="&#xfe78;" arabic-form="isolated" 
d="M273 1579c0 14.667 -6.66699 27 -20 37s-28.333 15 -45 15c-38 0 -57 -20.333 -57 -61c0 -38 20.667 -57 62 -57c11.333 0 24 8 38 24c14.667 14.667 22 28.667 22 42zM358 1577c0 -64 -20.3359 -107.332 -61.0029 -129.999l-235 -124l-48 77l111 61
c-19.333 15.333 -33.166 32 -41.499 50s-12.5 37.667 -12.5 59c0 63.333 32.333 109.333 97 138c10.667 4 19.334 6.66699 26.001 8s11.334 2 14.001 2c19.333 0 37.833 -3.83301 55.5 -11.5s33.5 -17.834 47.5 -30.501c14.667 -13.333 26.167 -28.5 34.5 -45.5
s12.5 -34.833 12.5 -53.5z" />
    <glyph glyph-name="afii57456" unicode="&#xfe7a;" arabic-form="isolated" 
d="M149 -839l-325 -175l-40 65l324 180z" />
    <glyph glyph-name="afii57457" unicode="&#xfe7c;" arabic-form="isolated" 
d="M457 1559c0 -28.667 -3.50195 -54.001 -10.502 -76.001s-16.833 -40 -29.5 -54c-13.333 -17.333 -29.166 -31.166 -47.499 -41.499s-37.833 -15.5 -58.5 -15.5c-14.667 0 -31 4.33301 -49 13s-36 20 -54 34c-32.667 -31.333 -68.667 -47 -108 -47
c-42.667 0 -77.667 19.667 -105 59c-9.33301 14.667 -16.833 32.667 -22.5 54s-8.5 46 -8.5 74h82c0 -62.667 19.667 -94 59 -94c36.667 0 56.334 31.333 59.001 94h88c0 -62.667 20 -94 60 -94s60.333 31.333 61 94h84z" />
    <glyph glyph-name="afii57458" unicode="&#xfe7e;" arabic-form="isolated" 
d="M257 1498c0 30.667 -15.667 51.333 -47 62c-4.66699 2 -8.66699 3 -12 3c-14 0 -28.333 -6.66699 -43 -20v1c-12.667 -12 -19 -27.333 -19 -46c0 -16 6.33301 -29.833 19 -41.5s27 -17.5 43 -17.5c14 0 27 6.33301 39 19c13.333 12 20 25.333 20 40zM342 1496
c0 -43.333 -15.0029 -77.333 -45.0029 -102c-15.333 -11.333 -31.166 -20.333 -47.499 -27s-34.5 -10 -54.5 -10c-18.667 0 -36.667 4.33301 -54 13s-32.666 19.667 -45.999 33c-12 15.333 -21.5 31.666 -28.5 48.999s-10.5 35 -10.5 53c0 21.333 3.83301 40.333 11.5 57
s18.834 32 33.501 46c15.333 11.333 31.333 20 48 26s35 9 55 9c19.333 0 38 -4 56 -12s33 -18.667 45 -32c11.333 -14.667 20.333 -30.667 27 -48s10 -35.666 10 -54.999z" />
    <glyph glyph-name="uni0671" unicode="&#x671;" horiz-adv-x="461" arabic-form="isolated" 
d="M310 1554c0 16 -12 24 -36 24c-4.66699 0 -11.667 -2 -21 -6s-19.333 -9.66699 -30 -17c6 -2 12.667 -3.83301 20 -5.5s14.333 -2.5 21 -2.5c30.667 0 46 2.33301 46 7zM386 1577c0 -92.667 -42.6709 -139.001 -128.004 -139.001c-16.667 0 -33.667 2.83301 -51 8.5
s-32.666 13.167 -45.999 22.5c-21.333 16 -33.666 24 -36.999 24c-5.33301 0 -10.333 -1 -15 -3s-9.66699 -5 -15 -9h1c-8 -7.33301 -15.167 -12.666 -21.5 -15.999s-13.5 -5 -21.5 -5c-12.667 0 -21.667 3.16699 -27 9.5s-8 17.166 -8 32.499
c0 16.667 10.333 37.334 31 62.001c14.667 16 28.334 28 41.001 36s25.667 12 39 12c10.667 0 20 -2 28 -6c31.333 22 58.833 40.333 82.5 55s40.167 22 49.5 22c16.667 0 31.834 -2.83301 45.501 -8.5s25.167 -15.167 34.5 -28.5c12 -18.667 18 -41.667 18 -69z
M303.996 118.999h-204v1158h204v-1158z" />
    <glyph glyph-name="afii57511" unicode="&#x679;" horiz-adv-x="1622" arabic-form="isolated" 
d="M835 955c0 37.333 -10.667 56 -32 56c-9.33301 0 -20 -4.66699 -32 -14s-25.333 -22 -40 -38c-8.66699 -11.333 -17 -23 -25 -35s-14.667 -23.333 -20 -34h119c8 0 15.667 5.66699 23 17c4.66699 8.66699 7 24.667 7 48zM931 936
c0 -20 -2.99805 -37.998 -8.99805 -53.998s-14 -30.667 -24 -44c-24 -27.333 -55 -41 -93 -41h-259l-15 93h61v386h92v-236c20 22 39.167 38 57.5 48s36.166 15 53.499 15c21.333 0 40.333 -4.83301 57 -14.5s31 -23.167 43 -40.5
c11.333 -16.667 20.166 -34.334 26.499 -53.001s9.5 -38.334 9.5 -59.001zM1401 432.002c0 -83.333 -23.001 -154 -69.001 -212c-27.333 -32.667 -57.166 -57.667 -89.499 -75s-66.5 -26 -102.5 -26h-888c-36 0 -70.333 8.5 -103 25.5s-63 41.833 -91 74.5
c-45.333 55.333 -68 126.333 -68 213v296h208v-271c0 -32.667 7.66699 -56 23 -70s43 -21 83 -21h782c40 0 68.167 7 84.5 21s24.5 37.333 24.5 70v271h206v-296z" />
    <glyph glyph-name="afii57506" unicode="&#x67e;" horiz-adv-x="1622" arabic-form="isolated" 
d="M1054 -200c0 -70.667 -42.335 -106 -127.002 -106c-86.667 0 -130 35.333 -130 106c0 16.667 3.16699 32.167 9.5 46.5s14.833 26.833 25.5 37.5s23.334 19 38.001 25s30.334 9 47.001 9c36 0 67.333 -9.33301 94 -28c28.667 -21.333 43 -51.333 43 -90zM716.998 -200
c0 -70.667 -40.999 -105.999 -122.999 -105.999c-90 0 -135 35.333 -135 106c0 33.333 11.667 61.666 35 84.999c25.333 22 54.666 33 87.999 33c34 0 64.333 -9.33301 91 -28c29.333 -22 44 -52 44 -90zM875.999 -446.999c0 -71.333 -41 -107 -123 -107
c-90 0 -135 35.667 -135 107c0 77.333 41.333 116 124 116c38 0 69.667 -9.66699 95 -29c26 -21.333 39 -50.333 39 -87zM1401 432.001c0 -83.333 -23.001 -154 -69.001 -212c-27.333 -32.667 -57.166 -57.667 -89.499 -75s-66.5 -26 -102.5 -26h-888
c-36 0 -70.333 8.5 -103 25.5s-63 41.833 -91 74.5c-45.333 55.333 -68 126.333 -68 213v296h208v-271c0 -32.667 7.66699 -56 23 -70s43 -21 83 -21h782c40 0 68.167 7 84.5 21s24.5 37.333 24.5 70v271h206v-296z" />
    <glyph glyph-name="afii57507" unicode="&#x686;" horiz-adv-x="1133" arabic-form="isolated" 
d="M974 -51c0 -70 -43.667 -105 -131 -105c-84 0 -126 35 -126 105c0 34.667 11.333 62.667 34 84s52 32 88 32c35.333 0 65.333 -9 90 -27c30 -24 45 -53.667 45 -89zM635 -51c0 -70 -43 -104.999 -129 -104.999s-129 35 -129 105c0 34.667 11.333 62.667 34 84
s53 32 91 32c34 0 66 -10 96 -30c24.667 -20.667 37 -49.334 37 -86.001zM795 -303.999c0 -68.667 -41.667 -102.999 -125 -102.999c-88 0 -132 34.333 -132 103c0 81.333 39.333 122 118 122c37.333 0 69 -10 95 -30c29.333 -20.667 44 -51.334 44 -92.001zM1069 -689.998
h-483.001c-76.667 0 -149.667 13.5 -219 40.5s-130.5 64.833 -183.5 113.5s-95.167 107 -126.5 175s-47 142.667 -47 224v47l2 10c0.666992 3.33301 1.16699 6.5 1.5 9.5s0.833008 6.16699 1.5 9.5v-9c0 0.666992 0.166992 1.16699 0.5 1.5s0.5 0.833008 0.5 1.5v7
c12.667 84 40.5 159 83.5 225s99.5 119 169.5 159l69.5 39l69.5 38v-1l87.5 47.5l82 44.5l81.5 44.5l86 47.5c-49.333 34 -140.666 51 -273.999 51h-53c-34 -2.66699 -66.333 -3.83398 -97 -3.50098s-59.667 -0.166992 -87 -1.5l-48 2c7.33301 15.333 12.5 30.5 15.5 45.5
s4.5 29.5 4.5 43.5c0 16 -1.16699 31.167 -3.5 45.5s-5 27.833 -8 40.5l-8.5 35c-2.66699 10.667 -4 20.334 -4 29.001h436c121.333 0 213 -34.333 275 -103s93.667 -172.667 95 -312l-563 -316c-67.333 -40 -119.833 -83.833 -157.5 -131.5s-56.5 -97.167 -56.5 -148.5
c0 -34.667 8.5 -70.167 25.5 -106.5s40.333 -69.5 70 -99.5s64.667 -54.667 105 -74s83.5 -29 129.5 -29h509z" />
    <glyph glyph-name="afii57512" unicode="&#x688;" horiz-adv-x="1014" arabic-form="isolated" 
d="M300 1206c0 38 -11.334 57 -34.001 57c-18.667 0 -42.667 -17.333 -72 -52c-9.33301 -10.667 -17.666 -22.167 -24.999 -34.5l-21 -35.5h120c6 0 13.333 6.33301 22 19c6.66699 8.66699 10 24 10 46zM393.999 1187c0 -19.333 -3 -37.333 -9 -54s-14 -30.667 -24 -42
c-12 -13.333 -25.667 -23.5 -41 -30.5s-32.666 -10.5 -51.999 -10.5h-257l-17 91h62v387h90v-235c39.333 42.667 76.666 64 111.999 64c40.667 0 74.667 -19.333 102 -58c22.667 -32.667 34 -70 34 -112zM836.999 378c0 -85.333 -26.998 -149.667 -80.998 -193
c-54.667 -44 -116.334 -66 -185.001 -66h-537l-37 247h560c48.667 0 73 9.33301 73 28c0 7.33301 -6.33301 18.333 -19 33v-1l-54.5 59l-55.5 59l-40 43l-40 42v-1l-52 55.5l-57 59.5l-57 59l-51 53l157 157l392 -414c27.333 -29.333 48.166 -62.333 62.499 -99
s21.5 -77 21.5 -121z" />
    <glyph glyph-name="afii57513" unicode="&#x691;" horiz-adv-x="717" arabic-form="isolated" 
d="M550 975c0 37.333 -11.001 56 -33.001 56c-19.333 0 -43.333 -17.333 -72 -52c-9.33301 -10.667 -17.666 -22 -24.999 -34l-21 -35h119c8 0 15.667 5.66699 23 17c6 9.33301 9 25.333 9 48zM642.999 956c0 -40.667 -10.667 -73.667 -32 -99v1
c-23.333 -27.333 -54.333 -41 -93 -41h-256l-20 93h62v386h94v-236c20 22 39 38 57 48s35.667 15 53 15c21.333 0 40.333 -4.83301 57 -14.5s31 -23.167 43 -40.5c11.333 -17.333 20 -35.333 26 -54s9 -38 9 -58zM541.999 187c0 -138.667 -40.668 -254 -122.001 -346
c-88 -98 -195 -147 -321 -147h-240l-38 251h217c39.333 0 75.833 4.5 109.5 13.5s63.167 21.833 88.5 38.5c28.667 20.667 51.334 43.667 68.001 69s25 52 25 80v582h213v-541z" />
    <glyph glyph-name="afii57508" unicode="&#x698;" horiz-adv-x="717" arabic-form="isolated" 
d="M387 916c0 -36.667 -11.334 -66.0029 -34.001 -88.0029s-51.334 -33 -86.001 -33c-18 0 -35.167 2.83301 -51.5 8.5s-30.666 13.834 -42.999 24.501s-22.166 23.334 -29.499 38.001s-11 31.334 -11 50.001c0 68.667 41.333 103 124 103c87.333 0 131 -34.333 131 -103z
M436.999 1042c-18.667 0 -35.666 2.99805 -50.999 8.99805s-29.333 13.667 -42 23c-27.333 23.333 -41 53 -41 89c0 69.333 42.667 104 128 104c84.667 0 127 -33 127 -99c0 -17.333 -3 -33.666 -9 -48.999s-14.333 -28.666 -25 -39.999s-23.334 -20.333 -38.001 -27
s-31 -10 -49 -10zM731 915.995c0 -17.333 -3.5 -33.498 -10.5 -48.498s-16.167 -28.167 -27.5 -39.5c-11.333 -10 -24.5 -18 -39.5 -24s-30.833 -9 -47.5 -9c-18.667 0 -35.667 2.83301 -51 8.5s-29.333 13.5 -42 23.5c-13.333 11.333 -23.833 24.666 -31.5 39.999
s-11.5 31.666 -11.5 48.999c0 68.667 42.333 103 127 103c89.333 0 134 -34.333 134 -103zM542 186.997c0 -138.667 -40.668 -254 -122.001 -346c-88 -98 -195 -147 -321 -147h-240l-38 251h217c39.333 0 75.833 4.5 109.5 13.5s63.167 21.833 88.5 38.5
c28.667 20.667 51.334 43.667 68.001 69s25 52 25 80v582h213v-541z" />
    <glyph glyph-name="afii57505" unicode="&#x6a4;" horiz-adv-x="1627" arabic-form="isolated" 
d="M1061 1188c0 -33.333 -11.998 -61 -35.998 -83c-23.333 -23.333 -51.666 -35 -84.999 -35c-16.667 0 -32.834 3 -48.501 9s-29.834 13.667 -42.501 23c-29.333 20 -44 48.667 -44 86c0 71.333 41.333 107 124 107c45.333 0 78.666 -8.83301 99.999 -26.5
s32 -44.5 32 -80.5zM1399 1188c0 -17.333 -3.33105 -32.834 -9.99805 -46.501s-15.667 -26.167 -27 -37.5c-26 -22.667 -54.667 -34 -86 -34c-16.667 0 -32.834 3 -48.501 9s-29.834 13.667 -42.501 23c-28.667 20.667 -43 49.334 -43 86.001c0 71.333 40.667 107 122 107
c90 0 135 -35.667 135 -107zM1230 1436c0 -34 -13 -62.666 -39 -85.999c-25.333 -21.333 -54.333 -32 -87 -32c-18 0 -34.833 3.16699 -50.5 9.5s-29.167 14.166 -40.5 23.499c-27.333 20 -41 48.333 -41 85c0 72.667 40.333 109 121 109c91.333 0 137 -36.333 137 -109z
M955.004 694c0 -15.333 9.16699 -26.332 27.5 -32.999s45.5 -10.334 81.5 -11.001h137c-6.66699 25.333 -18.667 49 -36 71c-22 30 -57.667 45 -107 45c-68.667 0 -103 -24 -103 -72zM1406 454.001c0 -46.667 -5.99902 -88.9971 -17.999 -126.997s-29.667 -71.667 -53 -101
c-56 -71.333 -125.333 -107 -208 -107h-876c-36.667 0 -71.5 8.66699 -104.5 26s-62.5 42 -88.5 74c-21.333 26 -38 57.167 -50 93.5s-18 76.166 -18 119.499v296h211v-271c0 -33.333 7.33301 -56.833 22 -70.5s41.667 -20.5 81 -20.5h803c48 0 74.667 3.33301 80 10l-1 -5
c1.33301 3.33301 3.16602 8.83301 5.49902 16.5s4.83301 16.834 7.5 27.501c-31.333 0.666992 -61.5 1.5 -90.5 2.5s-55.667 2.5 -80 4.5s-45.666 4.33301 -63.999 7s-32.5 5.66699 -42.5 9c-50 17.333 -87.167 48.666 -111.5 93.999s-36.5 104.333 -36.5 177
c0 49.333 7.16699 92.666 21.5 129.999s37.166 69.666 68.499 96.999c62 48.667 134.333 73 217 73c92.667 0 170.334 -35 233.001 -105c28 -30.667 49.5 -67.667 64.5 -111s23.167 -90 24.5 -140c1.33301 -40 2.16602 -78.333 2.49902 -115s0.5 -64.667 0.5 -84z" />
    <glyph glyph-name="uni06A9" unicode="&#x6a9;" horiz-adv-x="1617" arabic-form="isolated" 
d="M1397 389c0 -88 -30.332 -155.335 -90.999 -202.002v1c-26 -21.333 -55.5 -38.166 -88.5 -50.499s-66.833 -18.5 -101.5 -18.5h-865c-36 0 -70.833 9.33301 -104.5 28s-63.167 43 -88.5 73c-20 26 -36.333 57.333 -49 94s-19 76 -19 118v296h208v-271
c0 -32.667 7.66699 -56 23 -70s43 -21 83 -21h805c46.667 0 70 13.667 70 41c0 8 -7.66699 19.667 -23 35l-443 459l-32 243l651 234l34 -239l-407 -160l50 -53l50 -54c9.33301 -9.33301 18.166 -19 26.499 -29s17.166 -19.667 26.499 -29l99 -106.5l96 -103.5v1
c26.667 -28 48.334 -60.667 65.001 -98s25 -76.666 25 -117.999z" />
    <glyph glyph-name="uni06AD" unicode="&#x6ad;" horiz-adv-x="1471" arabic-form="isolated" 
d="M1119 1442c0 -32 -12.001 -59.667 -36.001 -83c-22.667 -22.667 -50.667 -34 -84 -34c-35.333 0 -65.666 9.66699 -90.999 29c-28.667 22.667 -43 52 -43 88c0 71.333 40.667 107 122 107c88 0 132 -35.667 132 -107zM1288 1690
c0 -34.667 -12.665 -63.001 -37.998 -85.001c-24.667 -21.333 -53.334 -32 -86.001 -32c-18.667 0 -35.834 3 -51.501 9s-29.5 14 -41.5 24c-12.667 10 -22.5 21.833 -29.5 35.5s-10.5 29.834 -10.5 48.501c0 72 40.667 108 122 108c90 0 135 -36 135 -108zM1460 1442
c0 -17.333 -3.33203 -32.833 -9.99902 -46.5s-16.334 -26.167 -29.001 -37.5c-25.333 -22 -54.333 -33 -87 -33c-35.333 0 -65 9.66699 -89 29c-29.333 22.667 -44 52 -44 88c0 71.333 41 107 123 107c90.667 0 136 -35.667 136 -107zM546.002 667.999l73.5059 8.99609
c16.333 2 26.833 3.66699 31.5 5c-4.66699 -0.666992 -13.334 0 -26.001 2c-1.33301 0 -4.66602 0.666992 -9.99902 2c-10.667 1.33301 -21.834 3 -33.501 5s-22.334 4.5 -32.001 7.5s-17.667 6.66699 -24 11s-9.5 9.83301 -9.5 16.5c0 20.667 5 39.834 15 57.501
s23.667 34.167 41 49.5s37.666 29.5 60.999 42.5s48.666 24.833 75.999 35.5l21 -79c-11.333 -4.66699 -20.5 -8 -27.5 -10s-13.5 -4 -19.5 -6c-3.33301 -1.33301 -6.5 -2.16602 -9.5 -2.49902s-6.16699 -1.16602 -9.5 -2.49902h1
c-1.33301 -0.666992 -2.83301 -1.33398 -4.5 -2.00098s-3.16699 -1.33398 -4.5 -2.00098c-8 -2.66699 -15 -4.66699 -21 -6s-9.33301 -0.666016 -10 2.00098c0.666992 -5.33301 7.16699 -9.83301 19.5 -13.5s28.5 -7.16699 48.5 -10.5
c28 -3.33301 49.667 -9.66602 65 -18.999s23 -21.333 23 -36c0 -10.667 -5 -23 -15 -37s-23.5 -27.167 -40.5 -39.5s-37 -22.666 -60 -30.999s-47.5 -12.5 -73.5 -12.5c-22.667 0 -46.334 2.83301 -71.001 8.5s-53.334 13.5 -86.001 23.5l2 19
c9.33301 1.33301 18.666 2.33301 27.999 3s18 1.66699 26 3l15.5 2l15.5 2c4.66699 0.666992 8.83398 1.16699 12.501 1.5s7.5 0.833008 11.5 1.5zM1257.01 414.995c0 -46.667 -6.66504 -88.334 -19.998 -125.001s-32.5 -67.667 -57.5 -93s-55.167 -44.666 -90.5 -57.999
s-75 -20 -119 -20h-719c-36 0 -69.833 7.83301 -101.5 23.5s-59.334 37.334 -83.001 65.001s-42.5 60.667 -56.5 99s-21 80.166 -21 125.499v296h208v-271c0 -32.667 7.66699 -56 23 -70s42.666 -21 81.999 -21h654c25.333 2 45.333 4.83301 60 8.5s23.667 9.16699 27 16.5
c6.66699 8.66699 10 41.667 10 99v787h204v-862z" />
    <glyph glyph-name="afii57509" unicode="&#x6af;" horiz-adv-x="1617" arabic-form="isolated" 
d="M1312 1454l-631 -226l-12 88l635 226zM1397 389c0 -88 -30.332 -155.335 -90.999 -202.002v1c-26 -21.333 -55.5 -38.166 -88.5 -50.499s-66.833 -18.5 -101.5 -18.5h-865c-36 0 -70.833 9.33301 -104.5 28s-63.167 43 -88.5 73c-20 26 -36.333 57.333 -49 94
s-19 76 -19 118v296h208v-271c0 -32.667 7.66699 -56 23 -70s43 -21 83 -21h805c46.667 0 70 13.667 70 41c0 8 -7.66699 19.667 -23 35l-443 459l-32 243l651 234l34 -239l-407 -160l50 -53l50 -54c9.33301 -9.33301 18.166 -19 26.499 -29s17.166 -19.667 26.499 -29
l99 -106.5l96 -103.5v1c26.667 -28 48.334 -60.667 65.001 -98s25 -76.666 25 -117.999z" />
    <glyph glyph-name="afii57514" unicode="&#x6ba;" horiz-adv-x="1320" arabic-form="isolated" 
d="M1113 187c0 -148.667 -37.999 -266 -113.999 -352c-84.667 -94 -193.667 -141 -327 -141h-260c-58.667 0 -112.834 11.833 -162.501 35.5s-96.5 59.5 -140.5 107.5c-80.667 90 -121 200 -121 330v391h205v-412c0 -26 6.83301 -51.5 20.5 -76.5s33.167 -48.5 58.5 -70.5
l-1 1c22.667 -19.333 49 -34 79 -44s62 -15 96 -15h216c34 0 65.333 5.33301 94 16s54.667 25.667 78 45v-1c22 20.667 39.333 43.5 52 68.5s19 50.5 19 76.5v582h208v-541z" />
    <glyph glyph-name="uni06C1" unicode="&#x6c1;" horiz-adv-x="853" arabic-form="isolated" 
d="M461 456c0 17.333 -6.66406 33.668 -19.9971 49.001l-51.5 53.5l-49.5 52.5v1c-5.33301 5.33301 -9 9.16602 -11 11.499l-10 11.5c-88 -86 -132 -147.667 -132 -185c0 -12.667 3.66699 -25.667 11 -39s17.666 -26.333 30.999 -39c27.333 -22 62.333 -33 105 -33
c19.333 0 36.666 2.66699 51.999 8s27.666 13 36.999 23c25.333 27.333 38 56 38 86zM668.003 444.002c0 -49.333 -9.50098 -94.835 -28.501 -136.502s-44.5 -77.5 -76.5 -107.5c-36 -32.667 -74.333 -57.5 -115 -74.5s-83.667 -25.5 -129 -25.5
c-94.667 0 -174.667 35.333 -240 106c-62 70 -93 156.667 -93 260c0 50.667 14.667 104.667 44 162s71 115.333 125 174l-11 12.5c-3.33301 3.66699 -6.66602 6.83398 -9.99902 9.50098c-2 2 -4.5 4.66699 -7.5 8s-6 6.5 -9 9.5s-5.66699 5.83301 -8 8.5
s-3.83301 4.33398 -4.5 5.00098l156 157l325 -333c54.667 -58.667 82 -137 82 -235z" />
    <glyph glyph-name="uni06C7" unicode="&#x6c7;" horiz-adv-x="875" arabic-form="isolated" 
d="M245 1258c0 9.33301 -0.833008 17.999 -2.5 25.999s-5.16699 15.667 -10.5 23c-8 12.667 -21 19 -39 19c-20 0 -32.333 -5.33301 -37 -16c-5.33301 -12 -8 -30.667 -8 -56c0 -12 2.83301 -22.333 8.5 -31s12.834 -15 21.501 -19
c5.33301 -1.33301 14.166 -2.66602 26.499 -3.99902s25.833 -2.33301 40.5 -3v61zM403 1101h-59.0029c-2 -26 -8 -50.333 -18 -73s-23.667 -42.667 -41 -60c-19.333 -17.333 -41.333 -31 -66 -41s-51.334 -15 -80.001 -15h-106l-11 97h106c30 0 55.667 8.16699 77 24.5
s33.666 38.833 36.999 67.5c-27.333 1.33301 -52.666 4.16602 -75.999 8.49902s-41.666 10.5 -54.999 18.5c-17.333 12.667 -32.166 30.167 -44.499 52.5s-18.5 47.833 -18.5 76.5c0 33.333 4.33301 61.833 13 85.5s20.667 41.834 36 54.501c19.333 17.333 51.333 26 96 26
c64.667 0 108.334 -27.333 131.001 -82c5.33301 -14 9.83301 -35 13.5 -63s5.83398 -57.667 6.50098 -89zM492.997 500.999c0 83.333 -37 125.001 -111 125.001c-49.333 0 -80 -10.667 -92 -32v4c-4 -12.667 -7.5 -28.834 -10.5 -48.501s-4.5 -43.167 -4.5 -70.5
c0 -48.667 23.333 -81.667 70 -99c11.333 -4.66699 30 -8 56 -10s56.667 -3.33301 92 -4v135zM701.997 135c0 -64 -11.166 -122.001 -33.499 -174.001s-55.5 -98.333 -99.5 -139c-46 -40.667 -94.833 -72.167 -146.5 -94.5s-105.834 -33.5 -162.501 -33.5h-234l-31 247h238
c77.333 0 138 20 182 60c17.333 15.333 32.333 33.5 45 54.5s22 42.167 28 63.5c-61.333 1.33301 -117 7.33301 -167 18s-91 25 -123 43c-44 28 -77.667 67.333 -101 118s-35 112.667 -35 186c0 157.333 35.333 266.333 106 327c46.667 40.667 119 61 217 61
c68.667 0 125.667 -15.667 171 -47s80.333 -77.333 105 -138c13.333 -36 23.5 -82.167 30.5 -138.5s10.5 -122.166 10.5 -197.499v-216z" />
    <glyph glyph-name="uni06C9" unicode="&#x6c9;" horiz-adv-x="875" arabic-form="isolated" 
d="M695 1005h-161.999l-159 154l-24 -24c-8.66699 -8.66699 -16.334 -16 -23.001 -22c-6 -5.33301 -11.833 -10.833 -17.5 -16.5l-17.5 -17.5l-39 -37.5l-37 -36.5h-165l212 317h222zM493.001 501c0 83.333 -37 125.001 -111 125.001c-49.333 0 -80 -10.667 -92 -32v4
c-4 -12.667 -7.5 -28.834 -10.5 -48.501s-4.5 -43.167 -4.5 -70.5c0 -48.667 23.333 -81.667 70 -99c11.333 -4.66699 30 -8 56 -10s56.667 -3.33301 92 -4v135zM702.001 135.001c0 -64 -11.166 -122.001 -33.499 -174.001s-55.5 -98.333 -99.5 -139
c-46 -40.667 -94.833 -72.167 -146.5 -94.5s-105.834 -33.5 -162.501 -33.5h-234l-31 247h238c77.333 0 138 20 182 60c17.333 15.333 32.333 33.5 45 54.5s22 42.167 28 63.5c-61.333 1.33301 -117 7.33301 -167 18s-91 25 -123 43c-44 28 -77.667 67.333 -101 118
s-35 112.667 -35 186c0 157.333 35.333 266.333 106 327c46.667 40.667 119 61 217 61c68.667 0 125.667 -15.667 171 -47s80.333 -77.333 105 -138c13.333 -36 23.5 -82.167 30.5 -138.5s10.5 -122.166 10.5 -197.499v-216z" />
    <glyph glyph-name="uni06CC" unicode="&#x6cc;" horiz-adv-x="1247" arabic-form="isolated" 
d="M1097 34c0 -183.333 -60.666 -315.667 -181.999 -397c-38 -25.333 -77.667 -44.5 -119 -57.5s-85 -19.5 -131 -19.5h-259c-118 0 -218.333 47.333 -301 142c-78 90 -117 200.667 -117 332v388h198v-405c0 -28 7 -55.833 21 -83.5s32 -52.834 54 -75.501l-1 3
c22 -17.333 48.833 -31.166 80.5 -41.499s64.5 -15.5 98.5 -15.5h218c30.667 0 60.334 4.5 89.001 13.5s53.667 21.833 75 38.5l-1 -2c24.667 22 43.834 45.167 57.501 69.5s20.5 48.166 20.5 71.499c0 32 -32 55.333 -96 70l1 -1
c-10.667 1.33301 -19.334 2.33301 -26.001 3s-11.667 1 -15 1h-255v330c0 101.333 30 182 90 242c63.333 65.333 139 98 227 98h225l5 -238h-224c-52.667 0 -87.667 -19 -105 -57v2c-3.33301 -9.33301 -6.5 -25.5 -9.5 -48.5s-5.16699 -51.5 -6.5 -85.5
c55.333 -1.33301 105.166 -4.66602 149.499 -9.99902s78.166 -12 101.499 -20c44 -17.333 77.833 -46.833 101.5 -88.5s35.5 -94.5 35.5 -158.5z" />
    <glyph glyph-name="uni06D0" unicode="&#x6d0;" horiz-adv-x="1247" arabic-form="isolated" 
d="M506 -964c-70 0.666992 -105 42.999 -105 126.999c1.33301 89.333 37.333 133.666 108 132.999c16 0 31.333 -3.33301 46 -10s27.667 -15.667 39 -27c10 -11.333 17.833 -24.166 23.5 -38.499s8.5 -29.166 8.5 -44.499c-1.33301 -94 -41.333 -140.667 -120 -140z
M509 -626.001c-70.667 0.666992 -105.334 41.668 -104.001 123.001c0.666992 91.333 36 136.666 106 135.999c18 0 34.167 -3.33301 48.5 -10s26.833 -15.667 37.5 -27s18.834 -24.5 24.501 -39.5s8.5 -30.833 8.5 -47.5c-2 -90.667 -42.333 -135.667 -121 -135zM1097 167
c0 -91.333 -15.3311 -170.335 -45.998 -237.002s-76 -120 -136 -160c-37.333 -24.667 -77 -43.5 -119 -56.5s-85.667 -19.5 -131 -19.5h-259c-118.667 0 -219 47.667 -301 143c-78 88 -117 198 -117 330v387h198v-408c0 -57.333 25.333 -107.333 76 -150
c45.333 -39.333 104.333 -59 177 -59h218c32 0 61.667 4.66699 89 14s52.666 23.666 75.999 42.999c50.667 40.667 76 85.334 76 134.001c0 15.333 -8.33301 29 -25 41s-41 22.333 -73 31h1c-8 1.33301 -15.167 2.33301 -21.5 3s-12.166 1 -17.499 1h-255v328
c0 100 30 180.333 90 241c63.333 65.333 139 98 227 98h225l5 -236h-224c-53.333 0 -88.333 -19 -105 -57v1c-4 -10 -7.33301 -27 -10 -51s-4.66699 -53 -6 -87c55.333 -1.33301 105.166 -4.66602 149.499 -9.99902s78.166 -11.666 101.499 -18.999
c44 -18 77.833 -47.667 101.5 -89s35.5 -93.333 35.5 -156z" />
    <glyph glyph-name="afii57519" unicode="&#x6d2;" horiz-adv-x="2181" arabic-form="isolated" 
d="M273 -546c-44 0.666992 -83.165 8.32812 -117.498 22.9951s-63.333 35.334 -87 62.001s-41.834 58.834 -54.501 96.501s-19 79.5 -19 125.5v156c0 127.333 23 220.833 69 280.5s116.333 89.5 211 89.5c36 0 71.167 8.33301 105.5 25s64.833 39 91.5 67v-1
c22.667 24 44.667 43 66 57s40.666 21 57.999 21c10 0 21.167 -3.16699 33.5 -9.5s23.5 -13.166 33.5 -20.499c29.333 -20.667 59.166 -39.667 89.499 -57s60.333 -32.166 90 -44.499s58.834 -21.833 87.501 -28.5s56 -10 82 -10h103v-249h-108c-56 0 -110.167 10 -162.5 30
s-103.833 49.333 -154.5 88c-13.333 12.667 -25.333 21.667 -36 27s-21.334 8 -32.001 8c-16.667 0 -31.334 -4.5 -44.001 -13.5s-25.667 -20.167 -39 -33.5l-38 -34.5c-13.333 -11.667 -27.666 -22.5 -42.999 -32.5s-31.833 -18.5 -49.5 -25.5s-37.167 -11.167 -58.5 -12.5
c-30.667 0 -55.5 -1.33301 -74.5 -4s-33.833 -8.16699 -44.5 -16.5s-18 -20.666 -22 -36.999s-6 -37.833 -6 -64.5v-144c0 -30.667 9.66699 -51.667 29 -63c5.33301 -4 17.833 -6.66699 37.5 -8s45.834 -2 78.501 -2l1702 -1v-244h-1777z" />
    <glyph glyph-name="uni06D3" unicode="&#x6d3;" horiz-adv-x="2181" arabic-form="isolated" 
d="M656 797l-325.003 -166l-38 86l83 46c-21.333 17.333 -38.166 36.5 -50.499 57.5s-18.5 43.833 -18.5 68.5c0 22.667 3.83301 43.834 11.5 63.501s18.5 37.167 32.5 52.5c16 17.333 33.333 29.833 52 37.5s39.334 11.5 62.001 11.5c10 0 24.333 -2.83301 43 -8.5
s41.334 -13.5 68.001 -23.5l-45 -85c-13.333 11.333 -24.333 19.166 -33 23.499s-15.667 6.5 -21 6.5c-51.333 0 -77 -26 -77 -78c0 -39.333 19.333 -59 58 -59c31.333 0 82.333 19.667 153 59zM272.997 -546c-44 0.666992 -83.165 8.32812 -117.498 22.9951
s-63.333 35.334 -87 62.001s-41.834 58.834 -54.501 96.501s-19 79.5 -19 125.5v156c0 127.333 23 220.833 69 280.5s116.333 89.5 211 89.5c36 0 71.167 8.33301 105.5 25s64.833 39 91.5 67v-1c22.667 24 44.667 43 66 57s40.666 21 57.999 21
c10 0 21.167 -3.16699 33.5 -9.5s23.5 -13.166 33.5 -20.499c29.333 -20.667 59.166 -39.667 89.499 -57s60.333 -32.166 90 -44.499s58.834 -21.833 87.501 -28.5s56 -10 82 -10h103v-249h-108c-56 0 -110.167 10 -162.5 30s-103.833 49.333 -154.5 88
c-13.333 12.667 -25.333 21.667 -36 27s-21.334 8 -32.001 8c-16.667 0 -31.334 -4.5 -44.001 -13.5s-25.667 -20.167 -39 -33.5l-38 -34.5c-13.333 -11.667 -27.666 -22.5 -42.999 -32.5s-31.833 -18.5 -49.5 -25.5s-37.167 -11.167 -58.5 -12.5
c-30.667 0 -55.5 -1.33301 -74.5 -4s-33.833 -8.16699 -44.5 -16.5s-18 -20.666 -22 -36.999s-6 -37.833 -6 -64.5v-144c0 -30.667 9.66699 -51.667 29 -63c5.33301 -4 17.833 -6.66699 37.5 -8s45.834 -2 78.501 -2l1702 -1v-244h-1777z" />
    <glyph glyph-name="uniFB51" unicode="&#x671;" horiz-adv-x="461" arabic-form="final" 
d="M310 1554c0 16 -12.002 24 -36.002 24c-4.66699 0 -11.667 -2 -21 -6s-19.666 -9.66699 -30.999 -17c6 -2 12.833 -3.83301 20.5 -5.5s14.834 -2.5 21.501 -2.5c30.667 0 46 2.33301 46 7zM385.998 1577c0 -92.667 -42.668 -139.001 -128.001 -139.001
c-17.333 0 -34.666 2.83301 -51.999 8.5s-32.666 13.167 -45.999 22.5c-20 16 -32 24 -36 24c-5.33301 0 -10.333 -1 -15 -3s-9.66699 -5 -15 -9h1c-8.66699 -7.33301 -16 -12.666 -22 -15.999s-13 -5 -21 -5c-12.667 0 -21.834 3.16699 -27.501 9.5
s-8.5 17.166 -8.5 32.499c0 16 10.667 36.667 32 62c14.667 16 28.334 28 41.001 36s25.667 12 39 12c11.333 0 20.333 -2 27 -6c32 22 59.833 40.333 83.5 55s40.167 22 49.5 22c16.667 0 31.667 -2.83301 45 -8.5s24.666 -15.167 33.999 -28.5
c6 -9.33301 10.667 -19.666 14 -30.999s5 -24 5 -38zM487.997 118.999c-154.667 0 -266.667 32.002 -336 96.002c-39.333 37.333 -59 104 -59 200v836h206v-761c0 -58.667 10.333 -94.334 31 -107.001c6 -4 22.167 -7.33301 48.5 -10s62.833 -5.33398 109.5 -8.00098v-246z
" />
    <glyph glyph-name="uniFB57" unicode="&#x67e;" horiz-adv-x="1616" arabic-form="final" 
d="M875 -418c0 -70 -40 -105 -120 -105c-89.333 0 -134 35 -134 105c0 34.667 11.333 62.667 34 84s51.667 32 87 32c19.333 0 37 -2.66699 53 -8s31.667 -12.666 47 -21.999c22 -20.667 33 -49.334 33 -86.001zM1054 -173c0 -66 -43.667 -98.999 -131 -98.999
c-83.333 0 -125 33 -125 99c0 35.333 10.833 64.166 32.5 86.499s50.5 33.5 86.5 33.5c91.333 0 137 -40 137 -120zM717 -172.999c0 -66 -43 -98.999 -129 -98.999c-85.333 0 -128 33 -128 99c0 35.333 11.5 64.166 34.5 86.499s52.167 33.5 87.5 33.5
c90 0 135 -40 135 -120zM1588 119.002c-70 0 -128.335 5.16699 -175.002 15.5s-84 26.5 -112 48.5c-58.667 -42.667 -113 -64 -163 -64h-886c-36 0 -70 8.66699 -102 26s-62 42.333 -90 75c-21.333 28 -38.166 59.833 -50.499 95.5s-18.5 74.5 -18.5 116.5v296h207v-271
c0 -33.333 8 -56.833 24 -70.5s44.667 -20.5 86 -20.5h781c38.667 0 65.334 6.83301 80.001 20.5s22 37.167 22 70.5v271h211v-271c0 -60.667 62 -91 186 -91v-247z" />
    <glyph glyph-name="uniFB58" unicode="&#x67e;" horiz-adv-x="777" arabic-form="initial" 
d="M371 -389c0 -69.333 -41.333 -103.999 -124 -103.999c-89.333 0 -134 34.667 -134 104c0 79.333 39.667 119 119 119c37.333 0 69 -9 95 -27c29.333 -24.667 44 -55.334 44 -92.001zM544 -139.999c0 -71.333 -41.332 -106.999 -123.999 -106.999
c-88.667 0 -133 35.667 -133 107c0 33.333 11.667 61.666 35 84.999c25.333 21.333 53.666 32 84.999 32c91.333 0 137 -39 137 -117zM208.001 -139.998c0 -71.333 -40.333 -106.998 -121 -106.998c-91.333 0 -137 35.667 -137 107c0 17.333 3.16699 33.166 9.5 47.499
s15 26.666 26 36.999s24 18.333 39 24s31.167 8.5 48.5 8.5c90 0 135 -39 135 -117zM596.001 432.004c0 -42 -6.33301 -81.333 -19 -118s-29.667 -68 -51 -94c-25.333 -30 -54.5 -54.333 -87.5 -73s-66.5 -28 -100.5 -28h-381v247h325c39.333 0 66.5 6.83301 81.5 20.5
s22.5 37.167 22.5 70.5v271h210v-296z" />
    <glyph glyph-name="uniFB59" unicode="&#x67e;" horiz-adv-x="750" arabic-form="medial" 
d="M760 119h-37.0029c-31.333 0 -58.166 0.666992 -80.499 2s-41.166 3.66602 -56.499 6.99902c-14 6.66699 -28.167 14.334 -42.5 23.001s-29.166 19.667 -44.499 33c-28 -22 -55.333 -38.333 -82 -49s-52 -16 -76 -16h-383v247h331c38.667 0 65.5 6.83301 80.5 20.5
s22.5 37.167 22.5 70.5v271h210v-271c0 -39.333 6.33301 -62 19 -68c10 -8.66699 26.5 -14.667 49.5 -18s52.833 -5 89.5 -5v-247zM370.997 -389c0 -69.333 -41 -103.999 -123 -103.999c-89.333 0 -134 34.667 -134 104c0 79.333 39.333 119 118 119
c37.333 0 69.333 -9 96 -27c28.667 -24.667 43 -55.334 43 -92.001zM207.997 -139.999c0 -71.333 -40.333 -106.998 -121 -106.998c-90.667 0 -136 35.667 -136 107c0 17.333 3.16699 33.166 9.5 47.499s15 26.666 26 36.999s24 18.333 39 24s30.833 8.5 47.5 8.5
c90 0 135 -39 135 -117zM544.997 -139.997c0 -71.333 -41.667 -106.999 -125 -106.999c-88.667 0 -133 35.667 -133 107c0 33.333 12 61.666 36 84.999c24.667 21.333 52.667 32 84 32c92 0 138 -39 138 -117z" />
    <glyph glyph-name="uniFB67" unicode="&#x679;" horiz-adv-x="1616" arabic-form="final" 
d="M837 955c0 37.333 -11 56 -33 56c-9.33301 0 -20 -4.66699 -32 -14s-25.333 -22 -40 -38l-24 -35c-8 -12 -15 -23.333 -21 -34h119c8 0 15.667 5.66699 23 17c5.33301 8 8 24 8 48zM932 936c0 -20 -2.83008 -37.998 -8.49707 -53.998s-13.834 -30.667 -24.501 -44
c-24 -27.333 -55 -41 -93 -41h-258l-16 93h61v386h92v-236c20 22 39.167 38 57.5 48s36.166 15 53.499 15c22 0 41.167 -4.83301 57.5 -14.5s30.5 -23.167 42.5 -40.5c11.333 -16.667 20.166 -34.334 26.499 -53.001s9.5 -38.334 9.5 -59.001zM1588 119.002
c-70 0 -128.335 5.16699 -175.002 15.5s-84 26.5 -112 48.5c-58.667 -42.667 -113 -64 -163 -64h-886c-36 0 -70 8.66699 -102 26s-62 42.333 -90 75c-21.333 28 -38.166 59.833 -50.499 95.5s-18.5 74.5 -18.5 116.5v296h207v-271c0 -33.333 8 -56.833 24 -70.5
s44.667 -20.5 86 -20.5h781c38.667 0 65.334 6.83301 80.001 20.5s22 37.167 22 70.5v271h211v-271c0 -60.667 62 -91 186 -91v-247z" />
    <glyph glyph-name="uniFB68" unicode="&#x679;" horiz-adv-x="690" arabic-form="initial" 
d="M302 955c0 37.333 -10.667 56 -32 56c-19.333 0 -43.333 -17.333 -72 -52c-10 -11.333 -18.667 -22.833 -26 -34.5l-21 -34.5h121c6.66699 0 13.667 5.66699 21 17c6 9.33301 9 25.333 9 48zM398 936c0 -20 -3.00098 -38.333 -9.00098 -55s-14.667 -31.334 -26 -44.001
s-24.666 -22.5 -39.999 -29.5s-32.333 -10.5 -51 -10.5h-259l-17 93h63v386h90v-237c40 42.667 77.333 64 112 64c42 0 75.667 -18.333 101 -55c24 -35.333 36 -72.666 36 -111.999zM512.999 432c0 -41.333 -6.5 -80.001 -19.5 -116.001s-30.167 -68 -51.5 -96
c-25.333 -30.667 -54.666 -55.167 -87.999 -73.5s-68 -27.5 -104 -27.5h-294v247c191.333 0 293.666 2.33301 306.999 7c27.333 10 41 49 41 117v25c0 9.33301 -0.333008 20.333 -1 33v27c0 2 -0.166992 3.83301 -0.5 5.5s-0.5 3.16699 -0.5 4.5
c0 10.667 -0.166992 23.334 -0.5 38.001s-0.5 29.167 -0.5 43.5v38.5v23h212v-296z" />
    <glyph glyph-name="uniFB69" unicode="&#x679;" horiz-adv-x="689" arabic-form="medial" 
d="M302 955c0 37.333 -11.334 56 -34.001 56c-10 0 -20.833 -4.5 -32.5 -13.5s-24.834 -21.833 -39.501 -38.5c-9.33301 -10.667 -17.666 -22 -24.999 -34l-21 -35h120c6.66699 0 13.334 5 20.001 15c8 11.333 12 28 12 50zM395.999 936c0 -40 -11 -73.001 -33 -99.001
c-24.667 -26.667 -55.667 -40 -93 -40h-258l-17 93h62v386h91v-237c20 22 39.333 38.167 58 48.5s36.667 15.5 54 15.5c41.333 0 75.333 -18.333 102 -55c22.667 -35.333 34 -72.666 34 -111.999zM704.999 118.999l-73.998 -0.000976562
c-88.667 0 -161.334 21.667 -218.001 65c-28 -20 -55.833 -35.833 -83.5 -47.5s-53.167 -17.5 -76.5 -17.5h-296v247c93.333 0 165.166 1 215.499 3s80.833 4.66699 91.5 8c27.333 8.66699 41 46.334 41 113.001v26c0 10 -0.333008 21.333 -1 34v28
c0 2 -0.166992 3.5 -0.5 4.5s-0.5 2.16699 -0.5 3.5c0 10 -0.166992 22.333 -0.5 37s-0.5 29.167 -0.5 43.5v38.5v23h213v-271c0 -36 15.333 -60 46 -72c9.33301 -4.66699 26 -8.5 50 -11.5s55.333 -5.83301 94 -8.5v-246z" />
    <glyph glyph-name="uniFB6B" unicode="&#x6a4;" horiz-adv-x="1521" arabic-form="final" 
d="M1063 1070c0 -30.667 -12.333 -58 -37 -82c-12 -11.333 -25 -19.833 -39 -25.5s-29.667 -8.5 -47 -8.5c-34.667 0 -64.667 9.66699 -90 29c-29.333 22.667 -44 51.667 -44 87c0 72 41 108 123 108c89.333 0 134 -36 134 -108zM1400 1070
c0 -31.333 -12.6689 -59 -38.002 -83c-25.333 -22 -53.666 -33 -84.999 -33c-35.333 0 -65.666 9.66699 -90.999 29c-29.333 22.667 -44 51.667 -44 87c0 72 41 108 123 108c90 0 135 -36 135 -108zM1230 1319c0 -35.333 -12.667 -64 -38 -86
c-25.333 -21.333 -54.333 -32 -87 -32c-18 0 -34.833 3 -50.5 9s-29.5 14 -41.5 24c-26.667 20.667 -40 49 -40 85c0 72 40.667 108 122 108c90 0 135 -36 135 -108zM1203 518c0 12 -3.33301 24.834 -10 38.501s-15.667 27.5 -27 41.5l1 -1c-10 11.333 -22.5 20 -37.5 26
s-32.167 9 -51.5 9c-30 0 -54.667 -9.66699 -74 -29c-22.667 -22.667 -34 -43.334 -34 -62.001c0 -21.333 12.833 -44 38.5 -68s62.5 -47.667 110.5 -71c26 18 46.5 37 61.5 57s22.5 39.667 22.5 59zM1497 119.001c-193.333 0 -319.67 12.333 -379.003 37
c-11.333 -4.66699 -27.666 -9 -48.999 -13s-46.166 -7.33301 -74.499 -10s-59.333 -4.83398 -93 -6.50098s-68.5 -2.83398 -104.5 -3.50098c-14 -0.666992 -34.5 -1 -61.5 -1h-79.5h-97c-7.33301 0 -14.833 -0.166992 -22.5 -0.5s-15.5 -0.5 -23.5 -0.5l-279 -2
c-70.667 0 -131 34.667 -181 104c-41.333 57.333 -62 127 -62 209v296h208v-271c0 -60.667 35 -91 105 -91h519c-17.333 28.667 -29.833 58.5 -37.5 89.5s-11.5 64.5 -11.5 100.5c0 102 32.333 180 97 234c62.667 54 137.334 81 224.001 81c44 0 85 -9.66699 123 -29
s71.333 -46 100 -80c24.667 -30 44 -65.333 58 -106s21 -86.667 21 -138c0 -25.333 -3.16699 -51.666 -9.5 -78.999s-13.5 -51.666 -21.5 -72.999h131v-247z" />
    <glyph glyph-name="uniFB6C" unicode="&#x6a4;" horiz-adv-x="965" arabic-form="initial" 
d="M394 1178c0 -32 -12 -59.667 -36 -83c-23.333 -23.333 -51.333 -35 -84 -35c-17.333 0 -34 3 -50 9s-30 13.667 -42 23c-29.333 20 -44 48.667 -44 86c0 71.333 41 107 123 107c88.667 0 133 -35.667 133 -107zM562 1426c0 -16 -3.33203 -31.332 -9.99902 -45.999
s-15.667 -27.667 -27 -39c-12 -10 -25.333 -18 -40 -24s-30.334 -9 -47.001 -9c-17.333 0 -33.833 3.16699 -49.5 9.5s-29.5 14.166 -41.5 23.499c-12.667 10 -22.667 22.167 -30 36.5s-11 30.5 -11 48.5c0 72.667 40.667 109 122 109c89.333 0 134 -36.333 134 -109z
M734.001 1178c0 -17.333 -3.33398 -32.833 -10.001 -46.5s-15.667 -26.167 -27 -37.5c-26 -22.667 -55.333 -34 -88 -34c-16 0 -31.667 3 -47 9s-29.666 13.667 -42.999 23c-28.667 20 -43 48.667 -43 86c0 71.333 40.333 107 121 107c91.333 0 137 -35.667 137 -107z
M541 650.001c-13.333 72 -58 108 -134 108c-59.333 0 -89 -16.333 -89 -49c0 -26.667 9.33301 -44 28 -52c4 -1.33301 14.167 -2.5 30.5 -3.5s38.5 -1.83301 66.5 -2.5zM774 427.001c1.33301 -44.667 -4.83203 -85.168 -18.499 -121.501s-35.5 -68.5 -65.5 -96.5
c-65.333 -60 -134.666 -90 -207.999 -90h-524v247h525c35.333 0 58.666 16.333 69.999 49c-39.333 0.666992 -82.5 2.16699 -129.5 4.5s-94.167 5.83301 -141.5 10.5c-54.667 19.333 -95.667 51.5 -123 96.5s-41 102.167 -41 171.5c0 96.667 28 171.334 84 224.001
c59.333 58 131.333 87 216 87c34 0 67.167 -5.33301 99.5 -16s63.166 -25 92.499 -43c44 -29.333 79.167 -71.5 105.5 -126.5s41.833 -117.5 46.5 -187.5z" />
    <glyph glyph-name="uniFB6D" unicode="&#x6a4;" horiz-adv-x="895" arabic-form="medial" 
d="M387 1070c0 -31.333 -12 -58.667 -36 -82c-12 -11.333 -24.833 -19.833 -38.5 -25.5s-29.167 -8.5 -46.5 -8.5c-34 0 -64.333 9.66699 -91 29c-28.667 22.667 -43 51.667 -43 87c0 72 40.667 108 122 108c88.667 0 133 -36 133 -108zM728 1070c0 -31.333 -13 -59 -39 -83
c-11.333 -10 -24.5 -18 -39.5 -24s-30.833 -9 -47.5 -9c-34 0 -63.667 9.66699 -89 29c-29.333 22.667 -44 51.667 -44 87c0 72 41 108 123 108c90.667 0 136 -36 136 -108zM556 1319c0 -35.333 -12.665 -64 -37.998 -86c-24.667 -21.333 -53.334 -32 -86.001 -32
c-18.667 0 -35.834 3 -51.501 9s-29.5 14 -41.5 24c-27.333 20 -41 48.333 -41 85c0 72 41 108 123 108c90 0 135 -36 135 -108zM546.002 517.999c0 10 -3.50098 22.1709 -10.501 36.5039s-15.833 28.166 -26.5 41.499v-1c-10 11.333 -21.833 20.333 -35.5 27
s-29.167 10 -46.5 10c-35.333 0 -62.666 -9.66699 -81.999 -29c-22.667 -22 -34 -43.333 -34 -64c0 -22.667 13 -45.834 39 -69.501s62.667 -46.167 110 -67.5c27.333 21.333 48.5 42.166 63.5 62.499s22.5 38.166 22.5 53.499zM900.001 113.003
c-24 8 -63.001 12.002 -117.001 12.002l-170 3c-24.667 0.666992 -51 4.16699 -79 10.5s-53.667 15.166 -77 26.499c-34 -15.333 -92 -26.833 -174 -34.5s-190 -11.5 -324 -11.5v247h203c-15.333 26.667 -27.666 56.167 -36.999 88.5s-14 64.166 -14 95.499
c0 52 8.33301 97.667 25 137s40.334 71.666 71.001 96.999l-1 -1c66 58.667 142.333 88 229 88c44 0 84.667 -8.66699 122 -26s70.666 -42.666 99.999 -75.999c26 -30.667 46 -65.5 60 -104.5s21 -83.5 21 -133.5c0 -62 -10.667 -117 -32 -165h194v-253z" />
    <glyph glyph-name="uniFB7B" unicode="&#x686;" horiz-adv-x="1058" arabic-form="final" 
d="M944 -51c0 -70 -41.6641 -104.998 -124.997 -104.998c-88 0 -132 35 -132 105c0 17.333 3.16699 33.166 9.5 47.499s15.166 26.5 26.499 36.5s24.666 17.833 39.999 23.5s31.666 8.5 48.999 8.5c33.333 0 63.333 -9 90 -27c28 -22.667 42 -52.334 42 -89.001z
M610.003 -50.998c0 -70 -43.668 -105 -131.001 -105c-84 0 -126 35 -126 105c0 34.667 10.833 62.667 32.5 84s50.167 32 85.5 32c36.667 0 68.334 -9 95.001 -27c29.333 -23.333 44 -53 44 -89zM765.002 -303.998c0 -68.667 -40.667 -103 -122 -103
c-89.333 0 -134 34.333 -134 103c0 81.333 39.667 122 119 122c35.333 0 67 -10 95 -30c28 -21.333 42 -52 42 -92zM1078 119.002c-94 0 -168.33 12.6699 -222.997 38.0029s-90.667 62.333 -108 111c-0.666992 2 -2.33398 8.33301 -5.00098 19v-1v1
c-0.666992 0.666992 -1 1.66699 -1 3v1l-1 -1c-1.33301 4 -2.5 8 -3.5 12s-1.83301 6.66699 -2.5 8l-25 -14l-25 -14l-46.5 -26l-49.5 -27v1l-37.5 -20l-37.5 -21l-89 -49c-66.667 -40 -118.834 -83.833 -156.501 -131.5s-56.5 -97.167 -56.5 -148.5
c0 -75.333 33 -146.333 99 -213c63.333 -64 140.333 -96 231 -96h513l15 -241h-484c-182.667 0 -331.667 66.667 -447 200c-42 50.667 -73.833 105.167 -95.5 163.5s-32.5 121.5 -32.5 189.5v78c2.66699 0 4 -0.666992 4 -2c9.33301 88 35.5 164.167 78.5 228.5
s100.833 116.5 173.5 156.5c5.33301 3.33301 10.333 6.16602 15 8.49902s9.66699 5.16602 15 8.49902l116 61.5l111 59l110.5 59.5l114.5 63c-18 14 -41 24.667 -69 32l1 -1c-20.667 4 -69.667 7 -147 9c-27.333 1.33301 -68.5 2.5 -123.5 3.5s-119.167 1.83301 -192.5 2.5
l-31 241h431c121.333 0 213 -34.167 275 -102.5s94.333 -172.5 97 -312.5l-125 -72c17.333 -6.66699 43.666 -11.334 78.999 -14.001s80.333 -4 135 -4v-247z" />
    <glyph glyph-name="uniFB7C" unicode="&#x686;" horiz-adv-x="1116" arabic-form="initial" 
d="M692 -173c0 -66 -42.001 -98.999 -126.001 -98.999c-85.333 0 -128 33 -128 99c0 35.333 11.333 64.166 34 86.499s52.334 33.5 89.001 33.5c87.333 0 131 -40 131 -120zM360.999 -172.999c0 -66 -44 -98.999 -132 -98.999c-84 0 -126 33 -126 99
c0 35.333 11.167 64.166 33.5 86.499s50.833 33.5 85.5 33.5c38 0 70 -9 96 -27c28.667 -24 43 -55 43 -93zM519.999 -417.998c0 -70 -41.332 -104.999 -123.999 -104.999c-90 0 -135 35 -135 105c0 77.333 40 116 120 116c18 0 34.833 -2.33301 50.5 -7
s30.167 -11.334 43.5 -20.001c15.333 -11.333 26.666 -24.5 33.999 -39.5s11 -31.5 11 -49.5zM595 231.003c-44 -24.667 -92.334 -45.168 -145.001 -61.501s-102 -28.166 -148 -35.499c-23.333 -3.33301 -62 -6.16602 -116 -8.49902s-123.333 -4.5 -208 -6.5v247h153
c126.667 0 241 23.667 343 71c8 2.66699 35.167 16.834 81.5 42.501l184.5 104.5c-9.33301 6 -20.5 12 -33.5 18s-27.167 11 -42.5 15l2 -1c-10 1.33301 -52.333 3.16602 -127 5.49902s-182 5.16602 -322 8.49902l-34 241h442c120 0 210.333 -34.167 271 -102.5
s91.334 -172.5 92.001 -312.5z" />
    <glyph glyph-name="uniFB7D" unicode="&#x686;" horiz-adv-x="1029" arabic-form="medial" 
d="M718 -173c0 -68 -40.665 -102.001 -121.998 -102.001c-90.667 0 -136 34 -136 102c0 17.333 3.16699 33.333 9.5 48s15 27.334 26 38.001s24.167 19 39.5 25s31.666 9 48.999 9c18 0 34.667 -2.66699 50 -8s29.666 -13 42.999 -23c27.333 -22 41 -51.667 41 -89z
M381.002 -173.001c0 -68 -40.667 -102.001 -122 -102.001c-90 0 -135 34 -135 102c0 17.333 3.16699 33.333 9.5 48s15 27.334 26 38.001s24 19 39 25s31.167 9 48.5 9c89.333 0 134 -40 134 -120zM544.002 -418.002c0 -70 -42 -105 -126 -105c-88.667 0 -133 35 -133 105
c0 76.667 40.667 115 122 115c91.333 0 137 -38.333 137 -115zM1049 118.998c-81.333 0 -146.665 11.8359 -195.998 35.5029s-82.666 56.167 -99.999 97.5c0 1.33301 -1.16699 4.66602 -3.5 9.99902s-4.16602 9.66602 -5.49902 12.999
c-0.666992 1.33301 -1.33398 2.83301 -2.00098 4.5s-1 4.16699 -1 7.5c-0.666992 4.66699 -2.33398 10 -5.00098 16l-1 3c-34 -20 -67.5 -38.5 -100.5 -55.5l-93 -46c-29 -13.667 -55.667 -25.167 -80 -34.5s-45.5 -16.333 -63.5 -21
c-34 -8.66699 -85.5 -15.334 -154.5 -20.001s-156.833 -8 -263.5 -10v247h153c58 0 115.333 6 172 18s111 28.667 163 50v-1l32 16.5l52.5 28l79 43.5l110.5 63c-19.333 14 -45 25.333 -77 34c-4.66699 2 -36.334 3 -95.001 3c-10 0.666992 -30.833 1.33398 -62.5 2.00098
s-72.5 1.66699 -122.5 3c-22 0.666992 -48.333 1.16699 -79 1.5s-60.334 1.16602 -89.001 2.49902l-31 241h440c120 0 209.833 -34.667 269.5 -104s90.834 -174 93.501 -314l-132 -73c14 -5.33301 36.667 -9 68 -11s72.666 -3 123.999 -3v-247z" />
    <glyph glyph-name="uniFB89" unicode="&#x688;" horiz-adv-x="1090" arabic-form="final" 
d="M302 1206c0 38 -11.333 57 -34 57c-18.667 0 -42.334 -17.333 -71.001 -52c-9.33301 -10.667 -17.666 -22.167 -24.999 -34.5l-21 -35.5h119c6 0 13.333 6.33301 22 19c6.66699 8.66699 10 24 10 46zM396 1187c0 -19.333 -3.16895 -37.333 -9.50195 -54
s-14.166 -30.667 -23.499 -42c-12 -13.333 -25.667 -23.5 -41 -30.5s-32.666 -10.5 -51.999 -10.5h-257l-17 91h62v387h91v-235c39.333 42.667 76.333 64 111 64c40.667 0 74.667 -19.333 102 -58c22.667 -34 34 -71.333 34 -112zM1109 119l-93.9971 -0.00195312
c-30.667 0 -63.834 9.83301 -99.501 29.5s-72.834 47.167 -111.501 82.5c-58 -74.667 -133 -112 -225 -112h-537l-38 247h563c47.333 0 71 8 71 24c0 10 -7 22 -21 36l-404 430l156 156l520 -550c18.667 -20 34.667 -36.167 48 -48.5s25.666 -21.166 36.999 -26.499
c12.667 -7.33301 30 -12.666 52 -15.999s49.667 -5 83 -5v-247z" />
    <glyph glyph-name="uniFB8B" unicode="&#x698;" horiz-adv-x="700" arabic-form="final" 
d="M538 1168c0 -34.667 -12 -63.001 -36 -85.001c-23.333 -21.333 -52 -32 -86 -32c-36 0 -67.333 10.333 -94 31c-26.667 22.667 -40 51.334 -40 86.001c0 68.667 40.333 103 121 103c90 0 135 -34.333 135 -103zM710 920.999c0 -17.333 -3.50098 -33.499 -10.501 -48.499
s-16.167 -28.167 -27.5 -39.5c-11.333 -10 -24 -18 -38 -24s-28.667 -9 -44 -9c-18 0 -34.667 3 -50 9s-29.666 14 -42.999 24c-29.333 23.333 -44 52.666 -44 87.999c0 68.667 41.333 103 124 103c88.667 0 133 -34.333 133 -103zM371.999 921
c0 -16.667 -3.33301 -32.5 -10 -47.5s-15.667 -28.167 -27 -39.5c-11.333 -10 -24.5 -18.167 -39.5 -24.5s-30.167 -9.5 -45.5 -9.5c-36.667 0 -67.667 10.667 -93 32c-28 23.333 -42 53 -42 89c0 68.667 42 103 126 103c87.333 0 131 -34.333 131 -103zM724.999 119
c-40 0 -74.668 4.66602 -104.001 13.999s-54.666 23.333 -75.999 42c-5.33301 -62 -17.333 -119.333 -36 -172s-43 -99.667 -73 -141c-40.667 -53.333 -89.5 -94.666 -146.5 -123.999s-120.5 -44 -190.5 -44h-232l-41 247h264c32 0 62.667 5 92 15s55 24 77 42
c23.333 22 41.833 45.833 55.5 71.5s20.5 51.167 20.5 76.5v582h210v-282c0 -49.333 60 -76 180 -80v-247z" />
    <glyph glyph-name="uniFB8D" unicode="&#x691;" horiz-adv-x="700" arabic-form="final" 
d="M550 975c0 37.333 -10.666 56 -31.999 56c-20.667 0 -44.667 -17.333 -72 -52c-9.33301 -10.667 -17.833 -22 -25.5 -34l-21.5 -35h120c7.33301 0 14.666 5.66699 21.999 17c6 9.33301 9 25.333 9 48zM644.001 956c0 -20 -2.49902 -38.168 -7.49902 -54.501
s-13.167 -31.166 -24.5 -44.499c-23.333 -26.667 -54.333 -40 -93 -40h-257l-20 93h63v386h93v-236c20.667 22 40 38 58 48s35.667 15 53 15c41.333 0 74.666 -18.333 99.999 -55c23.333 -34.667 35 -72 35 -112zM725.002 118.999c-40 0 -74.668 4.66602 -104.001 13.999
s-54.666 23.333 -75.999 42c-5.33301 -62 -17.333 -119.333 -36 -172s-43 -99.667 -73 -141c-40.667 -53.333 -89.5 -94.666 -146.5 -123.999s-120.5 -44 -190.5 -44h-232l-41 247h264c32 0 62.667 5 92 15s55 24 77 42c23.333 22 41.833 45.833 55.5 71.5
s20.5 51.167 20.5 76.5v582h210v-282c0 -49.333 60 -76 180 -80v-247z" />
    <glyph glyph-name="uniFB8F" unicode="&#x6a9;" horiz-adv-x="1682" arabic-form="final" 
d="M1651 119c-30 0 -59.167 2.99902 -87.5 8.99902s-55.166 14 -80.499 24s-48.833 22 -70.5 36s-40.834 29 -57.501 45c-42 -76 -115.333 -114 -220 -114h-881c-36 0 -70.5 8.83301 -103.5 26.5s-62.833 42.5 -89.5 74.5c-20.667 26.667 -37.334 58.167 -50.001 94.5
s-19 75.5 -19 117.5v296h208v-271c0 -32.667 7.83301 -56 23.5 -70s43.834 -21 84.501 -21h822c40.667 0 61 7.66699 61 23c0 8 -11 24 -33 48v-1l-70 74l-70 74l-33 35l-33 35l-117 124.5l-117 122.5l-40 240l660 237l34 -239l-407 -153l64 -70.5l64 -71.5
c5.33301 -5.33301 10.5 -11 15.5 -17s10.167 -11.667 15.5 -17l114 -126l113 -125l20.5 -22.5l20.5 -22.5l48.5 -50.5l50.5 -50.5c1.33301 -1.33301 3 -3.66602 5 -6.99902s3.66699 -6 5 -8l5 -5l5 -5l-1 4c14 -12.667 61 -21.667 141 -27v-246z" />
    <glyph glyph-name="uniFB90" unicode="&#x6a9;" horiz-adv-x="969" arabic-form="initial" 
d="M778 389c0 -180 -92.665 -270 -277.998 -270h-542v247h542c32 0 48 13.667 48 41c0 5.33301 -1.33301 10.333 -4 15s-6.33398 9.66699 -11.001 15v-1l-221 232.5l-221 232.5l-32 240l655 237l34 -239l-404 -153c4 -5.33301 8.33301 -10.5 13 -15.5l14 -15.5l53.5 -58.5
l53.5 -58.5l53 -60l53 -59l34 -37.5l33 -36.5h-1c11.333 -12.667 25 -30.5 41 -53.5s34 -50.5 54 -82.5c11.333 -19.333 19.666 -38.833 24.999 -58.5s8 -40.167 8 -61.5z" />
    <glyph glyph-name="uniFB91" unicode="&#x6a9;" horiz-adv-x="1037" arabic-form="medial" 
d="M1036 119c-70.667 0 -133.333 10.334 -188 31.001s-99.334 48.667 -134.001 84c-44 -76.667 -122.667 -115 -236 -115h-518v247h519c32 0 48 15.667 48 47c0 7.33301 -4 15.333 -12 24v-1l-219.5 232l-220.5 232l-42 241l662 237l31 -239l-409 -153l42 -47.5l43 -46.5
l54 -59l55 -59l58 -63l60.5 -66l60 -65.5l56.5 -62.5c22.667 -25.333 44 -47.833 64 -67.5s37 -34.834 51 -45.501l-1 2c19.333 -11.333 43.833 -20.5 73.5 -27.5s63.834 -11.167 102.501 -12.5v-247z" />
    <glyph glyph-name="uniFB93" unicode="&#x6af;" horiz-adv-x="1682" arabic-form="final" 
d="M1314 1454l-630 -226l-12 88l637 226zM1651 119c-30 0 -59.167 2.99902 -87.5 8.99902s-55.166 14 -80.499 24s-48.833 22 -70.5 36s-40.834 29 -57.501 45c-42 -76 -115.333 -114 -220 -114h-881c-36 0 -70.5 8.83301 -103.5 26.5s-62.833 42.5 -89.5 74.5
c-20.667 26.667 -37.334 58.167 -50.001 94.5s-19 75.5 -19 117.5v296h208v-271c0 -32.667 7.83301 -56 23.5 -70s43.834 -21 84.501 -21h822c40.667 0 61 7.66699 61 23c0 8 -11 24 -33 48v-1l-70 74l-70 74l-33 35l-33 35l-117 124.5l-117 122.5l-40 240l660 237l34 -239
l-407 -153l64 -70.5l64 -71.5c5.33301 -5.33301 10.5 -11 15.5 -17s10.167 -11.667 15.5 -17l114 -126l113 -125l20.5 -22.5l20.5 -22.5l48.5 -50.5l50.5 -50.5c1.33301 -1.33301 3 -3.66602 5 -6.99902s3.66699 -6 5 -8l5 -5l5 -5l-1 4c14 -12.667 61 -21.667 141 -27v-246
z" />
    <glyph glyph-name="uniFB94" unicode="&#x6af;" horiz-adv-x="969" arabic-form="initial" 
d="M670 1454l-632 -226l-12 88l638 226zM778 389c0 -180 -92.665 -270 -277.998 -270h-542v247h542c32 0 48 13.667 48 41c0 5.33301 -1.33301 10.333 -4 15s-6.33398 9.66699 -11.001 15v-1l-221 232.5l-221 232.5l-32 240l655 237l34 -239l-404 -153
c4 -5.33301 8.33301 -10.5 13 -15.5l14 -15.5l53.5 -58.5l53.5 -58.5l53 -60l53 -59l34 -37.5l33 -36.5h-1c11.333 -12.667 25 -30.5 41 -53.5s34 -50.5 54 -82.5c11.333 -19.333 19.666 -38.833 24.999 -58.5s8 -40.167 8 -61.5z" />
    <glyph glyph-name="uniFB95" unicode="&#x6af;" horiz-adv-x="1037" arabic-form="medial" 
d="M675 1454l-630 -226l-14 88l640 226zM1036 119c-70.667 0 -133.333 10.334 -188 31.001s-99.334 48.667 -134.001 84c-44 -76.667 -122.667 -115 -236 -115h-518v247h519c32 0 48 15.667 48 47c0 7.33301 -4 15.333 -12 24v-1l-219.5 232l-220.5 232l-42 241l662 237
l31 -239l-409 -153l42 -47.5l43 -46.5l54 -59l55 -59l58 -63l60.5 -66l60 -65.5l56.5 -62.5c22.667 -25.333 44 -47.833 64 -67.5s37 -34.834 51 -45.501l-1 2c19.333 -11.333 43.833 -20.5 73.5 -27.5s63.834 -11.167 102.501 -12.5v-247z" />
    <glyph glyph-name="uniFB9F" unicode="&#x6ba;" horiz-adv-x="1319" arabic-form="final" 
d="M1305 119c-84 0 -147 18 -189 54c-10 -125.333 -44.667 -229 -104 -311c-84 -112 -196.667 -168 -338 -168h-261c-58.667 0 -112.667 11.833 -162 35.5s-96 59.5 -140 107.5c-40 44.667 -70.333 94.334 -91 149.001s-31 115 -31 181v391h206v-412
c0 -26 6.83301 -51.833 20.5 -77.5s33.167 -49.167 58.5 -70.5h-1c22 -18.667 48 -32.834 78 -42.501s62 -14.5 96 -14.5h217c34 0 65.167 5.33301 93.5 16s54.166 25.667 77.499 45v-1c22.667 20.667 40.334 43.5 53.001 68.5s19 50.5 19 76.5v582h207v-282
c0 -52 63.667 -78.667 191 -80v-247z" />
    <glyph glyph-name="uniFBA7" unicode="&#x6c1;" horiz-adv-x="810" arabic-form="final" 
d="M837 119l-46.002 -0.00292969c-32 0 -63.167 4 -93.5 12s-57.5 19.333 -81.5 34c-12 7.33301 -29.667 22.333 -53 45s-51.666 52.334 -84.999 89.001c-15.333 22 -31.333 38.5 -48 49.5s-33 16.5 -49 16.5c-26 0 -52.167 -17 -78.5 -51s-52.166 -86 -77.499 -156
c-10.667 -20.667 -22.5 -41.167 -35.5 -61.5s-26.167 -38.666 -39.5 -54.999s-26.333 -29.666 -39 -39.999s-24 -15.5 -34 -15.5c-3.33301 0 -8.83301 1.66699 -16.5 5s-15.334 8 -23.001 14s-14.5 13.5 -20.5 22.5s-9 19.167 -9 30.5c0 12.667 4.5 28.667 13.5 48
s20.5 41.833 34.5 67.5l46 87c16.667 32.333 32.667 67.5 48 105.5c42 102.667 83.5 178.667 124.5 228s81.5 74 121.5 74c34.667 0 72 -22.333 112 -67c46.667 -52 87.834 -95.833 123.501 -131.5s62.167 -61.167 79.5 -76.5l-2 2c8.66699 -5.33301 20 -10.833 34 -16.5
s28.667 -10.167 44 -13.5l-3 1h53v-247z" />
    <glyph glyph-name="uniFBA8" unicode="&#x6c1;" horiz-adv-x="1103" arabic-form="initial" 
d="M639 102c-34 0 -71.168 12.001 -111.501 36.001s-79.166 55 -116.499 93c-34.667 -38 -70.667 -66.167 -108 -84.5s-75 -27.5 -113 -27.5h-231v247h220c64 0 96 29.333 96 88v202h207v-215c0 -24 12 -48 36 -72v1c10 -10 22.5 -17.333 37.5 -22s31.833 -7 50.5 -7
c32 0 56.5 5.66699 73.5 17s25.5 27.666 25.5 48.999v321h201v-287c0 -23.333 -4 -52.5 -12 -87.5s-20.667 -77.167 -38 -126.5zM750.999 -326.999c0 -68.667 -41.334 -102.999 -124.001 -102.999c-50 0 -83.333 13.333 -100 40c-12 20.667 -18 55 -18 103
c0 41.333 2.16699 78.5 6.5 111.5s9.83301 59.167 16.5 78.5c12 32 32.333 57.833 61 77.5s64.334 31.167 107.001 34.5v-75c-43.333 -2.66699 -73.333 -21.334 -90 -56.001c-8 -18 -13 -50.667 -15 -98c50 -2 88.5 -12.333 115.5 -31s40.5 -46 40.5 -82z" />
    <glyph glyph-name="uniFBA9" unicode="&#x6c1;" horiz-adv-x="844" arabic-form="medial" 
d="M869 119l-159.999 -0.000976562c15.333 -28 26.666 -59.333 33.999 -94s11 -73 11 -115c0 -77.333 -23.333 -137.5 -70 -180.5s-118.334 -69.167 -215.001 -78.5c-201.333 18 -312 124.667 -332 320l-16 148h-146v247h155c62 -2.66699 108.167 -21.667 138.5 -57
s46.166 -86.333 47.499 -153c-0.666992 -12.667 -1.16699 -24 -1.5 -34s-0.5 -20.667 -0.5 -32c0 -121.333 33.667 -188.666 101 -201.999c23.333 -8 45.333 -12 66 -12c32.667 0 59.334 9.33301 80.001 28l-1 -6c10.667 16 16 29.667 16 41c0 44 -37.333 108 -112 192
c-13.333 24 -23.666 46.167 -30.999 66.5s-11 39.833 -11 58.5c0 74 47.333 111 142 111h19.5c7 0 14.167 -0.333008 21.5 -1h264v-247z" />
    <glyph glyph-name="uniFBAC" unicode="&#x6be;" horiz-adv-x="1254" arabic-form="initial" 
d="M852 371c0 20.667 -10.667 48.168 -32 82.501s-54 76.166 -98 125.499c1.33301 -7.33301 2 -14.5 2 -21.5v-21.5c0 -94 -19.667 -163 -59 -207c17.333 -6.66699 34.333 -12 51 -16s33 -6 49 -6c58 0 87 21.333 87 64zM522 546.001c0 24 -11.998 45.333 -35.998 64
c-20.667 18.667 -49.667 28 -87 28c-26.667 0 -45.334 -7.33301 -56.001 -22c-8.66699 -9.33301 -14.667 -18.833 -18 -28.5s-5 -19.5 -5 -29.5c0 -24.667 9.66699 -47.167 29 -67.5s47 -38.5 83 -54.5c29.333 14.667 51.666 31.167 66.999 49.5s23 38.5 23 60.5z
M1071 383.001c0 -42.667 -7.66992 -83.332 -23.0029 -121.999s-37.666 -74 -66.999 -106c-31.333 -33.333 -64.166 -58.833 -98.499 -76.5s-70.166 -26.5 -107.499 -26.5c-44.667 0 -96.334 10.667 -155.001 32s-123.334 53 -194.001 95
c-37.333 -17.333 -76.166 -30.833 -116.499 -40.5s-81.5 -14.834 -123.5 -15.501c-15.333 0 -30.666 -0.166992 -45.999 -0.5s-31 -0.833008 -47 -1.5c-7.33301 0 -15.333 -0.166992 -24 -0.5s-17.667 -0.5 -27 -0.5s-20 -0.166992 -32 -0.5s-21.667 -0.833008 -29 -1.5v248
h194c-18.667 32 -32 63.5 -40 94.5s-12 63.5 -12 97.5c0 93.333 27 168 81 224c58 60 128.333 90 211 90c19.333 0 38 -2.33301 56 -7l161 148c292.667 -278.667 439 -488.667 439 -630z" />
    <glyph glyph-name="uniFBAD" unicode="&#x6be;" horiz-adv-x="844" arabic-form="medial" 
d="M575 -36c0 46.667 -31.6689 87.6689 -95.002 123.002c-23.333 13.333 -49.166 24.166 -77.499 32.499s-57.166 13.166 -86.499 14.499c4.66699 -76 19.5 -134.333 44.5 -175s59.833 -61 104.5 -61c73.333 0 110 22 110 66zM538.998 561.002
c0 49.333 -31 73.999 -93 73.999c-93.333 0 -140 -58.333 -140 -175v-7v-13.5c0 -6.33301 0.333008 -15.166 1 -26.499s1.66699 -27 3 -47c29.333 1.33301 56.833 7 82.5 17s49.167 22.667 70.5 38v-1c24.667 21.333 43.5 43.833 56.5 67.5s19.5 48.167 19.5 73.5z
M868.998 119.001l-171.999 0.00195312c19.333 -27.333 33.666 -58.5 42.999 -93.5s14 -73.5 14 -115.5c0 -78.667 -21.833 -137.167 -65.5 -175.5s-111.167 -57.5 -202.5 -57.5c-106.667 0 -189 24.167 -247 72.5s-92 122.166 -102 221.499l-16 148h-146v247h132
c-3.33301 44 -5.33301 78.667 -6 104s-1 40 -1 44c0 237.333 110.667 356 332 356c88 0 161 -27 219 -81v1c58 -50.667 87 -127.334 87 -230.001c0 -38 -4.33301 -73 -13 -105s-22.667 -61.667 -42 -89h186v-247z" />
    <glyph glyph-name="uniFBAF" unicode="&#x6d2;" horiz-adv-x="2102" arabic-form="final" 
d="M273 -546c-44 0.666992 -83.166 8.33105 -117.499 22.998s-63.333 35.334 -87 62.001s-41.834 58.834 -54.501 96.501s-19 79.5 -19 125.5v156c0 127.333 23 220.833 69 280.5s116.333 89.5 211 89.5c36 0 71.167 8.33301 105.5 25s64.833 39 91.5 67v-1
c22.667 24 44.667 43 66 57s40.666 21 57.999 21c20 0 41.667 -10 65 -30l-5 8c166.667 -22.667 349.834 -39.667 549.501 -51s418.834 -17 657.501 -17h185v-247h-107c-14.667 0 -31.167 -0.166992 -49.5 -0.5s-36.833 -0.5 -55.5 -0.5h-53h-42
c-210.667 0 -403.167 2.66699 -577.5 8s-330.5 13.666 -468.5 24.999c-14.667 14 -27.834 24 -39.501 30s-22.834 9 -33.501 9c-16.667 0 -31.334 -4.5 -44.001 -13.5s-25.667 -20.167 -39 -33.5l-38 -34.5c-13.333 -11.667 -27.666 -22.5 -42.999 -32.5
s-31.833 -18.5 -49.5 -25.5s-37.167 -11.167 -58.5 -12.5c-30.667 0 -55.5 -1.33301 -74.5 -4s-33.833 -8.16699 -44.5 -16.5s-18 -20.666 -22 -36.999s-6 -37.833 -6 -64.5v-144c0 -30.667 9.66699 -51.667 29 -63c5.33301 -4 17.833 -6.66699 37.5 -8s45.834 -2 78.501 -2
l1703 -3v-241z" />
    <glyph glyph-name="uniFBB1" unicode="&#x6d3;" horiz-adv-x="2102" arabic-form="final" 
d="M656 797l-325.003 -166l-38 86l83 46c-21.333 17.333 -38.166 36.5 -50.499 57.5s-18.5 43.833 -18.5 68.5c0 22.667 3.83301 43.834 11.5 63.501s18.5 37.167 32.5 52.5c16 17.333 33.333 29.833 52 37.5s39.334 11.5 62.001 11.5c10 0 24.333 -2.83301 43 -8.5
s41.334 -13.5 68.001 -23.5l-45 -85c-13.333 11.333 -24.333 19.166 -33 23.499s-15.667 6.5 -21 6.5c-51.333 0 -77 -26 -77 -78c0 -39.333 19.333 -59 58 -59c31.333 0 82.333 19.667 153 59zM272.997 -546c-44 0.666992 -83.166 8.33105 -117.499 22.998
s-63.333 35.334 -87 62.001s-41.834 58.834 -54.501 96.501s-19 79.5 -19 125.5v156c0 127.333 23 220.833 69 280.5s116.333 89.5 211 89.5c36 0 71.167 8.33301 105.5 25s64.833 39 91.5 67v-1c22.667 24 44.667 43 66 57s40.666 21 57.999 21c20 0 41.667 -10 65 -30
l-5 8c166.667 -22.667 349.834 -39.667 549.501 -51s418.834 -17 657.501 -17h185v-247h-107c-14.667 0 -31.167 -0.166992 -49.5 -0.5s-36.833 -0.5 -55.5 -0.5h-53h-42c-210.667 0 -403.167 2.66699 -577.5 8s-330.5 13.666 -468.5 24.999
c-14.667 14 -27.834 24 -39.501 30s-22.834 9 -33.501 9c-16.667 0 -31.334 -4.5 -44.001 -13.5s-25.667 -20.167 -39 -33.5l-38 -34.5c-13.333 -11.667 -27.666 -22.5 -42.999 -32.5s-31.833 -18.5 -49.5 -25.5s-37.167 -11.167 -58.5 -12.5
c-30.667 0 -55.5 -1.33301 -74.5 -4s-33.833 -8.16699 -44.5 -16.5s-18 -20.666 -22 -36.999s-6 -37.833 -6 -64.5v-144c0 -30.667 9.66699 -51.667 29 -63c5.33301 -4 17.833 -6.66699 37.5 -8s45.834 -2 78.501 -2l1703 -3v-241z" />
    <glyph glyph-name="uniFBD4" unicode="&#x6ad;" horiz-adv-x="1500" arabic-form="final" 
d="M1120 1442c0 -31.333 -12.001 -59 -36.001 -83c-23.333 -22.667 -51.666 -34 -84.999 -34c-36 0 -66 9.66699 -90 29c-29.333 22.667 -44 52 -44 88c0 71.333 40.667 107 122 107c88.667 0 133 -35.667 133 -107zM1288 1690c0 -34.667 -12.667 -63.001 -38 -85.001
c-24.667 -21.333 -53.334 -32 -86.001 -32c-18 0 -35.167 3 -51.5 9s-30.166 14 -41.499 24h1c-13.333 10 -23.5 21.833 -30.5 35.5s-10.5 29.834 -10.5 48.501c0 72 40.667 108 122 108c90 0 135 -36 135 -108zM1460 1442c0 -17.333 -3.33203 -32.833 -9.99902 -46.5
s-16.334 -26.167 -29.001 -37.5c-24 -22 -52.667 -33 -86 -33c-34.667 0 -64.667 9.66699 -90 29c-29.333 22.667 -44 52 -44 88c0 71.333 41 107 123 107c90.667 0 136 -35.667 136 -107zM547 667.999c34 4 58.998 7.16602 74.998 9.49902s26 4.16602 30 5.49902
c-2.66699 -0.666992 -6.66699 -0.833984 -12 -0.500977s-11 1.16602 -17 2.49902c-1.33301 0 -2.66602 0.166992 -3.99902 0.5s-2.66602 0.5 -3.99902 0.5c-10.667 1.33301 -22 3 -34 5s-22.667 4.5 -32 7.5s-17.166 6.66699 -23.499 11s-9.5 9.83301 -9.5 16.5
c0 20.667 5 39.834 15 57.501s23.667 34.167 41 49.5s37.666 29.5 60.999 42.5s48.666 24.833 75.999 35.5l21 -79c-11.333 -4.66699 -20.333 -8 -27 -10s-13 -4 -19 -6c-3.33301 -1.33301 -6.66602 -2.16602 -9.99902 -2.49902s-6.66602 -1.16602 -9.99902 -2.49902h1
c-1.33301 -0.666992 -2.83301 -1.33398 -4.5 -2.00098s-3.16699 -1.33398 -4.5 -2.00098c-8 -2.66699 -14.833 -4.66699 -20.5 -6s-8.83398 -0.666016 -9.50098 2.00098c0.666992 -5.33301 7 -9.83301 19 -13.5s28.333 -7.16699 49 -10.5
c28 -3.33301 49.5 -9.66602 64.5 -18.999s22.5 -21.333 22.5 -36c0 -10.667 -4.83301 -23 -14.5 -37s-23 -27.167 -40 -39.5s-37 -22.666 -60 -30.999s-47.833 -12.5 -74.5 -12.5c-22 0 -45.5 2.83301 -70.5 8.5s-53.833 13.5 -86.5 23.5l2 19
c9.33301 1.33301 18.833 2.33301 28.5 3s18.167 1.66699 25.5 3l15.5 2l15.5 2c4.66699 0.666992 9 1.16699 13 1.5s8 0.833008 12 1.5zM1477 118.998h-69.9961c-51.333 0 -97.5 5.5 -138.5 16.5s-76.167 27.167 -105.5 48.5c-42 -32.667 -76.333 -52 -103 -58h1
c-7.33301 -2 -15.833 -3.33301 -25.5 -4s-21.5 -1.33398 -35.5 -2.00098h-12c-2.66699 0 -5.16699 -0.166992 -7.5 -0.5s-4.83301 -0.5 -7.5 -0.5h-720c-36 0 -69.833 7.83301 -101.5 23.5s-59.334 37.334 -83.001 65.001s-42.5 60.667 -56.5 99s-21 80.166 -21 125.499v296
h208v-271c0 -32.667 7.66699 -56 23 -70s42.666 -21 81.999 -21h656c46 2 73 10.667 81 26c10 15.333 15 48 15 98v787h208v-820c0 -19.333 3.66699 -35.666 11 -48.999s17.666 -23.333 30.999 -30l-1 1c11.333 -4.66699 68.666 -9 171.999 -13v-247z" />
    <glyph glyph-name="uniFBD5" unicode="&#x6ad;" horiz-adv-x="969" arabic-form="initial" 
d="M300 1525c0 -31.333 -12 -59 -36 -83c-24.667 -23.333 -53 -35 -85 -35c-34.667 0 -65 10 -91 30c-28.667 22.667 -43 52 -43 88c0 71.333 40.667 107 122 107c88.667 0 133 -35.667 133 -107zM640 1525c0 -32.667 -12.666 -60.667 -37.999 -84
c-12 -10.667 -25.333 -19 -40 -25s-30.334 -9 -47.001 -9c-34 0 -64 10 -90 30c-28.667 22.667 -43 52 -43 88c0 71.333 40.667 107 122 107c90.667 0 136 -35.667 136 -107zM469.001 1773c0 -34 -13 -62.6689 -39 -86.002c-24 -20.667 -52.333 -31 -85 -31
c-18.667 0 -35.834 3 -51.501 9s-29.5 13.667 -41.5 23c-13.333 10.667 -23.666 22.834 -30.999 36.501s-11 29.834 -11 48.501c0 72 41.333 108 124 108c90 0 135 -36 135 -108zM778.001 388.998c0 -180 -92.665 -270 -277.998 -270h-542v247h542c32 0 48 13.667 48 41
c0 5.33301 -1.33301 10.333 -4 15s-6.33398 9.66699 -11.001 15v-1l-221 232.5l-221 232.5l-32 240l655 237l34 -239l-404 -153c4 -5.33301 8.33301 -10.5 13 -15.5l14 -15.5l53.5 -58.5l53.5 -58.5l53 -60l53 -59l34 -37.5l33 -36.5h-1c11.333 -12.667 25 -30.5 41 -53.5
s34 -50.5 54 -82.5c11.333 -19.333 19.666 -38.833 24.999 -58.5s8 -40.167 8 -61.5z" />
    <glyph glyph-name="uniFBD6" unicode="&#x6ad;" horiz-adv-x="1037" arabic-form="medial" 
d="M302 1525c0 -31.333 -12 -59 -36 -83c-24.667 -23.333 -53 -35 -85 -35c-34 0 -64 10 -90 30c-28.667 22 -43 51.333 -43 88c0 71.333 40.333 107 121 107c88.667 0 133 -35.667 133 -107zM642 1525c0 -17.333 -3.33203 -32.833 -9.99902 -46.5s-16 -26.167 -28 -37.5
c-12 -10.667 -25.333 -19 -40 -25s-30.334 -9 -47.001 -9c-34 0 -64 10 -90 30c-28.667 22.667 -43 52 -43 88c0 71.333 40.667 107 122 107c90.667 0 136 -35.667 136 -107zM471.001 1773c0 -34 -13.001 -62.6689 -39.001 -86.002c-24 -20.667 -52.667 -31 -86 -31
c-18 0 -35 3 -51 9s-29.667 13.667 -41 23c-13.333 10.667 -23.666 22.834 -30.999 36.501s-11 29.834 -11 48.501c0 72 41.333 108 124 108c90 0 135 -36 135 -108zM1036 118.998c-70.667 0 -133.333 10.334 -188 31.001s-99.334 48.667 -134.001 84
c-44 -76.667 -122.667 -115 -236 -115h-518v247h519c32 0 48 15.667 48 47c0 7.33301 -4 15.333 -12 24v-1l-219.5 232l-220.5 232l-42 241l662 237l31 -239l-409 -153l42 -47.5l43 -46.5l54 -59l55 -59l58 -63l60.5 -66l60 -65.5l56.5 -62.5
c22.667 -25.333 44 -47.833 64 -67.5s37 -34.834 51 -45.501l-1 2c19.333 -11.333 43.833 -20.5 73.5 -27.5s63.834 -11.167 102.501 -12.5v-247z" />
    <glyph glyph-name="uniFBD8" unicode="&#x6c7;" horiz-adv-x="802" arabic-form="final" 
d="M245 1258c0 19.333 -4.33301 35.666 -13 48.999c-8 12.667 -21 19 -39 19c-20 0 -32.333 -5.33301 -37 -16c-5.33301 -12 -8 -30.667 -8 -56c0 -12 2.83301 -22.333 8.5 -31s12.834 -15 21.501 -19c5.33301 -1.33301 14.166 -2.66602 26.499 -3.99902
s25.833 -2.33301 40.5 -3v61zM403 1101l-59.002 0.000976562c-2 -26 -8 -50.333 -18 -73s-23.667 -42.667 -41 -60c-19.333 -17.333 -41.333 -31 -66 -41s-51.334 -15 -80.001 -15h-105l-12 97h106c30 0 55.5 8.16699 76.5 24.5s33.167 38.833 36.5 67.5
c-26.667 1.33301 -51.667 4.16602 -75 8.49902s-41.666 10.5 -54.999 18.5c-18 12.667 -32.833 30 -44.5 52s-17.5 47.667 -17.5 77c0 67.333 15.667 114 47 140c20.667 17.333 53 26 97 26c64.667 0 108.334 -27.333 131.001 -82c5.33301 -14 9.83301 -35 13.5 -63
s5.83398 -57.667 6.50098 -89zM503.998 490.001c0 17.333 -2.33203 33.999 -6.99902 49.999s-12.334 31.667 -23.001 47v-2c-10 13.333 -22.333 23.5 -37 30.5s-32.667 10.5 -54 10.5c-46.667 0 -76 -10.667 -88 -32v3c-5.33301 -13.333 -9.5 -29.666 -12.5 -48.999
s-4.5 -42.333 -4.5 -69c0 -48.667 25 -81.667 75 -99c11.333 -4.66699 30.333 -8 57 -10s58 -3.33301 94 -4v124zM828.999 119l-115.999 0.00292969c-5.33301 -58.667 -18.833 -113.334 -40.5 -164.001s-50.167 -94 -85.5 -130c-44.667 -42 -94.334 -74.333 -149.001 -97
s-113.334 -34 -176.001 -34h-230l-35 247h238c78.667 0 140.334 20.333 185.001 61c18 16 33.333 34.333 46 55s22 41.334 28 62.001c-60.667 2 -116.667 8.16699 -168 18.5s-93 24.833 -125 43.5c-45.333 28 -79.666 67.167 -102.999 117.5s-35 112.166 -35 185.499
c0 157.333 35.667 266.333 107 327c23.333 19.333 52.666 34.166 87.999 44.499s77 15.5 125 15.5c69.333 0 128.5 -16.667 177.5 -50s86.167 -80 111.5 -140v-1c13.333 -31.333 23.5 -73.833 30.5 -127.5s11.5 -115.834 13.5 -186.501h113v-247z" />
    <glyph glyph-name="uniFBE3" unicode="&#x6c9;" horiz-adv-x="802" arabic-form="final" 
d="M695 1005h-161.999l-159 154l-24 -24c-8.66699 -8.66699 -16.334 -16 -23.001 -22c-6 -5.33301 -11.833 -10.833 -17.5 -16.5l-17.5 -17.5l-39 -37.5l-37 -36.5h-165l212 317h222zM504.001 490c0 17.333 -2.33203 33.999 -6.99902 49.999s-12.334 31.667 -23.001 47v-2
c-10 13.333 -22.333 23.5 -37 30.5s-32.667 10.5 -54 10.5c-46.667 0 -76 -10.667 -88 -32v3c-5.33301 -13.333 -9.5 -29.666 -12.5 -48.999s-4.5 -42.333 -4.5 -69c0 -48.667 25 -81.667 75 -99c11.333 -4.66699 30.333 -8 57 -10s58 -3.33301 94 -4v124zM829.002 118.999
l-115.999 0.00292969c-5.33301 -58.667 -18.833 -113.334 -40.5 -164.001s-50.167 -94 -85.5 -130c-44.667 -42 -94.334 -74.333 -149.001 -97s-113.334 -34 -176.001 -34h-230l-35 247h238c78.667 0 140.334 20.333 185.001 61c18 16 33.333 34.333 46 55
s22 41.334 28 62.001c-60.667 2 -116.667 8.16699 -168 18.5s-93 24.833 -125 43.5c-45.333 28 -79.666 67.167 -102.999 117.5s-35 112.166 -35 185.499c0 157.333 35.667 266.333 107 327c23.333 19.333 52.666 34.166 87.999 44.499s77 15.5 125 15.5
c69.333 0 128.5 -16.667 177.5 -50s86.167 -80 111.5 -140v-1c13.333 -31.333 23.5 -73.833 30.5 -127.5s11.5 -115.834 13.5 -186.501h113v-247z" />
    <glyph glyph-name="uniFBE5" unicode="&#x6d0;" horiz-adv-x="1233" arabic-form="final" 
d="M507 -964c-70 0.666992 -105 42.999 -105 126.999c1.33301 89.333 37.333 133.666 108 132.999c16 0 31.333 -3.33301 46 -10s27.667 -15.667 39 -27c10 -11.333 17.833 -24.166 23.5 -38.499s8.5 -29.166 8.5 -44.499c-1.33301 -94 -41.333 -140.667 -120 -140z
M510 -626.001c-70.667 0.666992 -105.334 41.668 -104.001 123.001c0.666992 91.333 36 136.666 106 135.999c18 0 34.167 -3.33301 48.5 -10s26.833 -15.667 37.5 -27s18.834 -24.5 24.501 -39.5s8.5 -30.833 8.5 -47.5c-2 -90.667 -42.333 -135.667 -121 -135zM1223 119
h-154.001c1.33301 -7.33301 2.33301 -14.666 3 -21.999s1.33398 -14 2.00098 -20c0 -116.667 -38.667 -210.667 -116 -282c-78 -67.333 -168.667 -101 -272 -101h-259c-136 0 -246 52.667 -330 158c-72 94 -108 216.333 -108 367v339h210v-405
c0 -32 6.66699 -61.167 20 -87.5s32 -49.833 56 -70.5v1c22 -17.333 49.167 -30.833 81.5 -40.5s67.5 -14.5 105.5 -14.5h219c57.333 0 101.333 13 132 39c17.333 15.333 30.833 31.666 40.5 48.999s14.5 36.333 14.5 57c0 12 -44.333 22.333 -133 31h1
c-10.667 0.666992 -35 1.16699 -73 1.5s-85.333 0.5 -142 0.5l-18 247h720v-247z" />
    <glyph glyph-name="uniFBE6" unicode="&#x6d0;" horiz-adv-x="773" arabic-form="initial" 
d="M237 -550c-70 1.33301 -104.668 43.3301 -104.001 125.997c0.666992 90 36.334 134.333 107.001 133c16.667 0 32 -3.33301 46 -10s26.667 -15.667 38 -27c10.667 -11.333 19 -24.166 25 -38.499s8.66699 -29.166 8 -44.499
c-0.666992 -93.333 -40.667 -139.666 -120 -138.999zM239.999 -214.003c-70 0.666992 -104.333 41.665 -103 122.998c0.666992 92.667 35.667 138.334 105 137.001c35.333 0 64 -12.333 86 -37c22.667 -24.667 34 -53.667 34 -87c-2 -91.333 -42.667 -136.666 -122 -135.999
zM595.999 431.995c0 -42 -6.33301 -81.333 -19 -118s-29.667 -68 -51 -94c-25.333 -30 -54.5 -54.333 -87.5 -73s-66.5 -28 -100.5 -28h-381v247h325c39.333 0 66.5 6.83301 81.5 20.5s22.5 37.167 22.5 70.5v271h210v-296z" />
    <glyph glyph-name="uniFBE7" unicode="&#x6d0;" horiz-adv-x="746" arabic-form="medial" 
d="M237 -550c-70 1.33301 -104.667 43.3301 -104 125.997c0.666992 90 36.334 134.333 107.001 133c16.667 0 32.167 -3.33301 46.5 -10s27.166 -15.667 38.499 -27c10 -11.333 18 -24.166 24 -38.499s8.66699 -29.166 8 -44.499
c-0.666992 -93.333 -40.667 -139.666 -120 -138.999zM240 -214.003c-70 0.666992 -104.333 41.665 -103 122.998c0.666992 92.667 35.667 138.334 105 137.001c35.333 0 64.333 -12.333 87 -37c22 -25.333 33 -54.333 33 -87c-2 -91.333 -42.667 -136.666 -122 -135.999z
M760 118.995h-37.0029c-31.333 0 -58.166 0.666992 -80.499 2s-41.166 3.66602 -56.499 6.99902c-14 6.66699 -28.167 14.334 -42.5 23.001s-29.166 19.667 -44.499 33c-28 -22 -55.333 -38.333 -82 -49s-52 -16 -76 -16h-383v247h331c38.667 0 65.5 6.83301 80.5 20.5
s22.5 37.167 22.5 70.5v271h210v-271c0 -39.333 6.33301 -62 19 -68c10 -8.66699 26.5 -14.667 49.5 -18s52.833 -5 89.5 -5v-247z" />
    <glyph glyph-name="uniFBE8" unicode="&#x649;" horiz-adv-x="773" arabic-form="initial" 
d="M596 432c0 -42 -6.33301 -81.333 -19 -118s-29.667 -68 -51 -94c-25.333 -30 -54.5 -54.333 -87.5 -73s-66.5 -28 -100.5 -28h-381v247h325c39.333 0 66.5 6.83301 81.5 20.5s22.5 37.167 22.5 70.5v271h210v-296z" />
    <glyph glyph-name="uniFBE9" unicode="&#x649;" horiz-adv-x="746" arabic-form="medial" 
d="M760 119h-37.0029c-31.333 0 -58.166 0.666992 -80.499 2s-41.166 3.66602 -56.499 6.99902c-14 6.66699 -28.167 14.334 -42.5 23.001s-29.166 19.667 -44.499 33c-28 -22 -55.333 -38.333 -82 -49s-52 -16 -76 -16h-383v247h331c38.667 0 65.5 6.83301 80.5 20.5
s22.5 37.167 22.5 70.5v271h210v-271c0 -39.333 6.33301 -62 19 -68c10 -8.66699 26.5 -14.667 49.5 -18s52.833 -5 89.5 -5v-247z" />
    <glyph glyph-name="uniFBFD" unicode="&#x6cc;" horiz-adv-x="1233" arabic-form="final" 
d="M1223 119h-154.001c1.33301 -7.33301 2.33301 -14.666 3 -21.999s1.33398 -14 2.00098 -20c0 -116.667 -38.667 -210.667 -116 -282c-78 -67.333 -168.667 -101 -272 -101h-259c-136 0 -246 52.667 -330 158c-72 94 -108 216.333 -108 367v339h210v-405
c0 -32 6.66699 -61.167 20 -87.5s32 -49.833 56 -70.5v1c22 -17.333 49.167 -30.833 81.5 -40.5s67.5 -14.5 105.5 -14.5h219c57.333 0 101.333 13 132 39c17.333 15.333 30.833 31.666 40.5 48.999s14.5 36.333 14.5 57c0 12 -44.333 22.333 -133 31h1
c-10.667 0.666992 -35 1.16699 -73 1.5s-85.333 0.5 -142 0.5l-18 247h720v-247z" />
    <glyph glyph-name="uniFBFE" unicode="&#x6cc;" horiz-adv-x="773" arabic-form="initial" 
d="M544 -140c0 -71.333 -41.332 -106.999 -123.999 -106.999c-88.667 0 -133 35.667 -133 107c0 33.333 11.667 61.666 35 84.999c25.333 21.333 53.666 32 84.999 32c91.333 0 137 -39 137 -117zM208.001 -139.999c0 -71.333 -40.333 -106.998 -121 -106.998
c-91.333 0 -137 35.667 -137 107c0 17.333 3.16699 33.166 9.5 47.499s15 26.666 26 36.999s24 18.333 39 24s31.167 8.5 48.5 8.5c90 0 135 -39 135 -117zM596.001 432.003c0 -42 -6.33301 -81.333 -19 -118s-29.667 -68 -51 -94c-25.333 -30 -54.5 -54.333 -87.5 -73
s-66.5 -28 -100.5 -28h-381v247h325c39.333 0 66.5 6.83301 81.5 20.5s22.5 37.167 22.5 70.5v271h210v-296z" />
    <glyph glyph-name="uniFBFF" unicode="&#x6cc;" horiz-adv-x="746" arabic-form="medial" 
d="M208 -140c0 -71.333 -40.333 -106.998 -121 -106.998c-90.667 0 -136 35.667 -136 107c0 17.333 3.16699 33.166 9.5 47.499s15 26.666 26 36.999s24 18.333 39 24s30.833 8.5 47.5 8.5c90 0 135 -39 135 -117zM544 -139.998c0 -71.333 -41.333 -106.999 -124 -106.999
c-88.667 0 -133 35.667 -133 107c0 33.333 12 61.666 36 84.999c24.667 21.333 52.667 32 84 32c91.333 0 137 -39 137 -117zM760 119.003h-37.0029c-31.333 0 -58.166 0.666992 -80.499 2s-41.166 3.66602 -56.499 6.99902c-14 6.66699 -28.167 14.334 -42.5 23.001
s-29.166 19.667 -44.499 33c-28 -22 -55.333 -38.333 -82 -49s-52 -16 -76 -16h-383v247h331c38.667 0 65.5 6.83301 80.5 20.5s22.5 37.167 22.5 70.5v271h210v-271c0 -39.333 6.33301 -62 19 -68c10 -8.66699 26.5 -14.667 49.5 -18s52.833 -5 89.5 -5v-247z" />
    <glyph glyph-name="uniFC5E" unicode="&#xfc5e;" arabic-form="isolated" 
d="M345 1970c0 15.333 -6.33203 28.5 -18.999 39.5s-26.334 16.5 -41.001 16.5c-40.667 0 -61 -21.333 -61 -64c0 -35.333 21.667 -53 65 -53c10.667 0 22 7 34 21c14.667 14 22 27.333 22 40zM457.001 1585c0 -60 -12.6699 -104.667 -38.0029 -134
c-29.333 -33.333 -65.333 -50 -108 -50c-14.667 0 -31.667 4.66699 -51 14s-37.666 20 -54.999 32c-15.333 -14.667 -31.666 -26 -48.999 -34s-35.666 -12 -54.999 -12c-23.333 0 -43.5 4.33301 -60.5 13s-32.5 21.667 -46.5 39c-20.667 32.667 -31 76.667 -31 132h82
c0 -32 4.83301 -56.333 14.5 -73s24.167 -25 43.5 -25c18.667 0 33 8.33301 43 25s15 41 15 73h92c0 -32 5 -56.333 15 -73s24.667 -25 44 -25c18 0 32 8.33301 42 25s15.667 41 17 73h86zM427.998 1970c0 -32 -4.66602 -58.5029 -13.999 -79.5029
s-21.666 -36.5 -36.999 -46.5l-72 -38l-76 -41l-75.5 -42l-69.5 -39l-47 82c34.667 18.667 56.334 34 65.001 46c-2 6.66699 -9.66699 10 -23 10c-7.33301 0 -14.833 -1.5 -22.5 -4.5s-17.167 -8.16699 -28.5 -15.5l-44 76c27.333 10 50.333 16.833 69 20.5
s33.667 5.5 45 5.5c18.667 0 34.667 -5.16699 48 -15.5s23.666 -26.833 30.999 -49.5l2 1c2.66699 1.33301 5.16699 2.5 7.5 3.5s4.5 2.16699 6.5 3.5c1.33301 0.666992 2.33301 1.33398 3 2.00098s1.66699 1.33398 3 2.00098c2.66699 1.33301 2.66699 1.66602 0 0.999023
s-2.33398 -0.333984 0.999023 0.999023c-17.333 15.333 -31.333 31.833 -42 49.5s-16 36.834 -16 57.501c0 68 33.667 115.667 101 143l12 3c12 3.33301 22 5 30 5c17.333 0 34.666 -3.83301 51.999 -11.5s33 -18.167 47 -31.5s24.833 -28.166 32.5 -44.499
s11.5 -34.166 11.5 -53.499z" />
    <glyph glyph-name="uniFC5F" unicode="&#xfc5f;" arabic-form="isolated" 
d="M395 1518l-335 -177l-47 79l339 187zM395 1692l-336 -179l-46 80l339 189zM478 2011c0 -28 -3.16895 -53.333 -9.50195 -76s-15.5 -41.667 -27.5 -57c-28.667 -35.333 -65 -53 -109 -53c-31.333 0 -66.333 15.333 -105 46c-15.333 -16 -31.833 -27.667 -49.5 -35
s-36.5 -11 -56.5 -11c-21.333 0 -40.666 4.5 -57.999 13.5s-32.666 23.167 -45.999 42.5c-10.667 15.333 -19 33.833 -25 55.5s-9 46.5 -9 74.5h87c0 -62.667 18.667 -94 56 -94c38 0 58.333 31.333 61 94h87c0 -62.667 20 -94 60 -94c39.333 0 59 31.333 59 94h85z" />
    <glyph glyph-name="uniFC60" unicode="&#xfc60;" arabic-form="isolated" 
d="M392 1826l-332 -173l-50 75l337 191zM455 1581c0 -28.667 -3.66895 -54.667 -11.002 -78s-16.666 -42 -27.999 -56c-14 -17.333 -30.167 -30.833 -48.5 -40.5s-37.833 -14.5 -58.5 -14.5c-31.333 0 -66.666 15.667 -105.999 47c-15.333 -15.333 -32 -27 -50 -35
s-36.667 -12 -56 -12c-42 0 -76.667 18.667 -104 56c-20.667 30 -31 74.333 -31 133h84c0 -64.667 19 -97 57 -97s58 32.333 60 97h87c0 -64.667 20.667 -97 62 -97c38 0 57 32.333 57 97h86z" />
    <glyph glyph-name="uniFC61" unicode="&#xfc61;" arabic-form="isolated" 
d="M264 1883c0 14.667 -6.33203 27 -18.999 37c-7.33301 6 -14.333 10.5 -21 13.5s-14.667 4.5 -24 4.5c-38 0 -57 -21.333 -57 -64c0 -36 21.667 -54 65 -54c4.66699 0 9.66699 1.5 15 4.5s11.666 8.16699 18.999 15.5c8 8.66699 13.667 16.5 17 23.5s5 13.5 5 19.5z
M437.001 1569c0 -28 -2.83789 -53.3311 -8.50488 -75.998s-15.167 -42.334 -28.5 -59.001c-13.333 -16 -29.166 -28 -47.499 -36s-38.5 -12 -60.5 -12c-15.333 0 -31.666 3.83301 -48.999 11.5s-35.666 18.167 -54.999 31.5c-15.333 -13.333 -32.166 -23.833 -50.499 -31.5
s-36.833 -11.5 -55.5 -11.5c-22 0 -41.5 4.16699 -58.5 12.5s-33.167 21.166 -48.5 38.499c-20.667 35.333 -31 79.333 -31 132h83c0 -32 5 -56.333 15 -73s24.667 -25 44 -25c18.667 0 32.834 8.33301 42.501 25s15.167 41 16.5 73h89c0 -32 5.16699 -56.333 15.5 -73
s25.166 -25 44.499 -25c18 0 31.833 8.33301 41.5 25s14.834 41 15.501 73h86zM347.996 1881c0 -32 -4.49805 -58.5 -13.498 -79.5s-21.5 -36.167 -37.5 -45.5l-18.5 -9c-7 -3.33301 -13.833 -7 -20.5 -11c-3.33301 -1.33301 -6.33301 -2.83301 -9 -4.5
s-5.33398 -3.16699 -8.00098 -4.5l-31 -17l-33 -18l-63 -34.5l-60 -32.5l-43 82l108 61c-37.333 30 -56 65.333 -56 106c0 32.667 8.33301 60.5 25 83.5s40 40.833 70 53.5c20.667 8.66699 34.667 13 42 13c19.333 0 38.166 -3.83301 56.499 -11.5
s33.833 -18.167 46.5 -31.5c30 -26.667 45 -60 45 -100z" />
    <glyph glyph-name="uniFC62" unicode="&#xfc62;" arabic-form="isolated" 
d="M392 1531l-336 -184l-47 79l337 189zM457 1837c0 -58 -11.6689 -102.669 -35.002 -134.002c-30 -32 -66.667 -48 -110 -48c-15.333 0 -31.833 4 -49.5 12s-36.167 18.667 -55.5 32c-16 -13.333 -32.667 -24 -50 -32s-35.666 -12 -54.999 -12
c-43.333 0 -77.666 16.333 -102.999 49c-11.333 16.667 -20 35.834 -26 57.501s-9 46.834 -9 75.501h84c0 -64.667 19 -97 57 -97c39.333 0 59.333 32.333 60 97h90c0 -64.667 19.667 -97 59 -97c38.667 0 58 32.333 58 97h85z" />
    <glyph glyph-name="uniFC63" unicode="&#xfc63;" arabic-form="isolated" 
d="M240 1621h-83v287h83v-287zM446 1567c0 -28.667 -3.50098 -53.835 -10.501 -75.502s-16.833 -40.5 -29.5 -56.5c-14 -17.333 -30.167 -30.666 -48.5 -39.999s-38.166 -14 -59.499 -14c-13.333 0 -29 4 -47 12s-36.333 18.667 -55 32c-15.333 -16 -32 -27.333 -50 -34
s-37.333 -10 -58 -10c-44.667 0 -80 19.333 -106 58c-19.333 30.667 -29 73.334 -29 128.001h82c0 -64.667 19 -97 57 -97c38.667 0 59 32.333 61 97h87c0 -64.667 20 -97 60 -97c38.667 0 58.667 32.333 60 97h86z" />
    <glyph glyph-name="uniFCF2" unicode="&#xfcf2;" horiz-adv-x="358" arabic-form="medial" 
d="M415 1455l-332 -173l-50 74l339 192zM490 1225c0 -29.333 -3.50391 -55.668 -10.5039 -79.001s-16.167 -41.666 -27.5 -54.999c-29.333 -35.333 -65.666 -53 -108.999 -53c-14 0 -30.167 4 -48.5 12s-37.166 19 -56.499 33c-15.333 -16 -31.666 -27.5 -48.999 -34.5
s-36.666 -10.5 -57.999 -10.5c-22 0 -41.333 4.5 -58 13.5s-31.667 22.833 -45 41.5c-10.667 13.333 -18.667 31.333 -24 54s-8 48.667 -8 78h84c0 -64 18.667 -96 56 -96c38.667 0 59 32 61 96h88c0 -64 20.667 -96 62 -96c38 0 57 32 57 96h86zM441.996 118.998h-483v247
h483v-247z" />
    <glyph glyph-name="uniFCF3" unicode="&#xfcf3;" horiz-adv-x="358" arabic-form="medial" 
d="M294 1460c0 5.33301 -1.66797 11.667 -5.00098 19s-7.66602 14 -12.999 20c-6 4.66699 -13 8.5 -21 11.5s-15.667 4.5 -23 4.5c-38.667 0 -58 -20.333 -58 -61c0 -38 22 -57 66 -57c8.66699 0 20 7.33301 34 22c7.33301 8 12.5 15.5 15.5 22.5s4.5 13.167 4.5 18.5z
M466.999 1118c0 -57.333 -12.668 -101.333 -38.001 -132c-14 -16 -30.167 -28.5 -48.5 -37.5s-38.166 -13.5 -59.499 -13.5c-32.667 0 -67.667 14.667 -105 44c-16 -14 -32.833 -24.833 -50.5 -32.5s-36.167 -11.5 -55.5 -11.5c-43.333 0 -79 18 -107 54
c-10 15.333 -17.833 34 -23.5 56s-8.5 46.333 -8.5 73h85c0 -62 19.667 -93 59 -93c36.667 0 56 31 58 93h88c0 -62 20.333 -93 61 -93c38 0 57.333 31 58 93h87zM379.998 1460c0 -32.667 -5.16992 -59.834 -15.5029 -81.501s-24.166 -38.167 -41.499 -49.5l-103.5 -54
l-103.5 -55c-2 -0.666992 -3.66699 -1.5 -5 -2.5s-3 -2.16699 -5 -3.5c-1.33301 -1.33301 -4.66602 -3.33301 -9.99902 -6s-8.66602 -4.66699 -9.99902 -6l-45 82l109 61c-36.667 28.667 -55 64.667 -55 108c0 32 8.33301 59.5 25 82.5s40 41.167 70 54.5
c20.667 8.66699 34.667 13 42 13c20 0 38.833 -3.5 56.5 -10.5s33.167 -17.833 46.5 -32.5c16 -14.667 27.5 -30.167 34.5 -46.5s10.5 -34.166 10.5 -53.499zM441.995 119.001h-483v247h483v-247z" />
    <glyph glyph-name="uniFCF4" unicode="&#xfcf4;" horiz-adv-x="358" arabic-form="medial" 
d="M412 1098l-336 -183l-47 80l337 188zM478 1418c0 -28 -2.66602 -53.499 -7.99902 -76.499s-14 -42.167 -26 -57.5c-16 -16.667 -32.833 -28.667 -50.5 -36s-38.167 -11 -61.5 -11c-14.667 0 -30.667 3.5 -48 10.5s-35.666 18.167 -54.999 33.5
c-16.667 -15.333 -33.334 -26.5 -50.001 -33.5s-35.334 -10.5 -56.001 -10.5c-21.333 0 -40.833 4.16699 -58.5 12.5s-32.167 20.5 -43.5 36.5s-20 35.167 -26 57.5s-9 47.166 -9 74.499h84c0 -64 18.667 -96 56 -96c39.333 0 59.333 32 60 96h91c0 -64 19 -96 57 -96
c39.333 0 59 32 59 96h85zM442.001 119.001h-483v247h483v-247z" />
    <glyph glyph-name="uniFDFC" unicode="&#xfdfc;" horiz-adv-x="1390" arabic-form="isolated" 
d="M277 930h96c46.667 0 82.667 10 108 30c26 18 39 37 39 57c0 52 -48.333 78 -145 78h-98v-165zM827 400l-226 0.000976562l-95 131v-385c0 -50.667 27.333 -97.667 82 -141c50 -40 108.333 -60 175 -60h65c66 0 121 19.667 165 59c50 44 75 91.333 75 142v1131h210v-1096
c0 -140.667 -39 -256 -117 -346c-86.667 -94 -194 -141 -322 -141h-107c-111.333 0 -213.333 48.333 -306 145c-83.333 91.333 -125 200.666 -125 327.999v391h186l-149 204l8 -11h-69v-351h-165v874h277c89.333 0 161.333 -21.333 216 -64v1c28.667 -19.333 50 -45 64 -77
s21 -69 21 -111c0 -66.667 -20.667 -120 -62 -160v1c-29.333 -33.333 -61 -57.333 -95 -72z" />
    <glyph glyph-name="uniFE71" unicode="&#xfe71;" horiz-adv-x="358" arabic-form="medial" 
d="M362 1039l-338 -182l-47 81l340 185zM361 1204l-337 -186l-47 87l341 183zM442 119h-483v247h483v-247z" />
    <glyph glyph-name="uniFE77" unicode="&#xfe77;" horiz-adv-x="358" arabic-form="medial" 
d="M362 1146l-339 -180l-46 81l339 185zM442 119h-483v247h483v-247z" />
    <glyph glyph-name="uniFE79" unicode="&#xfe79;" horiz-adv-x="358" arabic-form="medial" 
d="M235 1089c0 14.667 -6.66895 27.168 -20.002 37.501s-28.666 15.5 -45.999 15.5c-37.333 0 -56 -20 -56 -60c0 -38.667 20.333 -58 61 -58c6.66699 0 13.334 2.16699 20.001 6.5s13 10.166 19 17.499c7.33301 8.66699 12.833 16.167 16.5 22.5s5.5 12.5 5.5 18.5z
M318.998 1087c0 -63.333 -19.332 -106.335 -57.999 -129.002l-236 -123l-50 75l111 62c-36 31.333 -54 68 -54 110c0 31.333 8.33301 58.5 25 81.5s41.334 41.167 74.001 54.5c8 3.33301 15.5 6 22.5 8s12.167 3 15.5 3c19.333 0 37.666 -3.83301 54.999 -11.5
s33.666 -17.5 48.999 -29.5c13.333 -13.333 24.333 -28.666 33 -45.999s13 -35.666 13 -54.999zM441.999 118.999h-483v247h483v-247z" />
    <glyph glyph-name="uniFE7B" unicode="&#xfe7b;" horiz-adv-x="358" arabic-form="medial" 
d="M259 -368l-337 -181l-47 82l336 184zM442 119h-483v247h483v-247z" />
    <glyph glyph-name="uniFE7D" unicode="&#xfe7d;" horiz-adv-x="358" arabic-form="medial" 
d="M491 1221c0 -29.333 -3.50098 -54.999 -10.501 -76.999s-16.5 -39.667 -28.5 -53c-14 -17.333 -30 -30.833 -48 -40.5s-37.667 -14.5 -59 -14.5c-12.667 0 -29.167 4.66699 -49.5 14s-38.5 19.666 -54.5 30.999c-30 -30 -66.333 -45 -109 -45
c-42 0 -76.333 19.333 -103 58c-9.33301 13.333 -16.666 31 -21.999 53s-8 46.667 -8 74h81c0 -64 19.333 -96 58 -96c37.333 0 57 32 59 96h88c0 -64 20.667 -96 62 -96c18.667 0 33.167 8 43.5 24s15.833 40 16.5 72h84zM441.999 119.001h-483v247h483v-247z" />
    <glyph glyph-name="uniFE7F" unicode="&#xfe7f;" horiz-adv-x="358" arabic-form="medial" 
d="M184 1087c0 14.667 -4.16992 27.5 -12.5029 38.5s-19.5 19.167 -33.5 24.5l1 -1c-0.666992 0 -1.16699 0.166992 -1.5 0.5s-1.16602 0.5 -2.49902 0.5c-4 1.33301 -7 2 -9 2c-16 0 -31 -6.33301 -45 -19c-12 -14.667 -18 -30 -18 -46s6.33301 -29.833 19 -41.5
s27.334 -17.5 44.001 -17.5c12.667 0 24.334 5.66699 35.001 17c8.66699 7.33301 14.667 14.333 18 21s5 13.667 5 21zM270.997 1085c0 -19.333 -4.33301 -37.6689 -13 -55.002s-20.334 -32.666 -35.001 -45.999c-13.333 -11.333 -28.5 -20.333 -45.5 -27
s-34.833 -10 -53.5 -10c-40.667 0 -74.667 15 -102 45c-12 15.333 -21.5 31.5 -28.5 48.5s-10.5 34.833 -10.5 53.5c0 42 15.333 75.667 46 101c15.333 12 31.166 21.333 47.499 28s34.5 10 54.5 10c20.667 0 39.834 -4.16699 57.501 -12.5s32.834 -19.166 45.501 -32.499
c11.333 -13.333 20.333 -28.833 27 -46.5s10 -36.5 10 -56.5zM441.997 118.997h-483v247h483v-247z" />
    <glyph glyph-name="uniFE82" unicode="&#x622;" horiz-adv-x="561" arabic-form="final" 
d="M588 119c-154.667 0 -266.667 32.002 -336 96.002c-39.333 37.333 -59 104 -59 200v836h206v-761c0 -58.667 10.333 -94.334 31 -107.001c6 -4 22.167 -7.33301 48.5 -10s62.833 -5.33398 109.5 -8.00098v-246zM629 1376l-449.999 0.000976562
c-29.333 0 -51.5 -2.33301 -66.5 -7s-28.5 -11.667 -40.5 -21h1c-7.33301 -6.66699 -16.5 -18.5 -27.5 -35.5s-22.833 -38.833 -35.5 -65.5l-176 71c24 50.667 45.667 91.667 65 123s37 53.666 53 66.999c20.667 15.333 43.667 28 69 38s64.666 17.333 117.999 22h490v-192z
" />
    <glyph glyph-name="uniFE84" unicode="&#x623;" horiz-adv-x="461" arabic-form="final" 
d="M352 1461l-267.999 -137.998l-37 77l63 38c-33.333 27.333 -50 61.666 -50 102.999c0 37.333 13 69.666 39 96.999c12.667 12.667 27 22.5 43 29.5s32.667 10.5 50 10.5c9.33301 0 21.333 -2.5 36 -7.5s33.667 -12.167 57 -21.5l-35 -76c-22 18 -41.667 27 -59 27
c-31.333 0 -47 -20.667 -47 -62c0 -31.333 14.667 -47 44 -47c14.667 0 32.167 4.33301 52.5 13s45.166 21.667 74.499 39zM488.001 119.002c-154.667 0 -266.667 32.002 -336 96.002c-39.333 37.333 -59 104 -59 200v836h206v-761c0 -58.667 10.333 -94.334 31 -107.001
c6 -4 22.167 -7.33301 48.5 -10s62.833 -5.33398 109.5 -8.00098v-246z" />
    <glyph glyph-name="uniFE86" unicode="&#x624;" horiz-adv-x="802" arabic-form="final" 
d="M383 1037l-325.002 -166.001l-38 83l82 47c-19.333 17.333 -35.666 37 -48.999 59s-20 43.667 -20 65c0 22 4.16699 43.5 12.5 64.5s19.5 39.5 33.5 55.5c14 14.667 30.667 26.167 50 34.5s40.666 12.5 63.999 12.5c9.33301 0 22.833 -2.33301 40.5 -7
s41.167 -12.667 70.5 -24l-46 -84c-25.333 19.333 -43.666 29 -54.999 29c-25.333 0 -44.666 -6.66699 -57.999 -20s-20 -33.666 -20 -60.999c0 -36 19.667 -54 59 -54c15.333 0 35.833 4.5 61.5 13.5s56.5 22.833 92.5 41.5zM503.998 489.999
c0 17.333 -2.33203 33.999 -6.99902 49.999s-12.334 31.667 -23.001 47v-2c-10 13.333 -22.333 23.5 -37 30.5s-32.667 10.5 -54 10.5c-46.667 0 -76 -10.667 -88 -32v3c-5.33301 -13.333 -9.5 -29.666 -12.5 -48.999s-4.5 -42.333 -4.5 -69c0 -48.667 25 -81.667 75 -99
c11.333 -4.66699 30.333 -8 57 -10s58 -3.33301 94 -4v124zM828.999 118.998l-115.999 0.00292969c-5.33301 -58.667 -18.833 -113.334 -40.5 -164.001s-50.167 -94 -85.5 -130c-44.667 -42 -94.334 -74.333 -149.001 -97s-113.334 -34 -176.001 -34h-230l-35 247h238
c78.667 0 140.334 20.333 185.001 61c18 16 33.333 34.333 46 55s22 41.334 28 62.001c-60.667 2 -116.667 8.16699 -168 18.5s-93 24.833 -125 43.5c-45.333 28 -79.666 67.167 -102.999 117.5s-35 112.166 -35 185.499c0 157.333 35.667 266.333 107 327
c23.333 19.333 52.666 34.166 87.999 44.499s77 15.5 125 15.5c69.333 0 128.5 -16.667 177.5 -50s86.167 -80 111.5 -140v-1c13.333 -31.333 23.5 -73.833 30.5 -127.5s11.5 -115.834 13.5 -186.501h113v-247z" />
    <glyph glyph-name="uniFE88" unicode="&#x625;" horiz-adv-x="461" arabic-form="final" 
d="M438 -218l-271.996 -137.001l-36 76l68 35c-14.667 13.333 -27.334 29 -38.001 47s-16 37.333 -16 58c0 18 3.66699 34.833 11 50.5s17.666 30.5 30.999 44.5c25.333 26 56.333 39 93 39c7.33301 0 18.666 -2.16699 33.999 -6.5s35.666 -12.166 60.999 -23.499l-38 -70
c-11.333 7.33301 -21.833 12.833 -31.5 16.5s-19.167 5.5 -28.5 5.5c-32 0 -48 -20 -48 -60c0 -31.333 15.667 -47 47 -47c16 0 34.167 4 54.5 12s43.833 20.667 70.5 38zM488.004 118.999c-154.667 0 -266.667 32.002 -336 96.002c-39.333 37.333 -59 104 -59 200v836h206
v-761c0 -58.667 10.333 -94.334 31 -107.001c6 -4 22.167 -7.33301 48.5 -10s62.833 -5.33398 109.5 -8.00098v-246z" />
    <glyph glyph-name="uniFE8A" unicode="&#x626;" horiz-adv-x="1233" arabic-form="final" 
d="M428 900l-324.003 -166l-39 86l84 46c-46 36 -69 77.667 -69 125c0 44.667 15 84.334 45 119.001c29.333 31.333 67.333 47 114 47c20 0 57 -10.333 111 -31l-44 -84c-13.333 9.33301 -24.666 16.5 -33.999 21.5s-16.666 7.5 -21.999 7.5
c-25.333 0 -44.666 -6.83301 -57.999 -20.5s-20 -33.5 -20 -59.5c0 -37.333 20.333 -56 61 -56c14 0 33.667 4.66699 59 14s56 23.666 92 42.999zM1223 119h-154.001c1.33301 -7.33301 2.33301 -14.666 3 -21.999s1.33398 -14 2.00098 -20
c0 -116.667 -38.667 -210.667 -116 -282c-78 -67.333 -168.667 -101 -272 -101h-259c-136 0 -246 52.667 -330 158c-72 94 -108 216.333 -108 367v339h210v-405c0 -32 6.66699 -61.167 20 -87.5s32 -49.833 56 -70.5v1c22 -17.333 49.167 -30.833 81.5 -40.5
s67.5 -14.5 105.5 -14.5h219c57.333 0 101.333 13 132 39c17.333 15.333 30.833 31.666 40.5 48.999s14.5 36.333 14.5 57c0 12 -44.333 22.333 -133 31h1c-10.667 0.666992 -35 1.16699 -73 1.5s-85.333 0.5 -142 0.5l-18 247h720v-247z" />
    <glyph glyph-name="uniFE8B" unicode="&#x626;" horiz-adv-x="690" arabic-form="initial" 
d="M461 876l-325 -163.001l-39 82l84 46c-45.333 36 -68 78 -68 126c0 46.667 15 86.334 45 119.001c30 30.667 68.333 46 115 46c9.33301 0 22.833 -2.5 40.5 -7.5s40.834 -12.167 69.501 -21.5l-45 -86c-12.667 9.33301 -23.834 16.833 -33.501 22.5
s-17.167 8.5 -22.5 8.5c-50.667 0 -76 -27 -76 -81c0 -38 19.333 -57 58 -57c15.333 0 35.833 4.83301 61.5 14.5s56.5 24.167 92.5 43.5zM513 431.999c0 -41.333 -6.5 -80.001 -19.5 -116.001s-30.167 -68 -51.5 -96c-25.333 -30.667 -54.666 -55.167 -87.999 -73.5
s-68 -27.5 -104 -27.5h-294v247c191.333 0 293.666 2.33301 306.999 7c27.333 10 41 49 41 117v25c0 9.33301 -0.333008 20.333 -1 33v27c0 2 -0.166992 3.83301 -0.5 5.5s-0.5 3.16699 -0.5 4.5c0 10.667 -0.166992 23.334 -0.5 38.001s-0.5 29.167 -0.5 43.5v38.5v23h212
v-296z" />
    <glyph glyph-name="uniFE8C" unicode="&#x626;" horiz-adv-x="681" arabic-form="medial" 
d="M461 876l-325.002 -163l-39 82l84 46c-21.333 17.333 -38 36.666 -50 57.999s-18 44 -18 68c0 46.667 15.333 86.334 46 119.001c28.667 30.667 66.667 46 114 46c9.33301 0 22.833 -2.5 40.5 -7.5s40.834 -12.167 69.501 -21.5l-45 -86
c-12.667 9.33301 -23.667 16.833 -33 22.5s-16.666 8.5 -21.999 8.5c-51.333 0 -77 -27 -77 -81c0 -38 19.333 -57 58 -57c32 0 83.333 19.333 154 58zM704.998 119l-73.998 -0.000976562c-88.667 0 -161.334 21.667 -218.001 65c-28 -20 -55.833 -35.833 -83.5 -47.5
s-53.167 -17.5 -76.5 -17.5h-296v247c93.333 0 165.166 1 215.499 3s80.833 4.66699 91.5 8c27.333 8.66699 41 46.334 41 113.001v26c0 10 -0.333008 21.333 -1 34v28c0 2 -0.166992 3.5 -0.5 4.5s-0.5 2.16699 -0.5 3.5c0 10 -0.166992 22.333 -0.5 37
s-0.5 29.167 -0.5 43.5v38.5v23h213v-271c0 -36 15.333 -60 46 -72c9.33301 -4.66699 26 -8.5 50 -11.5s55.333 -5.83301 94 -8.5v-246z" />
    <glyph glyph-name="uniFE8E" unicode="&#x627;" horiz-adv-x="461" arabic-form="final" 
d="M488 119c-154.667 0 -266.667 32.002 -336 96.002c-39.333 37.333 -59 104 -59 200v836h206v-761c0 -58.667 10.333 -94.334 31 -107.001c6 -4 22.167 -7.33301 48.5 -10s62.833 -5.33398 109.5 -8.00098v-246z" />
    <glyph glyph-name="uniFE90" unicode="&#x628;" horiz-adv-x="1616" arabic-form="final" 
d="M1588 119c-70 0 -128.335 5.16699 -175.002 15.5s-84 26.5 -112 48.5c-58.667 -42.667 -113 -64 -163 -64h-886c-36 0 -70 8.66699 -102 26s-62 42.333 -90 75c-21.333 28 -38.166 59.833 -50.499 95.5s-18.5 74.5 -18.5 116.5v296h207v-271
c0 -33.333 8 -56.833 24 -70.5s44.667 -20.5 86 -20.5h781c38.667 0 65.334 6.83301 80.001 20.5s22 37.167 22 70.5v271h211v-271c0 -60.667 62 -91 186 -91v-247zM856.998 -190c0 -17.333 -3.49902 -34.167 -10.499 -50.5s-16.167 -30.833 -27.5 -43.5
c-24.667 -26 -55.334 -39 -92.001 -39c-96.667 0 -145 44.333 -145 133c0 76.667 45.333 115 136 115c92.667 0 139 -38.333 139 -115z" />
    <glyph glyph-name="uniFE91" unicode="&#x628;" horiz-adv-x="690" arabic-form="initial" 
d="M513 432c0 -41.333 -6.5 -80.001 -19.5 -116.001s-30.167 -68 -51.5 -96c-25.333 -30.667 -54.666 -55.167 -87.999 -73.5s-68 -27.5 -104 -27.5h-294v247c191.333 0 293.666 2.33301 306.999 7c27.333 10 41 49 41 117v25c0 9.33301 -0.333008 20.333 -1 33v27
c0 2 -0.166992 3.83301 -0.5 5.5s-0.5 3.16699 -0.5 4.5c0 10.667 -0.166992 23.334 -0.5 38.001s-0.5 29.167 -0.5 43.5v38.5v23h212v-296zM363 -137.001c0 -36.667 -12.667 -67.667 -38 -93c-12.667 -11.333 -27 -20.5 -43 -27.5s-33.333 -10.5 -52 -10.5
c-96 0 -144 43.667 -144 131c0 76.667 45.333 115 136 115c94 0 141 -38.333 141 -115z" />
    <glyph glyph-name="uniFE92" unicode="&#x628;" horiz-adv-x="689" arabic-form="medial" 
d="M705 119l-73.998 -0.000976562c-88.667 0 -161.334 21.667 -218.001 65c-28 -20 -55.833 -35.833 -83.5 -47.5s-53.167 -17.5 -76.5 -17.5h-296v247c93.333 0 165.166 1 215.499 3s80.833 4.66699 91.5 8c27.333 8.66699 41 46.334 41 113.001v26
c0 10 -0.333008 21.333 -1 34v28c0 2 -0.166992 3.5 -0.5 4.5s-0.5 2.16699 -0.5 3.5c0 10 -0.166992 22.333 -0.5 37s-0.5 29.167 -0.5 43.5v38.5v23h213v-271c0 -36 15.333 -60 46 -72c9.33301 -4.66699 26 -8.5 50 -11.5s55.333 -5.83301 94 -8.5v-246zM364.002 -137.001
c0 -36 -13 -67 -39 -93c-12 -11.333 -26.167 -20.5 -42.5 -27.5s-33.5 -10.5 -51.5 -10.5c-96 0 -144 43.667 -144 131c0 76.667 45.333 115 136 115c94 0 141 -38.333 141 -115z" />
    <glyph glyph-name="uniFE94" unicode="&#x629;" horiz-adv-x="993" arabic-form="final" 
d="M307 1223c0 -34 -11.667 -61.167 -35 -81.5s-52.333 -30.5 -87 -30.5c-88 0 -132 37.333 -132 112c0 71.333 40.333 107 121 107c88.667 0 133 -35.667 133 -107zM642 1223c0 -34 -11 -61.167 -33 -81.5s-50 -30.5 -84 -30.5c-91.333 0 -137 37.333 -137 112
c0 71.333 41.333 107 124 107c86.667 0 130 -35.667 130 -107zM492 450c0 12 -2.33105 23.501 -6.99805 34.501s-10.667 20.5 -18 28.5l-61.5 61.5l-61.5 60.5c-3.33301 -2.66699 -5.83301 -5 -7.5 -7l-6.5 -8l-42 -41c-10.667 -10 -19.334 -18.667 -26.001 -26
c-13.333 -18.667 -24.166 -37 -32.499 -55s-12.5 -34 -12.5 -48c0 -26.667 13.333 -53.334 40 -80.001v1c21.333 -20 52.666 -30 93.999 -30c39.333 0 72.666 11 99.999 33c12.667 13.333 22.667 26.333 30 39s11 25 11 37zM1015 119.001
c-86 0 -148.668 11.002 -188.001 33.002c-8 5.33301 -24.333 18.833 -49 40.5l-114 104.5c-36 -69.333 -79.833 -119.5 -131.5 -150.5s-112.834 -46.5 -183.501 -46.5c-95.333 0 -176.666 34 -243.999 102c-64.667 64.667 -97 151.334 -97 260.001
c0 25.333 4.16699 51.666 12.5 78.999s20.166 55.5 35.499 84.5s33.833 58.333 55.5 88s45.834 59.5 72.501 89.5l-8.5 11c-3 4 -6.16699 7.66699 -9.5 11l-29 30l151 157l523 -550c18 -20.667 33.667 -37.334 47 -50.001s23.333 -21.334 30 -26.001l-1 2
c20.667 -12 63.334 -20 128.001 -24v-245z" />
    <glyph glyph-name="uniFE96" unicode="&#x62a;" horiz-adv-x="1616" arabic-form="final" 
d="M688 977c0 -16 -2.99805 -30.833 -8.99805 -44.5s-14.333 -25.5 -25 -35.5s-23.334 -17.833 -38.001 -23.5s-30.334 -8.5 -47.001 -8.5c-89.333 0 -134 37.333 -134 112c0 71.333 40.667 107 122 107c87.333 0 131 -35.667 131 -107zM1029 977c0 -32 -12 -59 -36 -81
c-24.667 -20.667 -54 -31 -88 -31c-88.667 0 -133 37.333 -133 112c0 71.333 41.333 107 124 107c88.667 0 133 -35.667 133 -107zM1588 119c-70 0 -128.335 5.16699 -175.002 15.5s-84 26.5 -112 48.5c-58.667 -42.667 -113 -64 -163 -64h-886c-36 0 -70 8.66699 -102 26
s-62 42.333 -90 75c-21.333 28 -38.166 59.833 -50.499 95.5s-18.5 74.5 -18.5 116.5v296h207v-271c0 -33.333 8 -56.833 24 -70.5s44.667 -20.5 86 -20.5h781c38.667 0 65.334 6.83301 80.001 20.5s22 37.167 22 70.5v271h211v-271c0 -60.667 62 -91 186 -91v-247z" />
    <glyph glyph-name="uniFE97" unicode="&#x62a;" horiz-adv-x="773" arabic-form="initial" 
d="M287 916c0 -34 -11.999 -63.001 -35.999 -87.001c-24.667 -22.667 -53.334 -34 -86.001 -34c-18.667 0 -35.5 2.83301 -50.5 8.5s-29.167 13.5 -42.5 23.5c-28.667 22.667 -43 52.334 -43 89.001c0 70.667 41.667 106 125 106c88.667 0 133 -35.333 133 -106z
M623.001 915.999c0 -17.333 -3 -33.333 -9 -48s-14.5 -27.5 -25.5 -38.5s-23.833 -19.5 -38.5 -25.5s-30.667 -9 -48 -9c-19.333 0 -36.833 2.83301 -52.5 8.5s-30.167 13.5 -43.5 23.5c-12.667 11.333 -22.667 24.5 -30 39.5s-11 31.5 -11 49.5c0 70.667 42 106 126 106
c88 0 132 -35.333 132 -106zM596.001 431.999c0 -42 -6.33301 -81.333 -19 -118s-29.667 -68 -51 -94c-25.333 -30 -54.5 -54.333 -87.5 -73s-66.5 -28 -100.5 -28h-381v247h325c39.333 0 66.5 6.83301 81.5 20.5s22.5 37.167 22.5 70.5v271h210v-296z" />
    <glyph glyph-name="uniFE98" unicode="&#x62a;" horiz-adv-x="750" arabic-form="medial" 
d="M287 916c0 -34 -11.999 -62.998 -35.999 -86.998c-24.667 -22.667 -53.334 -34 -86.001 -34c-18.667 0 -35.5 2.83301 -50.5 8.5s-29.167 13.5 -42.5 23.5c-13.333 11.333 -23.833 24.666 -31.5 39.999s-11.5 31.666 -11.5 48.999c0 70.667 41.667 106 125 106
c88.667 0 133 -35.333 133 -106zM624.001 916.002c0 -17.333 -3.16699 -33.333 -9.5 -48s-15 -27.5 -26 -38.5s-23.833 -19.5 -38.5 -25.5s-30.667 -9 -48 -9c-19.333 0 -36.833 2.83301 -52.5 8.5s-29.834 13.5 -42.501 23.5c-13.333 11.333 -23.666 24.5 -30.999 39.5
s-11 31.5 -11 49.5c0 70.667 42 106 126 106c88.667 0 133 -35.333 133 -106zM760.001 119.002h-37.0029c-31.333 0 -58.166 0.666992 -80.499 2s-41.166 3.66602 -56.499 6.99902c-14 6.66699 -28.167 14.334 -42.5 23.001s-29.166 19.667 -44.499 33
c-28 -22 -55.333 -38.333 -82 -49s-52 -16 -76 -16h-383v247h331c38.667 0 65.5 6.83301 80.5 20.5s22.5 37.167 22.5 70.5v271h210v-271c0 -39.333 6.33301 -62 19 -68c10 -8.66699 26.5 -14.667 49.5 -18s52.833 -5 89.5 -5v-247z" />
    <glyph glyph-name="uniFE9A" unicode="&#x62b;" horiz-adv-x="1616" arabic-form="final" 
d="M683 916c0 -34 -12 -62 -36 -84c-24 -22.667 -51.667 -34 -83 -34c-18.667 0 -35.5 2.5 -50.5 7.5s-28.5 12.167 -40.5 21.5c-29.333 23.333 -44 53 -44 89c0 70.667 41.333 106 124 106c86.667 0 130 -35.333 130 -106zM1020 916c0 -17.333 -3 -33.166 -9 -47.499
s-14.5 -26.833 -25.5 -37.5s-24 -18.834 -39 -24.501s-31.5 -8.5 -49.5 -8.5s-34.5 2.5 -49.5 7.5s-28.5 12.167 -40.5 21.5c-12.667 11.333 -22.667 24.5 -30 39.5s-11 31.5 -11 49.5c0 70.667 40.333 106 121 106c88.667 0 133 -35.333 133 -106zM852 1163
c0 -16.667 -3.33203 -32.168 -9.99902 -46.501s-15.667 -26.666 -27 -36.999s-24.333 -18.5 -39 -24.5s-30.334 -9 -47.001 -9c-88.667 0 -133 39 -133 117c0 71.333 40.667 107 122 107c89.333 0 134 -35.667 134 -107zM1588 118.999c-70 0 -128.335 5.16699 -175.002 15.5
s-84 26.5 -112 48.5c-58.667 -42.667 -113 -64 -163 -64h-886c-36 0 -70 8.66699 -102 26s-62 42.333 -90 75c-21.333 28 -38.166 59.833 -50.499 95.5s-18.5 74.5 -18.5 116.5v296h207v-271c0 -33.333 8 -56.833 24 -70.5s44.667 -20.5 86 -20.5h781
c38.667 0 65.334 6.83301 80.001 20.5s22 37.167 22 70.5v271h211v-271c0 -60.667 62 -91 186 -91v-247z" />
    <glyph glyph-name="uniFE9B" unicode="&#x62b;" horiz-adv-x="773" arabic-form="initial" 
d="M287 916c0 -34 -11.999 -63.001 -35.999 -87.001c-24.667 -22.667 -53.334 -34 -86.001 -34c-18.667 0 -35.5 2.83301 -50.5 8.5s-29.167 13.5 -42.5 23.5c-28.667 22.667 -43 52.334 -43 89.001c0 70.667 41.667 106 125 106c88.667 0 133 -35.333 133 -106z
M623.001 915.999c0 -17.333 -3 -33.333 -9 -48s-14.5 -27.5 -25.5 -38.5s-23.833 -19.5 -38.5 -25.5s-30.667 -9 -48 -9c-19.333 0 -36.833 2.83301 -52.5 8.5s-30.167 13.5 -43.5 23.5c-12.667 11.333 -22.667 24.5 -30 39.5s-11 31.5 -11 49.5c0 70.667 42 106 126 106
c88 0 132 -35.333 132 -106zM453.001 1163c0 -18 -3.33203 -34.3311 -9.99902 -48.998s-15.5 -27.334 -26.5 -38.001s-24 -19 -39 -25s-30.833 -9 -47.5 -9c-18.667 0 -35.834 3.16699 -51.501 9.5s-29.167 14.166 -40.5 23.499c-29.333 22 -44 51.333 -44 88
c0 71.333 41.667 107 125 107c89.333 0 134 -35.667 134 -107zM596.002 432.001c0 -42 -6.33301 -81.333 -19 -118s-29.667 -68 -51 -94c-25.333 -30 -54.5 -54.333 -87.5 -73s-66.5 -28 -100.5 -28h-381v247h325c39.333 0 66.5 6.83301 81.5 20.5s22.5 37.167 22.5 70.5
v271h210v-296z" />
    <glyph glyph-name="uniFE9C" unicode="&#x62b;" horiz-adv-x="750" arabic-form="medial" 
d="M287 916c0 -34 -11.999 -62.998 -35.999 -86.998c-24.667 -22.667 -53.334 -34 -86.001 -34c-18.667 0 -35.5 2.83301 -50.5 8.5s-29.167 13.5 -42.5 23.5c-13.333 11.333 -23.833 24.666 -31.5 39.999s-11.5 31.666 -11.5 48.999c0 70.667 41.667 106 125 106
c88.667 0 133 -35.333 133 -106zM624.001 916.002c0 -17.333 -3.16699 -33.333 -9.5 -48s-15 -27.5 -26 -38.5s-23.833 -19.5 -38.5 -25.5s-30.667 -9 -48 -9c-19.333 0 -36.833 2.83301 -52.5 8.5s-29.834 13.5 -42.501 23.5c-13.333 11.333 -23.666 24.5 -30.999 39.5
s-11 31.5 -11 49.5c0 70.667 42 106 126 106c88.667 0 133 -35.333 133 -106zM453.001 1163c0 -18 -3.33301 -34.3311 -10 -48.998s-15.5 -27.334 -26.5 -38.001s-23.833 -19 -38.5 -25s-30.334 -9 -47.001 -9c-19.333 0 -36.666 3.16699 -51.999 9.5s-29 14.166 -41 23.499
c-28.667 22 -43 51.333 -43 88c0 71.333 41.333 107 124 107c89.333 0 134 -35.667 134 -107zM760.001 119.004h-37.0029c-31.333 0 -58.166 0.666992 -80.499 2s-41.166 3.66602 -56.499 6.99902c-14 6.66699 -28.167 14.334 -42.5 23.001s-29.166 19.667 -44.499 33
c-28 -22 -55.333 -38.333 -82 -49s-52 -16 -76 -16h-383v247h331c38.667 0 65.5 6.83301 80.5 20.5s22.5 37.167 22.5 70.5v271h210v-271c0 -39.333 6.33301 -62 19 -68c10 -8.66699 26.5 -14.667 49.5 -18s52.833 -5 89.5 -5v-247z" />
    <glyph glyph-name="uniFE9E" unicode="&#x62c;" horiz-adv-x="1057" arabic-form="final" 
d="M773 -163c0 -36.667 -13.332 -68 -39.999 -94c-24.667 -26 -56.334 -39 -95.001 -39c-20 0 -38 2.83301 -54 8.5s-30.333 13.5 -43 23.5c-30 26 -45 57.667 -45 95c0 80.667 45 121 135 121c94.667 0 142 -38.333 142 -115zM1078 119
c-94 0 -168.33 12.6699 -222.997 38.0029s-90.667 62.333 -108 111c-0.666992 2 -2.33398 8.33301 -5.00098 19v-1v1c-0.666992 0.666992 -1 1.66699 -1 3v1l-1 -1c-1.33301 4 -2.5 8 -3.5 12s-1.83301 6.66699 -2.5 8l-25 -14l-25 -14l-46.5 -26l-49.5 -27v1l-37.5 -20
l-37.5 -21l-89 -49c-66.667 -40 -118.834 -83.833 -156.501 -131.5s-56.5 -97.167 -56.5 -148.5c0 -75.333 33 -146.333 99 -213c63.333 -64 140.333 -96 231 -96h513l15 -241h-484c-182.667 0 -331.667 66.667 -447 200c-42 50.667 -73.833 105.167 -95.5 163.5
s-32.5 121.5 -32.5 189.5v78c2.66699 0 4 -0.666992 4 -2c9.33301 88 35.5 164.167 78.5 228.5s100.833 116.5 173.5 156.5c5.33301 3.33301 10.333 6.16602 15 8.49902s9.66699 5.16602 15 8.49902l116 61.5l111 59l110.5 59.5l114.5 63c-18 14 -41 24.667 -69 32l1 -1
c-20.667 4 -69.667 7 -147 9c-27.333 1.33301 -68.5 2.5 -123.5 3.5s-119.167 1.83301 -192.5 2.5l-31 241h431c121.333 0 213 -34.167 275 -102.5s94.333 -172.5 97 -312.5l-125 -72c17.333 -6.66699 43.666 -11.334 78.999 -14.001s80.333 -4 135 -4v-247z" />
    <glyph glyph-name="uniFE9F" unicode="&#x62c;" horiz-adv-x="1116" arabic-form="initial" 
d="M371 -180c0 -37.333 -13 -68.333 -39 -93c-24 -26 -55.667 -39 -95 -39c-41.333 0 -75 10.333 -101 31c-28.667 25.333 -43 58 -43 98c0 82 46.333 123 139 123s139 -40 139 -120zM595 231c-44 -24.667 -92.334 -45.168 -145.001 -61.501s-102 -28.166 -148 -35.499
c-23.333 -3.33301 -62 -6.16602 -116 -8.49902s-123.333 -4.5 -208 -6.5v247h153c126.667 0 241 23.667 343 71c8 2.66699 35.167 16.834 81.5 42.501l184.5 104.5c-9.33301 6 -20.5 12 -33.5 18s-27.167 11 -42.5 15l2 -1c-10 1.33301 -52.333 3.16602 -127 5.49902
s-182 5.16602 -322 8.49902l-34 241h442c120 0 210.333 -34.167 271 -102.5s91.334 -172.5 92.001 -312.5z" />
    <glyph glyph-name="uniFEA0" unicode="&#x62c;" horiz-adv-x="1029" arabic-form="medial" 
d="M535 -190c0 -34.667 -13 -66 -39 -94c-24.667 -26.667 -55.667 -40 -93 -40c-40 0 -73 11.333 -99 34c-29.333 26 -44 58 -44 96c0 78.667 45.667 118 137 118c92 0 138 -38 138 -114zM1049 119c-81.333 0 -146.665 11.8359 -195.998 35.5029
s-82.666 56.167 -99.999 97.5c0 1.33301 -1.16699 4.66602 -3.5 9.99902s-4.16602 9.66602 -5.49902 12.999c-0.666992 1.33301 -1.33398 2.83301 -2.00098 4.5s-1 4.16699 -1 7.5c-0.666992 4.66699 -2.33398 10 -5.00098 16l-1 3c-34 -20 -67.5 -38.5 -100.5 -55.5
l-93 -46c-29 -13.667 -55.667 -25.167 -80 -34.5s-45.5 -16.333 -63.5 -21c-34 -8.66699 -85.5 -15.334 -154.5 -20.001s-156.833 -8 -263.5 -10v247h153c58 0 115.333 6 172 18s111 28.667 163 50v-1l32 16.5l52.5 28l79 43.5l110.5 63c-19.333 14 -45 25.333 -77 34
c-4.66699 2 -36.334 3 -95.001 3c-10 0.666992 -30.833 1.33398 -62.5 2.00098s-72.5 1.66699 -122.5 3c-22 0.666992 -48.333 1.16699 -79 1.5s-60.334 1.16602 -89.001 2.49902l-31 241h440c120 0 209.833 -34.667 269.5 -104s90.834 -174 93.501 -314l-132 -73
c14 -5.33301 36.667 -9 68 -11s72.666 -3 123.999 -3v-247z" />
    <glyph glyph-name="uniFEA2" unicode="&#x62d;" horiz-adv-x="1058" arabic-form="final" 
d="M740 290c0.666992 -0.666992 1 -1.16699 1 -1.5s0.333008 -0.833008 1 -1.5zM1078 119c-94 0 -168.33 12.6699 -222.997 38.0029s-90.667 62.333 -108 111c-0.666992 2 -2.33398 8.33301 -5.00098 19v-1v1c-0.666992 0.666992 -1 1.66699 -1 3v1l-1 -1
c-1.33301 4 -2.5 8 -3.5 12s-1.83301 6.66699 -2.5 8l-25 -14l-25 -14l-46.5 -26l-49.5 -27v1l-37.5 -20l-37.5 -21l-89 -49c-66.667 -40 -118.834 -83.833 -156.501 -131.5s-56.5 -97.167 -56.5 -148.5c0 -75.333 33 -146.333 99 -213c63.333 -64 140.333 -96 231 -96h513
l15 -241h-484c-182.667 0 -331.667 66.667 -447 200c-42 50.667 -73.833 105.167 -95.5 163.5s-32.5 121.5 -32.5 189.5v78c2.66699 0 4 -0.666992 4 -2c9.33301 88 35.5 164.167 78.5 228.5s100.833 116.5 173.5 156.5c5.33301 3.33301 10.333 6.16602 15 8.49902
s9.66699 5.16602 15 8.49902l116 61.5l111 59l110.5 59.5l114.5 63c-18 14 -41 24.667 -69 32l1 -1c-20.667 4 -69.667 7 -147 9c-27.333 1.33301 -68.5 2.5 -123.5 3.5s-119.167 1.83301 -192.5 2.5l-31 241h431c121.333 0 213 -34.167 275 -102.5s94.333 -172.5 97 -312.5
l-125 -72c17.333 -6.66699 43.666 -11.334 78.999 -14.001s80.333 -4 135 -4v-247z" />
    <glyph glyph-name="uniFEA3" unicode="&#x62d;" horiz-adv-x="1116" arabic-form="initial" 
d="M595 231c-44 -24.667 -92.334 -45.168 -145.001 -61.501s-102 -28.166 -148 -35.499c-23.333 -3.33301 -62 -6.16602 -116 -8.49902s-123.333 -4.5 -208 -6.5v247h153c126.667 0 241 23.667 343 71c8 2.66699 35.167 16.834 81.5 42.501l184.5 104.5
c-9.33301 6 -20.5 12 -33.5 18s-27.167 11 -42.5 15l2 -1c-10 1.33301 -52.333 3.16602 -127 5.49902s-182 5.16602 -322 8.49902l-34 241h442c120 0 210.333 -34.167 271 -102.5s91.334 -172.5 92.001 -312.5z" />
    <glyph glyph-name="uniFEA4" unicode="&#x62d;" horiz-adv-x="1029" arabic-form="medial" 
d="M749 263c1.33301 -4 2.66699 -7.66699 4 -11c0 -2 -1.66699 0.333008 -5 7zM1049 119c-81.333 0 -146.665 11.8359 -195.998 35.5029s-82.666 56.167 -99.999 97.5c0 1.33301 -1.16699 4.66602 -3.5 9.99902s-4.16602 9.66602 -5.49902 12.999
c-0.666992 1.33301 -1.33398 2.83301 -2.00098 4.5s-1 4.16699 -1 7.5c-0.666992 4.66699 -2.33398 10 -5.00098 16l-1 3c-34 -20 -67.5 -38.5 -100.5 -55.5l-93 -46c-29 -13.667 -55.667 -25.167 -80 -34.5s-45.5 -16.333 -63.5 -21
c-34 -8.66699 -85.5 -15.334 -154.5 -20.001s-156.833 -8 -263.5 -10v247h153c58 0 115.333 6 172 18s111 28.667 163 50v-1l32 16.5l52.5 28l79 43.5l110.5 63c-19.333 14 -45 25.333 -77 34c-4.66699 2 -36.334 3 -95.001 3c-10 0.666992 -30.833 1.33398 -62.5 2.00098
s-72.5 1.66699 -122.5 3c-22 0.666992 -48.333 1.16699 -79 1.5s-60.334 1.16602 -89.001 2.49902l-31 241h440c120 0 209.833 -34.667 269.5 -104s90.834 -174 93.501 -314l-132 -73c14 -5.33301 36.667 -9 68 -11s72.666 -3 123.999 -3v-247z" />
    <glyph glyph-name="uniFEA6" unicode="&#x62e;" horiz-adv-x="1057" arabic-form="final" 
d="M689 1154c0 -38 -12.999 -70 -38.999 -96c-24.667 -26 -55.334 -39 -92.001 -39c-95.333 0 -143 45 -143 135c0 77.333 46 116 138 116c90.667 0 136 -38.667 136 -116zM1078 119c-94 0 -168.33 12.6699 -222.997 38.0029s-90.667 62.333 -108 111
c-0.666992 2 -2.33398 8.33301 -5.00098 19v-1v1c-0.666992 0.666992 -1 1.66699 -1 3v1l-1 -1c-1.33301 4 -2.5 8 -3.5 12s-1.83301 6.66699 -2.5 8l-25 -14l-25 -14l-46.5 -26l-49.5 -27v1l-37.5 -20l-37.5 -21l-89 -49c-66.667 -40 -118.834 -83.833 -156.501 -131.5
s-56.5 -97.167 -56.5 -148.5c0 -75.333 33 -146.333 99 -213c63.333 -64 140.333 -96 231 -96h513l15 -241h-484c-182.667 0 -331.667 66.667 -447 200c-42 50.667 -73.833 105.167 -95.5 163.5s-32.5 121.5 -32.5 189.5v78c2.66699 0 4 -0.666992 4 -2
c9.33301 88 35.5 164.167 78.5 228.5s100.833 116.5 173.5 156.5c5.33301 3.33301 10.333 6.16602 15 8.49902s9.66699 5.16602 15 8.49902l116 61.5l111 59l110.5 59.5l114.5 63c-18 14 -41 24.667 -69 32l1 -1c-20.667 4 -69.667 7 -147 9
c-27.333 1.33301 -68.5 2.5 -123.5 3.5s-119.167 1.83301 -192.5 2.5l-31 241h431c121.333 0 213 -34.167 275 -102.5s94.333 -172.5 97 -312.5l-125 -72c17.333 -6.66699 43.666 -11.334 78.999 -14.001s80.333 -4 135 -4v-247z" />
    <glyph glyph-name="uniFEA7" unicode="&#x62e;" horiz-adv-x="1116" arabic-form="initial" 
d="M662 1151c0 -38 -12.667 -69.667 -38 -95c-13.333 -12.667 -27.5 -22.167 -42.5 -28.5s-32.167 -9.5 -51.5 -9.5c-98 0 -147 44.333 -147 133c0 76 46.667 114 140 114c92.667 0 139 -38 139 -114zM595 231c-44 -24.667 -92.334 -45.168 -145.001 -61.501
s-102 -28.166 -148 -35.499c-23.333 -3.33301 -62 -6.16602 -116 -8.49902s-123.333 -4.5 -208 -6.5v247h153c126.667 0 241 23.667 343 71c8 2.66699 35.167 16.834 81.5 42.501l184.5 104.5c-9.33301 6 -20.5 12 -33.5 18s-27.167 11 -42.5 15l2 -1
c-10 1.33301 -52.333 3.16602 -127 5.49902s-182 5.16602 -322 8.49902l-34 241h442c120 0 210.333 -34.167 271 -102.5s91.334 -172.5 92.001 -312.5z" />
    <glyph glyph-name="uniFEA8" unicode="&#x62e;" horiz-adv-x="1029" arabic-form="medial" 
d="M623 1178c0 -37.333 -12.333 -69.333 -37 -96c-25.333 -26.667 -57.333 -40 -96 -40c-42 0 -76 12.333 -102 37s-39 57.667 -39 99c0 74.667 46 112 138 112c90.667 0 136 -37.333 136 -112zM1049 119c-81.333 0 -146.665 11.8359 -195.998 35.5029
s-82.666 56.167 -99.999 97.5c0 1.33301 -1.16699 4.66602 -3.5 9.99902s-4.16602 9.66602 -5.49902 12.999c-0.666992 1.33301 -1.33398 2.83301 -2.00098 4.5s-1 4.16699 -1 7.5c-0.666992 4.66699 -2.33398 10 -5.00098 16l-1 3c-34 -20 -67.5 -38.5 -100.5 -55.5
l-93 -46c-29 -13.667 -55.667 -25.167 -80 -34.5s-45.5 -16.333 -63.5 -21c-34 -8.66699 -85.5 -15.334 -154.5 -20.001s-156.833 -8 -263.5 -10v247h153c58 0 115.333 6 172 18s111 28.667 163 50v-1l32 16.5l52.5 28l79 43.5l110.5 63c-19.333 14 -45 25.333 -77 34
c-4.66699 2 -36.334 3 -95.001 3c-10 0.666992 -30.833 1.33398 -62.5 2.00098s-72.5 1.66699 -122.5 3c-22 0.666992 -48.333 1.16699 -79 1.5s-60.334 1.16602 -89.001 2.49902l-31 241h440c120 0 209.833 -34.667 269.5 -104s90.834 -174 93.501 -314l-132 -73
c14 -5.33301 36.667 -9 68 -11s72.666 -3 123.999 -3v-247z" />
    <glyph glyph-name="uniFEAA" unicode="&#x62f;" horiz-adv-x="1090" arabic-form="final" 
d="M1109 119l-93.9971 -0.00195312c-30.667 0 -63.834 9.83301 -99.501 29.5s-72.834 47.167 -111.501 82.5c-58 -74.667 -133 -112 -225 -112h-537l-38 247h563c47.333 0 71 8 71 24c0 10 -7 22 -21 36l-404 430l156 156l520 -550c18.667 -20 34.667 -36.167 48 -48.5
s25.666 -21.166 36.999 -26.499c12.667 -7.33301 30 -12.666 52 -15.999s49.667 -5 83 -5v-247z" />
    <glyph glyph-name="uniFEAC" unicode="&#x630;" horiz-adv-x="1090" arabic-form="final" 
d="M392 1226c0 -18.667 -3.16504 -36.166 -9.49805 -52.499s-15.333 -30.333 -27 -42s-25.334 -20.834 -41.001 -27.501s-32.834 -10 -51.501 -10c-96.667 0 -145 44 -145 132c0 76.667 46 115 138 115c90.667 0 136 -38.333 136 -115zM1109 119.001l-93.9971 -0.00195312
c-30.667 0 -63.834 9.83301 -99.501 29.5s-72.834 47.167 -111.501 82.5c-58 -74.667 -133 -112 -225 -112h-537l-38 247h563c47.333 0 71 8 71 24c0 10 -7 22 -21 36l-404 430l156 156l520 -550c18.667 -20 34.667 -36.167 48 -48.5s25.666 -21.166 36.999 -26.499
c12.667 -7.33301 30 -12.666 52 -15.999s49.667 -5 83 -5v-247z" />
    <glyph glyph-name="uniFEAE" unicode="&#x631;" horiz-adv-x="700" arabic-form="final" 
d="M725 119c-40 0 -74.668 4.66602 -104.001 13.999s-54.666 23.333 -75.999 42c-5.33301 -62 -17.333 -119.333 -36 -172s-43 -99.667 -73 -141c-40.667 -53.333 -89.5 -94.666 -146.5 -123.999s-120.5 -44 -190.5 -44h-232l-41 247h264c32 0 62.667 5 92 15s55 24 77 42
c23.333 22 41.833 45.833 55.5 71.5s20.5 51.167 20.5 76.5v582h210v-282c0 -49.333 60 -76 180 -80v-247z" />
    <glyph glyph-name="uniFEB0" unicode="&#x632;" horiz-adv-x="700" arabic-form="final" 
d="M538 1154c0 -38.667 -12.667 -70.667 -38 -96c-24.667 -26 -56.667 -39 -96 -39c-96.667 0 -145 45 -145 135c0 75.333 46 113 138 113c94 0 141 -37.667 141 -113zM725 119c-40 0 -74.668 4.66602 -104.001 13.999s-54.666 23.333 -75.999 42
c-5.33301 -62 -17.333 -119.333 -36 -172s-43 -99.667 -73 -141c-40.667 -53.333 -89.5 -94.666 -146.5 -123.999s-120.5 -44 -190.5 -44h-232l-41 247h264c32 0 62.667 5 92 15s55 24 77 42c23.333 22 41.833 45.833 55.5 71.5s20.5 51.167 20.5 76.5v582h210v-282
c0 -49.333 60 -76 180 -80v-247z" />
    <glyph glyph-name="uniFEB2" unicode="&#x633;" horiz-adv-x="2233" arabic-form="final" 
d="M2221 119c-78.667 2 -130.998 7.66504 -156.998 16.998l1 -1c-16.667 4.66699 -33.334 12.334 -50.001 23.001s-32 25.667 -46 45c-28 -32.667 -59.5 -57.667 -94.5 -75s-73.5 -26 -115.5 -26c-40 0 -78.833 9.5 -116.5 28.5s-73.5 46.5 -107.5 82.5
c-30 -35.333 -63.5 -63.5 -100.5 -84.5s-74.5 -31.5 -112.5 -31.5c-24.667 0 -49.5 4.66699 -74.5 14s-50.5 24 -76.5 44c-5.33301 -58.667 -17.166 -114.167 -35.499 -166.5s-42.166 -97.833 -71.499 -136.5c-43.333 -52 -91.833 -91.333 -145.5 -118
s-113.5 -40 -179.5 -40h-263c-62 0 -118.833 11.667 -170.5 35s-99.5 58 -143.5 104c-80 86 -120 198.667 -120 338v387h208v-396c0 -62 23.333 -115.333 70 -160c21.333 -20.667 46.666 -36 75.999 -46s62.666 -15 99.999 -15h220c78.667 0 138.667 20.333 180 61
c46.667 44 70 97.333 70 160v566h207v-289c0 -11.333 3.33301 -23.333 10 -36s15.667 -24 27 -34c21.333 -18.667 51 -28 89 -28c62.667 0 94 22 94 66v321h204v-287c0 -11.333 3.5 -23 10.5 -35s16.5 -24 28.5 -36v1c23.333 -20 52.333 -30 87 -30c65.333 0 98 22 98 66
v321h205v-301c0 -8.66699 4.16699 -17.167 12.5 -25.5s20.166 -16.166 35.499 -23.499l-1 1c10 -4 59.333 -9 148 -15v-245z" />
    <glyph glyph-name="uniFEB3" unicode="&#x633;" horiz-adv-x="1554" arabic-form="initial" 
d="M1363 427c0 -47.333 -5.49902 -90.002 -16.499 -128.002s-25.5 -69.667 -43.5 -95c-50.667 -62.667 -117.667 -94 -201 -94c-35.333 0 -73 8.66699 -113 26s-78 42 -114 74c-33.333 -35.333 -66.833 -60.5 -100.5 -75.5s-68.167 -22.5 -103.5 -22.5
c-16.667 0 -34.667 1.5 -54 4.5s-39 10.333 -59 22s-39.833 25.334 -59.5 41.001s-38.834 32.834 -57.501 51.501c-34.667 -38 -70.5 -66.167 -107.5 -84.5s-74.5 -27.5 -112.5 -27.5h-232v247h221c64 0 96 29.333 96 88v274h207v-287c0 -24.667 11.667 -48.667 35 -72v1
c20 -19.333 49.667 -29 89 -29c65.333 0 98 22 98 66v321h202v-287c0 -23.333 12.333 -47.333 37 -72v1c19.333 -19.333 49 -29 89 -29c63.333 0 95 22 95 66v321h205v-301z" />
    <glyph glyph-name="uniFEB4" unicode="&#x633;" horiz-adv-x="1560" arabic-form="medial" 
d="M1566 119c-76 0 -128.001 5.66504 -156.001 16.998v-1c-15.333 4 -31.5 12.333 -48.5 25s-32.5 27 -46.5 43c-28 -36.667 -57.667 -59.834 -89 -69.501s-66 -14.5 -104 -14.5c-36 0 -74 6.5 -114 19.5s-79.333 36.5 -118 70.5c-34.667 -36 -72.5 -60 -113.5 -72
s-85.167 -18 -132.5 -18c-41.333 0 -81 6.83301 -119 20.5s-73 38.5 -105 74.5c-44 -46 -104.667 -74.667 -182 -86c-40.667 -6 -122 -9 -244 -9v247h162c59.333 0 99 6.66699 119 20c26 15.333 39 44.333 39 87v255h203v-289c0 -11.333 3.33301 -23.166 10 -35.499
s15.334 -23.5 26.001 -33.5c22 -19.333 51 -29 87 -29c63.333 0 95 22 95 66v321h208v-287c0 -23.333 12.667 -46.666 38 -69.999c20 -20 49.667 -30 89 -30c62 0 93 22 93 66v321h208v-301c0 -17.333 16 -33.666 48 -48.999v1c32.667 -10 81.667 -15 147 -15v-245z" />
    <glyph glyph-name="uniFEB6" unicode="&#x634;" horiz-adv-x="2233" arabic-form="final" 
d="M1507 1041c-18 0 -34.666 3 -49.999 9s-29.333 13.667 -42 23h1c-29.333 19.333 -44 48 -44 86c0 70.667 42 106 126 106c31.333 0 59.666 -8 84.999 -24c29.333 -21.333 44 -46.333 44 -75c0 -17.333 -3 -33 -9 -47s-14.667 -27.667 -26 -41
c-24.667 -24.667 -53 -37 -85 -37zM1458 913c0 -16.667 -3.33301 -32.333 -10 -47s-15.667 -27.667 -27 -39c-12 -10 -25.167 -18 -39.5 -24s-29.5 -9 -45.5 -9c-16.667 0 -33.167 3 -49.5 9s-30.5 13.333 -42.5 22c-13.333 9.33301 -23.833 21.5 -31.5 36.5
s-11.5 32.167 -11.5 51.5c0 69.333 41.333 104 124 104c88.667 0 133 -34.667 133 -104zM1799 913.001c0 -16.667 -3.5 -32.333 -10.5 -47s-16.167 -27.667 -27.5 -39c-11.333 -10 -24.333 -18 -39 -24s-30.667 -9 -48 -9c-18 0 -34.833 2.83301 -50.5 8.5
s-29.5 13.167 -41.5 22.5c-28.667 20.667 -43 50 -43 88c0 69.333 41.333 104 124 104c90.667 0 136 -34.667 136 -104zM2221 119.002c-78.667 2 -130.998 7.66504 -156.998 16.998l1 -1c-16.667 4.66699 -33.334 12.334 -50.001 23.001s-32 25.667 -46 45
c-28 -32.667 -59.5 -57.667 -94.5 -75s-73.5 -26 -115.5 -26c-40 0 -78.833 9.5 -116.5 28.5s-73.5 46.5 -107.5 82.5c-30 -35.333 -63.5 -63.5 -100.5 -84.5s-74.5 -31.5 -112.5 -31.5c-24.667 0 -49.5 4.66699 -74.5 14s-50.5 24 -76.5 44
c-5.33301 -58.667 -17.166 -114.167 -35.499 -166.5s-42.166 -97.833 -71.499 -136.5c-43.333 -52 -91.833 -91.333 -145.5 -118s-113.5 -40 -179.5 -40h-263c-62 0 -118.833 11.667 -170.5 35s-99.5 58 -143.5 104c-80 86 -120 198.667 -120 338v387h208v-396
c0 -62 23.333 -115.333 70 -160c21.333 -20.667 46.666 -36 75.999 -46s62.666 -15 99.999 -15h220c78.667 0 138.667 20.333 180 61c46.667 44 70 97.333 70 160v566h207v-289c0 -11.333 3.33301 -23.333 10 -36s15.667 -24 27 -34c21.333 -18.667 51 -28 89 -28
c62.667 0 94 22 94 66v321h204v-287c0 -11.333 3.5 -23 10.5 -35s16.5 -24 28.5 -36v1c23.333 -20 52.333 -30 87 -30c65.333 0 98 22 98 66v321h205v-301c0 -8.66699 4.16699 -17.167 12.5 -25.5s20.166 -16.166 35.499 -23.499l-1 1c10 -4 59.333 -9 148 -15v-245z" />
    <glyph glyph-name="uniFEB7" unicode="&#x634;" horiz-adv-x="1554" arabic-form="initial" 
d="M1105 916c0 -36.667 -11.167 -66 -33.5 -88s-50.5 -33 -84.5 -33s-65.333 10.333 -94 31c-26.667 22 -40 52 -40 90c0 68.667 40 103 120 103c88 0 132 -34.333 132 -103zM771 916c0 -34 -12 -63.0029 -36 -87.0029c-24 -22.667 -52.667 -34 -86 -34
c-18 0 -35 2.83301 -51 8.5s-30 13.834 -42 24.501s-21.5 23.334 -28.5 38.001s-10.5 31.334 -10.5 50.001c0 68.667 40.667 103 122 103c88 0 132 -34.333 132 -103zM938 1163c0 -17.333 -3.5 -33.668 -10.5 -49.001s-16.167 -28.666 -27.5 -39.999
c-11.333 -9.33301 -24 -17 -38 -23s-29 -9 -45 -9c-18 0 -35 3.16699 -51 9.5s-30 14.5 -42 24.5c-28.667 22.667 -43 51.667 -43 87c0 69.333 40.667 104 122 104c90 0 135 -34.667 135 -104zM1363 426.995c0 -47.333 -5.49902 -90.0029 -16.499 -128.003
s-25.5 -69.667 -43.5 -95c-50.667 -69.333 -117.667 -104 -201 -104c-35.333 0 -73 10.333 -113 31s-78 47 -114 79c-33.333 -35.333 -66.833 -62.166 -100.5 -80.499s-68.167 -27.5 -103.5 -27.5c-16.667 0 -34.667 3.16699 -54 9.5s-39 15.333 -59 27
s-39.833 25.334 -59.5 41.001s-38.834 32.834 -57.501 51.501c-34.667 -38 -70.5 -66.167 -107.5 -84.5s-74.5 -27.5 -112.5 -27.5h-232v247h221c64 0 96 29.333 96 88v274h207v-287c0 -24.667 11.667 -48.667 35 -72v1c20 -19.333 49.667 -29 89 -29c65.333 0 98 22 98 66
v321h202v-287c0 -23.333 12.333 -47.333 37 -72v1c19.333 -19.333 49 -29 89 -29c63.333 0 95 22 95 66v321h205v-301z" />
    <glyph glyph-name="uniFEB8" unicode="&#x634;" horiz-adv-x="1560" arabic-form="medial" 
d="M789 1093c-19.333 0 -36.502 2.66797 -51.502 8.00098s-28.833 12.666 -41.5 21.999c-29.333 25.333 -44 54.333 -44 87c0 73.333 42.667 110 128 110c17.333 0 33 -2.33301 47 -7s26.667 -10.667 38 -18c30 -20.667 45 -47.334 45 -80.001c0 -16 -3 -31.5 -9 -46.5
s-13.667 -28.167 -23 -39.5c-11.333 -11.333 -24.666 -20.166 -39.999 -26.499s-31.666 -9.5 -48.999 -9.5zM1081 965.001c0 -32.667 -12.333 -60.3311 -37 -82.998s-53.334 -34 -86.001 -34c-18.667 0 -36.167 2.83301 -52.5 8.5s-30.666 13.667 -42.999 24
s-22 22.666 -29 36.999s-10.5 30.166 -10.5 47.499c0 72 41 108 123 108c90 0 135 -36 135 -108zM741.998 965.004c0 -32 -12.667 -59.667 -38 -83c-12.667 -11.333 -25.834 -19.833 -39.501 -25.5s-29.167 -8.5 -46.5 -8.5c-35.333 0 -65.666 9.66699 -90.999 29
c-29.333 22.667 -44 52 -44 88c0 72 41.667 108 125 108c89.333 0 134 -36 134 -108zM1566 119.004c-76 2 -128.001 7.66406 -156.001 16.9971v-1c-15.333 4 -31.5 12.333 -48.5 25s-32.5 27 -46.5 43c-28 -36.667 -57.667 -63 -89 -79s-66 -24 -104 -24
c-36 0 -74 9.66699 -114 29s-79.333 46 -118 80c-34.667 -36 -72.5 -63.167 -113.5 -81.5s-85.167 -27.5 -132.5 -27.5c-41.333 0 -81 10 -119 30s-73 48 -105 84c-44 -46 -104.667 -74.667 -182 -86c-40.667 -6 -122 -9 -244 -9v247h162c59.333 0 99 6.66699 119 20
c26 15.333 39 44.333 39 87v255h203v-289c0 -11.333 3.33301 -23.166 10 -35.499s15.334 -23.5 26.001 -33.5c22 -19.333 51 -29 87 -29c63.333 0 95 22 95 66v321h208v-287c0 -23.333 12.667 -46.666 38 -69.999c20 -20 49.667 -30 89 -30c62 0 93 22 93 66v321h208v-301
c0 -17.333 16 -33.666 48 -48.999v1c9.33301 -4 58.333 -9 147 -15v-245z" />
    <glyph glyph-name="uniFEBA" unicode="&#x635;" horiz-adv-x="2171" arabic-form="final" 
d="M1877 499c0 82 -27.667 123 -83 123c-40.667 0 -83.5 -22.333 -128.5 -67s-90.5 -107.667 -136.5 -189h276c48 0 72 44.333 72 133zM2162 119h-789.002c-94 0 -164 20 -210 60c-4.66699 -62.667 -15 -121.167 -31 -175.5s-37.333 -100.833 -64 -139.5
c-83.333 -113.333 -197.333 -170 -342 -170h-262c-127.333 0 -232.333 49.333 -315 148c-73.333 88.667 -110 203.667 -110 345v371h203v-412c0 -51.333 23.333 -99 70 -143c43.333 -41.333 98.333 -62 165 -62h238c62.667 0 117.334 21.333 164.001 64
c51.333 45.333 77 92.333 77 141v582h208v-289c0 -22.667 12 -40 36 -52s57.667 -19 101 -21c68.667 162 142.334 286.833 221.001 374.5s161 131.5 247 131.5c119.333 0 212.333 -63 279 -189c14 -26.667 24.333 -57.5 31 -92.5s10 -74.167 10 -117.5
c0 -36 -4 -71.667 -12 -107h85v-247z" />
    <glyph glyph-name="uniFEBB" unicode="&#x635;" horiz-adv-x="1612" arabic-form="initial" 
d="M1214 490c0 58.667 -13.666 97.667 -40.999 117c-10 10 -24.333 15 -43 15c-40.667 0 -83.834 -21.833 -129.501 -65.5s-92.5 -107.167 -140.5 -190.5h279c50 0 75 41.333 75 124zM1420 488c0 -12 -0.665039 -25.167 -1.99805 -39.5s-3 -28.666 -5 -42.999
s-4.33301 -28.333 -7 -42s-5.33398 -25.834 -8.00098 -36.501c-12.667 -42 -27.667 -78.167 -45 -108.5s-37 -52.166 -59 -65.499c-41.333 -22.667 -103.666 -34 -186.999 -34h-428c-52.667 0 -99.667 11.5 -141 34.5s-75.333 54.5 -102 94.5
c-68.667 -86 -142.667 -129 -222 -129h-224v247h204c66.667 0 100 29.333 100 88v274h206v-257c0 -66.667 44.333 -101.667 133 -105c134.667 336.667 292.667 505 474 505c21.333 0 44.166 -4.16699 68.499 -12.5s48.166 -18.833 71.499 -31.5
c56.667 -32.667 99.667 -77.334 129 -134.001s44 -125 44 -205z" />
    <glyph glyph-name="uniFEBC" unicode="&#x635;" horiz-adv-x="1549" arabic-form="medial" 
d="M1217 490c0 58.667 -13.334 97.667 -40.001 117c-10 10 -24.333 15 -43 15c-41.333 0 -84.666 -21.833 -129.999 -65.5s-92 -107.167 -140 -190.5h279c49.333 0 74 41.333 74 124zM1555 119l-872 -0.00195312c-52.667 0 -99.667 11.5 -141 34.5s-75.333 54.5 -102 94.5
c-68.667 -86 -143 -129 -223 -129h-223v247h204c66.667 0 100 29.333 100 88v274h205v-257c0 -66.667 44.667 -101.667 134 -105c134.667 336.667 293 505 475 505c23.333 0 46.833 -3.83301 70.5 -11.5s47.167 -18.5 70.5 -32.5c56 -33.333 98.5 -78.666 127.5 -135.999
s43.5 -126.333 43.5 -207c0 -16.667 -1 -35.167 -3 -55.5s-5.33301 -41.166 -10 -62.499h144v-247z" />
    <glyph glyph-name="uniFEBE" unicode="&#x636;" horiz-adv-x="2171" arabic-form="final" 
d="M1785 1148c0 -37.333 -13.002 -68.667 -39.002 -94c-13.333 -12.667 -27.666 -22.167 -42.999 -28.5s-32.666 -9.5 -51.999 -9.5c-95.333 0 -143 44 -143 132c0 75.333 46 113 138 113c92.667 0 139 -37.667 139 -113zM1877 498.999c0 82 -27.667 123 -83 123
c-40.667 0 -83.5 -22.333 -128.5 -67s-90.5 -107.667 -136.5 -189h276c48 0 72 44.333 72 133zM2162 118.999h-789.002c-94 0 -164 20 -210 60c-4.66699 -62.667 -15 -121.167 -31 -175.5s-37.333 -100.833 -64 -139.5c-83.333 -113.333 -197.333 -170 -342 -170h-262
c-127.333 0 -232.333 49.333 -315 148c-73.333 88.667 -110 203.667 -110 345v371h203v-412c0 -51.333 23.333 -99 70 -143c43.333 -41.333 98.333 -62 165 -62h238c62.667 0 117.334 21.333 164.001 64c51.333 45.333 77 92.333 77 141v582h208v-289
c0 -22.667 12 -40 36 -52s57.667 -19 101 -21c68.667 162 142.334 286.833 221.001 374.5s161 131.5 247 131.5c119.333 0 212.333 -63 279 -189c14 -26.667 24.333 -57.5 31 -92.5s10 -74.167 10 -117.5c0 -36 -4 -71.667 -12 -107h85v-247z" />
    <glyph glyph-name="uniFEBF" unicode="&#x636;" horiz-adv-x="1612" arabic-form="initial" 
d="M1026 1173c0 -36.667 -13.001 -69 -39.001 -97c-25.333 -25.333 -56.666 -38 -93.999 -38c-48 0 -83.667 11 -107 33s-35 56 -35 102c0 74.667 45.333 112 136 112c92.667 0 139 -37.333 139 -112zM1214 490c0 58.667 -13.666 97.667 -40.999 117
c-10 10 -24.333 15 -43 15c-40.667 0 -83.834 -21.833 -129.501 -65.5s-92.5 -107.167 -140.5 -190.5h279c50 0 75 41.333 75 124zM1420 488c0 -12 -0.665039 -25.167 -1.99805 -39.5s-3 -28.666 -5 -42.999s-4.33301 -28.333 -7 -42s-5.33398 -25.834 -8.00098 -36.501
c-12.667 -42 -27.667 -78.167 -45 -108.5s-37 -52.166 -59 -65.499c-41.333 -22.667 -103.666 -34 -186.999 -34h-428c-52.667 0 -99.667 11.5 -141 34.5s-75.333 54.5 -102 94.5c-68.667 -86 -142.667 -129 -222 -129h-224v247h204c66.667 0 100 29.333 100 88v274h206
v-257c0 -66.667 44.333 -101.667 133 -105c134.667 336.667 292.667 505 474 505c21.333 0 44.166 -4.16699 68.499 -12.5s48.166 -18.833 71.499 -31.5c56.667 -32.667 99.667 -77.334 129 -134.001s44 -125 44 -205z" />
    <glyph glyph-name="uniFEC0" unicode="&#x636;" horiz-adv-x="1549" arabic-form="medial" 
d="M1034 1177c0 -37.333 -13.667 -69.333 -41 -96c-26.667 -26 -59 -39 -97 -39c-94.667 0 -142 45 -142 135c0 75.333 45.667 113 137 113c95.333 0 143 -37.667 143 -113zM1217 490c0 58.667 -13.334 97.667 -40.001 117c-10 10 -24.333 15 -43 15
c-41.333 0 -84.666 -21.833 -129.999 -65.5s-92 -107.167 -140 -190.5h279c49.333 0 74 41.333 74 124zM1555 119l-872 -0.00195312c-52.667 0 -99.667 11.5 -141 34.5s-75.333 54.5 -102 94.5c-68.667 -86 -143 -129 -223 -129h-223v247h204c66.667 0 100 29.333 100 88
v274h205v-257c0 -66.667 44.667 -101.667 134 -105c134.667 336.667 293 505 475 505c23.333 0 46.833 -3.83301 70.5 -11.5s47.167 -18.5 70.5 -32.5c56 -33.333 98.5 -78.666 127.5 -135.999s43.5 -126.333 43.5 -207c0 -16.667 -1 -35.167 -3 -55.5
s-5.33301 -41.166 -10 -62.499h144v-247z" />
    <glyph glyph-name="uniFEC2" unicode="&#x637;" horiz-adv-x="981" arabic-form="final" 
d="M728 503c0 79.333 -27.333 119 -82 119c-25.333 0 -52.833 -9.83301 -82.5 -29.5s-60.167 -47.834 -91.5 -84.501c-17.333 -21.333 -34.833 -44.666 -52.5 -69.999s-33.167 -49.333 -46.5 -72h277c24 0 44.667 14.667 62 44c5.33301 7.33301 9.33301 18.833 12 34.5
s4 35.167 4 58.5zM1003 119h-953l-51 247h153v911h206v-571c99.333 110 189.333 165 270 165c36.667 0 82 -14.333 136 -43c114.667 -65.333 172 -191.333 172 -378c0 -12.667 -0.833008 -26.167 -2.5 -40.5s-4.5 -28.833 -8.5 -43.5h78v-247z" />
    <glyph glyph-name="uniFEC3" unicode="&#x637;" horiz-adv-x="1082" arabic-form="initial" 
d="M608 621c-26 0 -53.5 -9.33203 -82.5 -27.999s-59.5 -47.334 -91.5 -86.001c-21.333 -25.333 -40.5 -49.5 -57.5 -72.5s-31.5 -45.833 -43.5 -68.5h282c52.667 0 79 37.333 79 112c0 95.333 -28.667 143 -86 143zM-24 119.001l0.000976562 246.999h143v911h208v-571
c99.333 109.333 188.666 164 267.999 164c89.333 0 166.333 -44 231 -132c52 -72.667 78 -161 78 -265c0 -103.333 -22.333 -184.666 -67 -243.999c-55.333 -73.333 -129.333 -110 -222 -110h-639z" />
    <glyph glyph-name="uniFEC4" unicode="&#x637;" horiz-adv-x="943" arabic-form="medial" 
d="M677 503c0 79.333 -27 119 -81 119c-25.333 0 -53.5 -10.5 -84.5 -31.5s-61.833 -48.833 -92.5 -83.5v1c-17.333 -22 -34.5 -45.5 -51.5 -70.5s-32.167 -48.833 -45.5 -71.5h278c22.667 0 41.667 14 57 42c7.33301 8.66699 12.5 21.167 15.5 37.5s4.5 35.5 4.5 57.5z
M965 119h-987.002v247h123v911h202v-573c48.667 51.333 96.834 92 144.501 122s91.167 45 130.5 45c17.333 0 37.5 -3.83301 60.5 -11.5s47.167 -18.167 72.5 -31.5c53.333 -30 94.5 -74.333 123.5 -133s43.5 -131.334 43.5 -218.001
c0 -21.333 -0.666992 -41.166 -2 -59.499s-3.66602 -35.5 -6.99902 -51.5h96v-247z" />
    <glyph glyph-name="uniFEC6" unicode="&#x638;" horiz-adv-x="981" arabic-form="final" 
d="M789 1161c0 -18.667 -3.33398 -36 -10.001 -52s-16 -29.667 -28 -41s-26.167 -20.333 -42.5 -27s-34.166 -10 -53.499 -10c-94 0 -141 43.333 -141 130c0 76.667 45.667 115 137 115c92 0 138 -38.333 138 -115zM727.999 503c0 79.333 -27.333 119 -82 119
c-25.333 0 -52.833 -9.83301 -82.5 -29.5s-60.167 -47.834 -91.5 -84.501c-17.333 -21.333 -34.833 -44.666 -52.5 -69.999s-33.167 -49.333 -46.5 -72h277c24 0 44.667 14.667 62 44c5.33301 7.33301 9.33301 18.833 12 34.5s4 35.167 4 58.5zM1003 119h-953l-51 247h153
v911h206v-571c99.333 110 189.333 165 270 165c36.667 0 82 -14.333 136 -43c114.667 -65.333 172 -191.333 172 -378c0 -12.667 -0.833008 -26.167 -2.5 -40.5s-4.5 -28.833 -8.5 -43.5h78v-247z" />
    <glyph glyph-name="uniFEC7" unicode="&#x638;" horiz-adv-x="1082" arabic-form="initial" 
d="M745 1146c0 -20 -3.33301 -38.332 -10 -54.999s-16 -30.834 -28 -42.501s-26 -20.667 -42 -27s-33.333 -9.5 -52 -9.5c-95.333 0 -143 44.667 -143 134c0 76 45.667 114 137 114c92 0 138 -38 138 -114zM608 621.001c-26 0 -53.5 -9.33203 -82.5 -27.999
s-59.5 -47.334 -91.5 -86.001c-21.333 -25.333 -40.5 -49.5 -57.5 -72.5s-31.5 -45.833 -43.5 -68.5h282c52.667 0 79 37.333 79 112c0 95.333 -28.667 143 -86 143zM-24 119.002l0.000976562 246.999h143v911h208v-571c99.333 109.333 188.666 164 267.999 164
c89.333 0 166.333 -44 231 -132c52 -72.667 78 -161 78 -265c0 -103.333 -22.333 -184.666 -67 -243.999c-55.333 -73.333 -129.333 -110 -222 -110h-639z" />
    <glyph glyph-name="uniFEC8" unicode="&#x638;" horiz-adv-x="944" arabic-form="medial" 
d="M772 1177c0 -38 -13.333 -70.333 -40 -97c-24.667 -26 -55.667 -39 -93 -39c-96 0 -144 45.333 -144 136c0 74.667 45.333 112 136 112c94 0 141 -37.333 141 -112zM677 503c0 79.333 -27 119 -81 119c-25.333 0 -53.5 -10.5 -84.5 -31.5s-61.833 -48.833 -92.5 -83.5v1
c-17.333 -22 -34.5 -45.5 -51.5 -70.5s-32.167 -48.833 -45.5 -71.5h278c22.667 0 41.667 14 57 42c7.33301 8.66699 12.5 21.167 15.5 37.5s4.5 35.5 4.5 57.5zM965 119h-987.002v247h123v911h202v-573c48.667 51.333 96.834 92 144.501 122s91.167 45 130.5 45
c17.333 0 37.5 -3.83301 60.5 -11.5s47.167 -18.167 72.5 -31.5c53.333 -30 94.5 -74.333 123.5 -133s43.5 -131.334 43.5 -218.001c0 -21.333 -0.666992 -41.166 -2 -59.499s-3.66602 -35.5 -6.99902 -51.5h96v-247z" />
    <glyph glyph-name="uniFECA" unicode="&#x639;" horiz-adv-x="1060" arabic-form="final" 
d="M627 513c44.667 24.667 78.833 45.833 102.5 63.5s36.167 31.167 37.5 40.5c-0.666992 -4 -7 -2.66699 -19 4c-13.333 7.33301 -28.333 11 -45 11h-187l4 -4l27 -30v1l22 -23.5l22 -22.5l17.5 -19.5zM1080 118.999c-62 0 -115.833 1.49707 -161.5 4.49707
s-81.5 7.16699 -107.5 12.5v-1c-42 8 -81.667 21.5 -119 40.5s-70 41.5 -98 67.5c-60.667 -27.333 -114.667 -56.166 -162 -86.499s-87.333 -61.833 -120 -94.5s-57.667 -66.167 -75 -100.5s-26 -69.5 -26 -105.5c0 -71.333 35.667 -144 107 -218v1
c60.667 -58.667 132 -88 214 -88h508l23 -241h-485c-74.667 0 -146 14 -214 42s-130.667 68 -188 120c-54 52 -95.167 111.333 -123.5 178s-42.5 141.334 -42.5 224.001c0 117.333 33.333 220 100 308s168 164.333 304 229l-70 70l-31.5 31l-35 34l-34 33.5l-29.5 29.5
l32 58l37 69l37.5 71l33.5 64h366c58.667 0 108 -12.667 148 -38s70.333 -61.333 91 -108c11.333 -28 17 -55.333 17 -82c0 -40 -5.83301 -77 -17.5 -111s-27.167 -62.667 -46.5 -86c-21.333 -24 -47 -47.667 -77 -71c28 -3.33301 62 -5.66602 102 -6.99902
s87.667 -2 143 -2v-247z" />
    <glyph glyph-name="uniFECB" unicode="&#x639;" horiz-adv-x="1033" arabic-form="initial" 
d="M863 119h-888v247h217c-10 30 -18 60.333 -24 91s-9 58.667 -9 84c0 38 5.33301 73.667 16 107s25 62.666 43 87.999c21.333 29.333 45.5 53.833 72.5 73.5s55.5 33.834 85.5 42.501c21.333 6.66699 44.333 11.5 69 14.5s50.667 4.5 78 4.5
c93.333 0 191 -51.333 293 -154l-116 -184c-92 70 -167 105 -225 105c-76.667 0 -115 -41.333 -115 -124c0 -17.333 2.83301 -34.833 8.5 -52.5s13.167 -35.167 22.5 -52.5c16 -28.667 45.333 -43 88 -43h349z" />
    <glyph glyph-name="uniFECC" unicode="&#x639;" horiz-adv-x="829" arabic-form="medial" 
d="M421 514c44.667 23.333 79.168 43.6689 103.501 61.002s37.166 30.666 38.499 39.999c-1.33301 -3.33301 -7.33301 -1.66602 -18 5.00098c-6.66699 3.33301 -13.5 6.16602 -20.5 8.49902s-13.5 3.5 -19.5 3.5h-192l15 -17.5c4.66699 -5.66699 9.66699 -11.167 15 -16.5
c4 -4.66699 8.33301 -9.33398 13 -14.001s8.66699 -9 12 -13v1l25.5 -28zM855.001 119.003c-58.667 0 -108.333 1.5 -149 4.5s-72.334 7.83301 -95.001 14.5c-22.667 7.33301 -50.834 20 -84.501 38s-67.167 39.667 -100.5 65c-34.667 -27.333 -69.667 -50.333 -105 -69
s-68.666 -32 -99.999 -40c-12.667 -2 -39.667 -4 -81 -6s-96.666 -4.33301 -165.999 -7v247c126.667 0 214.334 10 263.001 30l-42 42.5l-44 43.5l-32 31.5l-34 33l-34 32.5l-31 30l32 58l36.5 69l37 71c12.333 23.333 23.166 44.666 32.499 63.999h370
c121.333 0 201 -48.333 239 -145c11.333 -30.667 17 -58.334 17 -83.001c0 -41.333 -5.33301 -78.166 -16 -110.499s-26 -59.833 -46 -82.5c-9.33301 -10 -20.5 -20.667 -33.5 -32s-28.167 -23.666 -45.5 -36.999c54 -10 124.667 -15 212 -15v-247z" />
    <glyph glyph-name="uniFECE" unicode="&#x63a;" horiz-adv-x="1060" arabic-form="final" 
d="M787 1154c0 -38 -13 -70 -39 -96c-24.667 -26 -56.667 -39 -96 -39c-95.333 0 -143 45 -143 135c0 75.333 46.333 113 139 113s139 -37.667 139 -113zM627 513c44.667 24.667 78.833 45.833 102.5 63.5s36.167 31.167 37.5 40.5c-0.666992 -4 -7 -2.66699 -19 4
c-13.333 7.33301 -28.333 11 -45 11h-187l4 -4l27 -30v1l22 -23.5l22 -22.5l17.5 -19.5zM1080 118.999c-62 0 -115.833 1.49707 -161.5 4.49707s-81.5 7.16699 -107.5 12.5v-1c-42 8 -81.667 21.5 -119 40.5s-70 41.5 -98 67.5
c-60.667 -27.333 -114.667 -56.166 -162 -86.499s-87.333 -61.833 -120 -94.5s-57.667 -66.167 -75 -100.5s-26 -69.5 -26 -105.5c0 -71.333 35.667 -144 107 -218v1c60.667 -58.667 132 -88 214 -88h508l23 -241h-485c-74.667 0 -146 14 -214 42s-130.667 68 -188 120
c-54 52 -95.167 111.333 -123.5 178s-42.5 141.334 -42.5 224.001c0 117.333 33.333 220 100 308s168 164.333 304 229l-70 70l-31.5 31l-35 34l-34 33.5l-29.5 29.5l32 58l37 69l37.5 71l33.5 64h366c58.667 0 108 -12.667 148 -38s70.333 -61.333 91 -108
c11.333 -28 17 -55.333 17 -82c0 -40 -5.83301 -77 -17.5 -111s-27.167 -62.667 -46.5 -86c-21.333 -24 -47 -47.667 -77 -71c28 -3.33301 62 -5.66602 102 -6.99902s87.667 -2 143 -2v-247z" />
    <glyph glyph-name="uniFECF" unicode="&#x63a;" horiz-adv-x="1033" arabic-form="initial" 
d="M610 1151c0 -37.333 -13 -69 -39 -95c-26.667 -25.333 -57.667 -38 -93 -38c-97.333 0 -146 44.333 -146 133c0 76 46.333 114 139 114s139 -38 139 -114zM863 119h-888v247h217c-10 30 -18 60.333 -24 91s-9 58.667 -9 84c0 38 5.33301 73.667 16 107
s25 62.666 43 87.999c21.333 29.333 45.5 53.833 72.5 73.5s55.5 33.834 85.5 42.501c21.333 6.66699 44.333 11.5 69 14.5s50.667 4.5 78 4.5c93.333 0 191 -51.333 293 -154l-116 -184c-92 70 -167 105 -225 105c-76.667 0 -115 -41.333 -115 -124
c0 -17.333 2.83301 -34.833 8.5 -52.5s13.167 -35.167 22.5 -52.5c16 -28.667 45.333 -43 88 -43h349z" />
    <glyph glyph-name="uniFED0" unicode="&#x63a;" horiz-adv-x="832" arabic-form="medial" 
d="M522 1177c0 -37.333 -13.333 -69.333 -40 -96c-26.667 -26 -58.667 -39 -96 -39c-92 0 -138 45 -138 135c0 75.333 44 113 132 113c94.667 0 142 -37.667 142 -113zM421 514c44.667 23.333 79.168 43.6689 103.501 61.002s37.166 30.666 38.499 39.999
c-1.33301 -3.33301 -7.33301 -1.66602 -18 5.00098c-6.66699 3.33301 -13.5 6.16602 -20.5 8.49902s-13.5 3.5 -19.5 3.5h-192l15 -17.5c4.66699 -5.66699 9.66699 -11.167 15 -16.5c4 -4.66699 8.33301 -9.33398 13 -14.001s8.66699 -9 12 -13v1l25.5 -28zM855.001 119.003
c-58.667 0 -108.333 1.5 -149 4.5s-72.334 7.83301 -95.001 14.5c-22.667 7.33301 -50.834 20 -84.501 38s-67.167 39.667 -100.5 65c-34.667 -27.333 -69.667 -50.333 -105 -69s-68.666 -32 -99.999 -40c-12.667 -2 -39.667 -4 -81 -6s-96.666 -4.33301 -165.999 -7v247
c126.667 0 214.334 10 263.001 30l-42 42.5l-44 43.5l-32 31.5l-34 33l-34 32.5l-31 30l32 58l36.5 69l37 71c12.333 23.333 23.166 44.666 32.499 63.999h370c121.333 0 201 -48.333 239 -145c11.333 -30.667 17 -58.334 17 -83.001
c0 -41.333 -5.33301 -78.166 -16 -110.499s-26 -59.833 -46 -82.5c-9.33301 -10 -20.5 -20.667 -33.5 -32s-28.167 -23.666 -45.5 -36.999c54 -10 124.667 -15 212 -15v-247z" />
    <glyph glyph-name="uniFED2" unicode="&#x641;" horiz-adv-x="1521" arabic-form="final" 
d="M1203 518c0 12 -3.33301 24.834 -10 38.501s-15.667 27.5 -27 41.5l1 -1c-10 11.333 -22.5 20 -37.5 26s-32.167 9 -51.5 9c-30 0 -54.667 -9.66699 -74 -29c-22.667 -22.667 -34 -43.334 -34 -62.001c0 -21.333 12.833 -44 38.5 -68s62.5 -47.667 110.5 -71
c26 18 46.5 37 61.5 57s22.5 39.667 22.5 59zM1497 119.001c-193.333 0 -319.67 12.333 -379.003 37c-11.333 -4.66699 -27.666 -9 -48.999 -13s-46.166 -7.33301 -74.499 -10s-59.333 -4.83398 -93 -6.50098s-68.5 -2.83398 -104.5 -3.50098
c-14 -0.666992 -34.5 -1 -61.5 -1h-79.5h-97c-7.33301 0 -14.833 -0.166992 -22.5 -0.5s-15.5 -0.5 -23.5 -0.5l-279 -2c-70.667 0 -131 34.667 -181 104c-41.333 57.333 -62 127 -62 209v296h208v-271c0 -60.667 35 -91 105 -91h519
c-17.333 28.667 -29.833 58.5 -37.5 89.5s-11.5 64.5 -11.5 100.5c0 102 32.333 180 97 234c62.667 54 137.334 81 224.001 81c44 0 85 -9.66699 123 -29s71.333 -46 100 -80c24.667 -30 44 -65.333 58 -106s21 -86.667 21 -138c0 -25.333 -3.16699 -51.666 -9.5 -78.999
s-13.5 -51.666 -21.5 -72.999h131v-247zM1245 1163c0 -19.333 -3.33398 -37.166 -10.001 -53.499s-16 -30.333 -28 -42s-26.167 -20.667 -42.5 -27s-34.166 -9.5 -53.499 -9.5c-48 0 -83.833 10.667 -107.5 32s-35.5 54.666 -35.5 99.999c0 75.333 45.667 113 137 113
c93.333 0 140 -37.667 140 -113z" />
    <glyph glyph-name="uniFED3" unicode="&#x641;" horiz-adv-x="965" arabic-form="initial" 
d="M541 650c-13.333 72 -58 108 -134 108c-59.333 0 -89 -16.333 -89 -49c0 -26.667 9.33301 -44 28 -52c4 -1.33301 14.167 -2.5 30.5 -3.5s38.5 -1.83301 66.5 -2.5zM774 427c1.33301 -44.667 -4.83203 -85.168 -18.499 -121.501s-35.5 -68.5 -65.5 -96.5
c-65.333 -60 -134.666 -90 -207.999 -90h-524v247h525c35.333 0 58.666 16.333 69.999 49c-39.333 0.666992 -82.5 2.16699 -129.5 4.5s-94.167 5.83301 -141.5 10.5c-54.667 19.333 -95.667 51.5 -123 96.5s-41 102.167 -41 171.5c0 96.667 28 171.334 84 224.001
c59.333 58 131.333 87 216 87c34 0 67.167 -5.33301 99.5 -16s63.166 -25 92.499 -43c44 -29.333 79.167 -71.5 105.5 -126.5s41.833 -117.5 46.5 -187.5zM575.002 1204c0 -36.667 -13 -67.667 -39 -93c-13.333 -12.667 -27.833 -22.167 -43.5 -28.5
s-33.167 -9.5 -52.5 -9.5c-92 0 -138 43.667 -138 131c0 78 44.333 117 133 117c93.333 0 140 -39 140 -117z" />
    <glyph glyph-name="uniFED4" unicode="&#x641;" horiz-adv-x="895" arabic-form="medial" 
d="M546 518c0 10 -3.50098 22.1709 -10.501 36.5039s-15.833 28.166 -26.5 41.499v-1c-10 11.333 -21.833 20.333 -35.5 27s-29.167 10 -46.5 10c-35.333 0 -62.666 -9.66699 -81.999 -29c-22.667 -22 -34 -43.333 -34 -64c0 -22.667 13 -45.834 39 -69.501
s62.667 -46.167 110 -67.5c27.333 21.333 48.5 42.166 63.5 62.499s22.5 38.166 22.5 53.499zM899.999 113.004c-24 8 -63.001 12.002 -117.001 12.002l-170 3c-24.667 0.666992 -51 4.16699 -79 10.5s-53.667 15.166 -77 26.499c-34 -15.333 -92 -26.833 -174 -34.5
s-190 -11.5 -324 -11.5v247h203c-15.333 26.667 -27.666 56.167 -36.999 88.5s-14 64.166 -14 95.499c0 52 8.33301 97.667 25 137s40.334 71.666 71.001 96.999l-1 -1c66 58.667 142.333 88 229 88c44 0 84.667 -8.66699 122 -26s70.666 -42.666 99.999 -75.999
c26 -30.667 46 -65.5 60 -104.5s21 -83.5 21 -133.5c0 -62 -10.667 -117 -32 -165h194v-253zM571.998 1151.01c0 -37.333 -13 -69 -39 -95c-26.667 -25.333 -59 -38 -97 -38c-92 0 -138 44.333 -138 133c0 76 44 114 132 114c94.667 0 142 -38 142 -114z" />
    <glyph glyph-name="uniFED6" unicode="&#x642;" horiz-adv-x="1270" arabic-form="final" 
d="M911 366c-6.66699 23.333 -20 46 -40 68c-12.667 14 -28.667 24.333 -48 31s-41.333 10 -66 10c-64 0 -96 -15 -96 -45c0 -22 14.667 -39.667 44 -53l-3 2zM1258 119h-142.998c-5.33301 -56.667 -18.5 -109.667 -39.5 -159s-50.5 -92.666 -88.5 -129.999
c-45.333 -45.333 -94 -79.333 -146 -102s-108.667 -34 -170 -34h-261c-116 0 -216.667 48 -302 144c-38.667 45.333 -68.167 95.333 -88.5 150s-30.5 114.334 -30.5 179.001v391h206v-412c0 -43.333 31 -90.333 93 -141c23.333 -20.667 48 -35.834 74 -45.501
s53.333 -14.5 82 -14.5h216c36 0 68.5 4.83301 97.5 14.5s54.167 25.167 75.5 46.5c36 33.333 59.667 71 71 113c-33.333 0 -64.833 0.833008 -94.5 2.5s-56.834 3.66699 -81.501 6s-46.334 5.33301 -65.001 9s-33.334 7.5 -44.001 11.5
c-53.333 20.667 -93.833 54.167 -121.5 100.5s-41.5 104.833 -41.5 175.5c0 46.667 9.5 89.667 28.5 129s43.833 71.666 74.5 96.999c29.333 24 62.833 43 100.5 57s77.5 21 119.5 21c49.333 0 95.833 -11 139.5 -33s82.5 -53 116.5 -93
c22.667 -29.333 41.334 -64 56.001 -104s24.667 -84 30 -132h137v-247zM732.002 869c0 -18 -3.33203 -34.167 -9.99902 -48.5s-15.5 -26.5 -26.5 -36.5s-23.833 -17.667 -38.5 -23s-30.334 -8 -47.001 -8c-87.333 0 -131 38.667 -131 116c0 72.667 40.667 109 122 109
c87.333 0 131 -36.333 131 -109zM1071 869c0 -36 -11.5 -64.333 -34.5 -85s-51.833 -31 -86.5 -31c-90.667 0 -136 38.667 -136 116c0 72.667 42 109 126 109c87.333 0 131 -36.333 131 -109z" />
    <glyph glyph-name="uniFED7" unicode="&#x642;" horiz-adv-x="965" arabic-form="initial" 
d="M393 1171c0 -34.667 -11.332 -62.667 -33.999 -84s-51.334 -32 -86.001 -32c-89.333 0 -134 38.667 -134 116c0 70 42 105 126 105c85.333 0 128 -35 128 -105zM730.001 1171c0 -17.333 -3.33203 -33.167 -9.99902 -47.5s-15.5 -26.5 -26.5 -36.5
s-23.833 -17.833 -38.5 -23.5s-30.334 -8.5 -47.001 -8.5c-88 0 -132 38.667 -132 116c0 70 41.667 105 125 105c86 0 129 -35 129 -105zM541.002 649.999c-13.333 72 -58 108 -134 108c-59.333 0 -89 -16.333 -89 -49c0 -26.667 9.33301 -44 28 -52
c4 -1.33301 14.167 -2.5 30.5 -3.5s38.5 -1.83301 66.5 -2.5zM774.002 426.999c1.33301 -44.667 -4.83203 -85.168 -18.499 -121.501s-35.5 -68.5 -65.5 -96.5c-65.333 -60 -134.666 -90 -207.999 -90h-524v247h525c35.333 0 58.666 16.333 69.999 49
c-39.333 0.666992 -82.5 2.16699 -129.5 4.5s-94.167 5.83301 -141.5 10.5c-54.667 19.333 -95.667 51.5 -123 96.5s-41 102.167 -41 171.5c0 96.667 28 171.334 84 224.001c59.333 58 131.333 87 216 87c34 0 67.167 -5.33301 99.5 -16s63.166 -25 92.499 -43
c44 -29.333 79.167 -71.5 105.5 -126.5s41.833 -117.5 46.5 -187.5z" />
    <glyph glyph-name="uniFED8" unicode="&#x642;" horiz-adv-x="895" arabic-form="medial" 
d="M712 1173c0 -34 -11.667 -62 -35 -84c-23.333 -21.333 -51 -32 -83 -32c-89.333 0 -134 38.667 -134 116c0 70 41 105 123 105c86 0 129 -35 129 -105zM377 1173c0 -34 -11.167 -61.833 -33.5 -83.5s-51.5 -32.5 -87.5 -32.5c-88.667 0 -133 38.667 -133 116
c0 70 41 105 123 105c87.333 0 131 -35 131 -105zM546 518c0 10 -3.50098 22.1709 -10.501 36.5039s-15.833 28.166 -26.5 41.499v-1c-10 11.333 -21.833 20.333 -35.5 27s-29.167 10 -46.5 10c-35.333 0 -62.666 -9.66699 -81.999 -29c-22.667 -22 -34 -43.333 -34 -64
c0 -22.667 13 -45.834 39 -69.501s62.667 -46.167 110 -67.5c27.333 21.333 48.5 42.166 63.5 62.499s22.5 38.166 22.5 53.499zM899.999 113.004c-24 8 -63.001 12.002 -117.001 12.002l-170 3c-24.667 0.666992 -51 4.16699 -79 10.5s-53.667 15.166 -77 26.499
c-34 -15.333 -92 -26.833 -174 -34.5s-190 -11.5 -324 -11.5v247h203c-15.333 26.667 -27.666 56.167 -36.999 88.5s-14 64.166 -14 95.499c0 52 8.33301 97.667 25 137s40.334 71.666 71.001 96.999l-1 -1c66 58.667 142.333 88 229 88c44 0 84.667 -8.66699 122 -26
s70.666 -42.666 99.999 -75.999c26 -30.667 46 -65.5 60 -104.5s21 -83.5 21 -133.5c0 -62 -10.667 -117 -32 -165h194v-253z" />
    <glyph glyph-name="uniFEDA" unicode="&#x643;" horiz-adv-x="1500" arabic-form="final" 
d="M1477 119h-69.9961c-51.333 0 -97.5 5.5 -138.5 16.5s-76.167 27.167 -105.5 48.5c-42 -32.667 -76.333 -52 -103 -58h1c-7.33301 -2 -15.833 -3.33301 -25.5 -4s-21.5 -1.33398 -35.5 -2.00098h-12c-2.66699 0 -5.16699 -0.166992 -7.5 -0.5s-4.83301 -0.5 -7.5 -0.5
h-720c-36 0 -69.833 7.83301 -101.5 23.5s-59.334 37.334 -83.001 65.001s-42.5 60.667 -56.5 99s-21 80.166 -21 125.499v296h208v-271c0 -32.667 7.66699 -56 23 -70s42.666 -21 81.999 -21h656c46 2 73 10.667 81 26c10 15.333 15 48 15 98v787h208v-820
c0 -19.333 3.66699 -35.666 11 -48.999s17.666 -23.333 30.999 -30l-1 1c11.333 -4.66699 68.666 -9 171.999 -13v-247zM547.004 668c34 4 58.998 7.16602 74.998 9.49902s26 4.16602 30 5.49902c-2.66699 -0.666992 -6.66699 -0.833984 -12 -0.500977
s-11 1.16602 -17 2.49902c-1.33301 0 -2.66602 0.166992 -3.99902 0.5s-2.66602 0.5 -3.99902 0.5c-10.667 1.33301 -22 3 -34 5s-22.667 4.5 -32 7.5s-17.166 6.66699 -23.499 11s-9.5 9.83301 -9.5 16.5c0 20.667 5 39.834 15 57.501s23.667 34.167 41 49.5
s37.666 29.5 60.999 42.5s48.666 24.833 75.999 35.5l21 -79c-11.333 -4.66699 -20.333 -8 -27 -10s-13 -4 -19 -6c-3.33301 -1.33301 -6.66602 -2.16602 -9.99902 -2.49902s-6.66602 -1.16602 -9.99902 -2.49902h1c-1.33301 -0.666992 -2.83301 -1.33398 -4.5 -2.00098
s-3.16699 -1.33398 -4.5 -2.00098c-8 -2.66699 -14.833 -4.66699 -20.5 -6s-8.83398 -0.666016 -9.50098 2.00098c0.666992 -5.33301 7 -9.83301 19 -13.5s28.333 -7.16699 49 -10.5c28 -3.33301 49.5 -9.66602 64.5 -18.999s22.5 -21.333 22.5 -36
c0 -10.667 -4.83301 -23 -14.5 -37s-23 -27.167 -40 -39.5s-37 -22.666 -60 -30.999s-47.833 -12.5 -74.5 -12.5c-22 0 -45.5 2.83301 -70.5 8.5s-53.833 13.5 -86.5 23.5l2 19c9.33301 1.33301 18.833 2.33301 28.5 3s18.167 1.66699 25.5 3l15.5 2l15.5 2
c4.66699 0.666992 9 1.16699 13 1.5s8 0.833008 12 1.5z" />
    <glyph glyph-name="uniFEDB" unicode="&#x643;" horiz-adv-x="969" arabic-form="initial" 
d="M778 389c0 -180 -92.665 -270 -277.998 -270h-542v247h542c32 0 48 13.667 48 41c0 5.33301 -1.33301 10.333 -4 15s-6.33398 9.66699 -11.001 15v-1l-221 232.5l-221 232.5l-32 240l655 237l34 -239l-404 -153c4 -5.33301 8.33301 -10.5 13 -15.5l14 -15.5l53.5 -58.5
l53.5 -58.5l53 -60l53 -59l34 -37.5l33 -36.5h-1c11.333 -12.667 25 -30.5 41 -53.5s34 -50.5 54 -82.5c11.333 -19.333 19.666 -38.833 24.999 -58.5s8 -40.167 8 -61.5z" />
    <glyph glyph-name="uniFEDC" unicode="&#x643;" horiz-adv-x="1037" arabic-form="medial" 
d="M1036 119c-70.667 0 -133.333 10.334 -188 31.001s-99.334 48.667 -134.001 84c-44 -76.667 -122.667 -115 -236 -115h-518v247h519c32 0 48 15.667 48 47c0 7.33301 -4 15.333 -12 24v-1l-219.5 232l-220.5 232l-42 241l662 237l31 -239l-409 -153l42 -47.5l43 -46.5
l54 -59l55 -59l58 -63l60.5 -66l60 -65.5l56.5 -62.5c22.667 -25.333 44 -47.833 64 -67.5s37 -34.834 51 -45.501l-1 2c19.333 -11.333 43.833 -20.5 73.5 -27.5s63.834 -11.167 102.501 -12.5v-247z" />
    <glyph glyph-name="uniFEDE" unicode="&#x644;" horiz-adv-x="1321" arabic-form="final" 
d="M1334 119c-44 0 -81.3311 4.50195 -111.998 13.502s-57.334 23.5 -80.001 43.5c-10 -126.667 -44 -231.334 -102 -314.001c-86 -112 -199.333 -168 -340 -168h-260c-116 0 -217 47.667 -303 143c-80 88.667 -120 198.667 -120 330v391h202v-412
c0 -26 6.83301 -51.833 20.5 -77.5s33.167 -49.167 58.5 -70.5h-1c45.333 -38 103.666 -57 174.999 -57h219c33.333 0 65 5.33301 95 16s56 25 78 43l-1 -2c20.667 21.333 37.667 45.166 51 71.499s20 51.833 20 76.5v1131h207v-831c0 -52 64.333 -78.667 193 -80v-247z" />
    </font>
</defs>
</svg>
